<?xml version="1.0" standalone="no"?>
<!DOCTYPE svg PUBLIC "-//W3C//DTD SVG 1.1//EN" "http://www.w3.org/Graphics/SVG/1.1/DTD/svg11.dtd" >
<svg xmlns="http://www.w3.org/2000/svg" xmlns:xlink="http://www.w3.org/1999/xlink" version="1.1">
<metadata>
Created by FontForge 20200427 at Mon Oct 24 14:45:41 2005
 By www
Copyright (c) Gophmann A.L., 2005. All rights reserved.
</metadata>
<defs>
<font id="BickhamScriptThree" horiz-adv-x="239" >
  <font-face 
    font-family="Bickham Script Three"
    font-weight="400"
    font-stretch="normal"
    units-per-em="1000"
    panose-1="3 0 2 7 8 0 0 9 0 4"
    ascent="800"
    descent="-200"
    x-height="171"
    cap-height="724"
    bbox="-769 -1073 2989 1254"
    underline-thickness="20"
    underline-position="-143"
    unicode-range="U+0020-2122"
  />
<missing-glyph horiz-adv-x="500" 
d="M63 0v1254h375v-1254h-375zM125 63h250v1129h-250v-1129z" />
    <glyph glyph-name=".notdef" horiz-adv-x="500" 
d="M63 0v1254h375v-1254h-375zM125 63h250v1129h-250v-1129z" />
    <glyph glyph-name="NULL" horiz-adv-x="0" 
 />
    <glyph glyph-name="nonmarkingreturn" horiz-adv-x="153" 
 />
    <glyph glyph-name="space" unicode=" " horiz-adv-x="153" 
 />
    <glyph glyph-name="glyph4" horiz-adv-x="1000" 
 />
    <glyph glyph-name="exclam" unicode="!" 
d="M317 334q0 -25 -225 -260q-7 -7 -9 -7h-4q-1 1 -2 3q6 13 43 63q26 34 51 67q8 11 74 107q22 32 61 32q11 0 11 -5zM84 33q0 -14 -19.5 -28t-34.5 -14q-4 4 -4 19q0 34 41 34q17 0 17 -11z" />
    <glyph glyph-name="quotedbl" unicode="&#x22;" horiz-adv-x="190" 
d="M283 332q0 -7 -47 -46.5t-53 -39.5v0q-1 1 -1 3q0 1 5 8q14 22 41 64q12 19 39 19q16 0 16 -8zM204 332q0 -7 -47 -46.5t-52 -39.5h-1v0q0 4 19 36q13 19 24.5 38.5t40.5 19.5q16 0 16 -8z" />
    <glyph glyph-name="numbersign" unicode="#" horiz-adv-x="356" 
d="M387 283q0 -9 -77 -98h51q16 0 16 -4t-16 -4h-58l-55 -67q78 0 81 -4q0 -5 -16 -5h-72l-46 -57q-49 -61 -56 -61l-2 1q-1 1 -1 3q0 11 81 114q-66 -2 -99 -2q-27 -33 -53 -67q-46 -56 -54 -56l-3 1q1 14 85 122q-65 0 -65 6q0 7 74 7l48 63q-74 0 -74 6q0 5 17 7
q12 1 36 0l30 -1q20 27 39 53q33 41 49 41q9 0 11 -5q0 -3 -70 -89q42 0 92 -2q22 30 43 59q35 44 52 44q10 0 12 -5zM274 176q-13 -1 -94 -1l-52 -64q84 0 97 -1z" />
    <glyph glyph-name="dollar" unicode="$" horiz-adv-x="245" 
d="M288 247q0 -36 -25 -36q-19 0 -19 17q0 8 8 18.5t8 14.5q0 6 -12 11l-66 -100q14 -43 14 -60q0 -37 -31.5 -65t-69.5 -28q-8 0 -15 1q-29 -49 -37 -48h-1l-2 5q16 30 27 44q-43 11 -43 45q0 40 30 40q22 0 22 -18q0 -12 -9.5 -22t-9.5 -17q0 -13 17 -18l74 113
q-8 17 -8 47q0 40 28 64.5t69 25.5q29 40 35 40h1q1 -2 1 -3q0 -7 -21 -38q35 -8 35 -33zM233 273q-26 0 -43.5 -17.5t-17.5 -43.5q0 -14 4 -25zM162 92q0 22 -8 38l-68 -101q4 -1 7 -1q27 0 48 18.5t21 45.5z" />
    <glyph glyph-name="percent" unicode="%" horiz-adv-x="392" 
d="M365 118q0 -41 -43 -82.5t-83 -41.5q-35 0 -35 32q0 38 42 77.5t80 40.5l5 -2q-6 -3 -16 -9q-23 -14 -51 -52q-30 -41 -30 -65q0 -13 15 -13q23 0 60 51q34 48 34 72q0 11 -9 16l5 2q26 0 26 -26zM378 298q0 -4 -77 -83q-44 -46 -88 -91q-48 -53 -143 -158q-8 -9 -14 -9
q-3 0 -3 3q0 8 116 139q91 101 137 151v1q-33 -20 -66 -20q-16 0 -36 6q2 -7 2 -13q0 -37 -44 -79.5t-81 -42.5q-36 0 -36 31q0 43 41 79q35 30 81 41l4 -2q-1 -1 -5 -3q-25 -11 -58 -55t-33 -69q0 -12 15 -12q23 0 59 51q34 48 34 73q0 4 -2 9l-6 6l5 2q12 0 17 -6
q16 -9 37 -9q41 0 85.5 31t50.5 31q8 0 8 -2z" />
    <glyph glyph-name="ampersand" unicode="&#x26;" horiz-adv-x="452" 
d="M547 267q0 -14 -10 -28.5t-24 -14.5q-17 0 -17 19q0 4 1.5 10t1.5 9q0 15 -19 15q-31 0 -117 -76q-19 -17 -110 -106q44 -60 44 -112q0 -65 -51.5 -111t-116.5 -46q-20 0 -40 10q-24 12 -24 31q0 2 2 4q16 -33 62 -33q52 0 87.5 39t35.5 92q0 50 -26 102
q-94 -76 -155 -76q-37 0 -37 31q0 66 150 134q-6 20 -6 43q0 32 22.5 61t54.5 29q28 0 28 -31q0 -44 -73 -95q18 -35 37 -63q110 109 121 118q88 77 139 77q40 0 40 -32zM272 256q0 21 -20 21q-21 0 -35 -25.5t-14 -48.5q0 -14 5 -28q64 46 64 81zM220 81q-23 39 -33 71
q-49 -34 -64 -47q-42 -36 -42 -64q0 -19 25 -19q40 0 114 59z" />
    <glyph glyph-name="quotesingle" unicode="'" horiz-adv-x="109" 
d="M204 331q0 -8 -45 -44q-38 -30 -55 -41v3q0 4 44 72q12 19 41 19q15 0 15 -9z" />
    <glyph glyph-name="parenleft" unicode="(" 
d="M491 461q-179 -60 -296 -210q-121 -155 -121 -340l-2 -3h-1q-9 6 -9 79q0 168 130 310q128 139 296 166z" />
    <glyph glyph-name="parenright" unicode=")" 
d="M281 364q0 -116 -69 -226q-65 -103 -169 -169q-90 -57 -141 -57q-6 0 -9 3v1l3 1q23 5 67 28q123 66 209 194q88 133 92 269v25q-1 18 -1 25q0 6 1 8q8 -6 13 -48q4 -32 4 -54z" />
    <glyph glyph-name="asterisk" unicode="*" horiz-adv-x="231" 
d="M302 339q-17 -9 -74 -2q22 -48 22 -59q0 -3 -2 -4q-5 2 -20 23t-21 32l-38 -35q-12 -12 -30 -24l-2 1q4 15 52 69q-17 3 -33 7q-21 4 -28 12q2 5 16 5q25 0 46 -3q-21 42 -21 55q-1 1 -1 3q0 5 5 5q9 0 40 -57q57 57 68 57q2 0 2 -3q0 -11 -49 -65q68 -9 68 -17z" />
    <glyph glyph-name="plus" unicode="+" horiz-adv-x="356" 
d="M345 126q-3 -6 -67 -8q-50 -1 -76 0l-58 -68q-52 -61 -60 -61h-1q0 8 89 128h-42q-27 -1 -41 -1q-45 0 -45 7q0 17 21 16l120 -4q22 29 65 87q19 28 38 28q15 0 15 -5q0 -8 -87 -111q82 -3 113 -3q16 0 16 -5z" />
    <glyph glyph-name="comma" unicode="," horiz-adv-x="126" 
d="M78 34q0 -13 -39 -47.5t-56 -41.5q-4 -1 -13 -5q1 5 28 35q22 25 19 48q8 21 46 21q15 0 15 -10z" />
    <glyph glyph-name="hyphen" unicode="-" horiz-adv-x="245" 
d="M195 65l-2 -5l-4 3q-10 16 -40 16q-13 0 -37.5 -4.5t-37.5 -4.5q-33 0 -36 16l1 3h2q10 -5 18 -5q17 0 46 16.5t46 16.5q45 0 44 -52z" />
    <glyph glyph-name="hyphen" unicode="&#x2010;" horiz-adv-x="245" 
d="M195 65l-2 -5l-4 3q-10 16 -40 16q-13 0 -37.5 -4.5t-37.5 -4.5q-33 0 -36 16l1 3h2q10 -5 18 -5q17 0 46 16.5t46 16.5q45 0 44 -52z" />
    <glyph glyph-name="period" unicode="." horiz-adv-x="126" 
d="M76 33q0 -14 -19.5 -28t-34.5 -14q-4 4 -4 15q0 38 43 38q15 0 15 -11z" />
    <glyph glyph-name="slash" unicode="/" 
d="M383 374q-12 -19 -205 -225q-62 -66 -123 -133q-29 -32 -88 -95q-3 -4 -12 -8l-3 2v2l1 4q22 28 207 240q54 63 161 189q26 30 51 30q11 0 11 -6z" />
    <glyph glyph-name="zero" unicode="0" horiz-adv-x="266" 
d="M283 217q0 -61 -79 -147q-73 -79 -140 -79q-56 0 -56 55q0 67 72 142.5t139 75.5q6 0 8 -3q-1 0 -6 -1q-15 -2 -56 -44q-117 -120 -117 -191q0 -23 23 -23q44 0 113 94q67 91 67 138q0 17 -18 27q4 2 10 2q17 0 28.5 -14t11.5 -32z" />
    <glyph glyph-name="one" unicode="1" horiz-adv-x="187" 
d="M245 261q-5 -9 -12 -17q-75 -89 -157 -205q-33 -47 -83 -47q-5 0 -5 4q0 12 85.5 112t104.5 114v1q-69 -52 -110 -52l-4 1v3q19 5 96 49q72 42 80 42q5 0 5 -5z" />
    <glyph glyph-name="two" unicode="2" horiz-adv-x="249" 
d="M264 223q0 -95 -232 -183v-1q12 4 22 4q14 0 38.5 -7.5t36.5 -7.5q27 0 50 20l28 23l2 -3q-6 -20 -43 -47t-60 -27q-17 0 -48.5 11.5t-48.5 11.5q-15 0 -29 -8q-22 -14 -25 -15l-2 6q17 17 55 36q62 31 122 76q84 65 84 109q0 26 -27 26q-34 0 -68 -25q-37 -27 -37 -60
q0 -15 10 -18q3 -1 21 -1q2 0 3 -1q0 -10 -25 -10q-29 0 -29 24q0 40 55 77q50 33 93 33q54 0 54 -43z" />
    <glyph glyph-name="three" unicode="3" horiz-adv-x="252" 
d="M269 235q0 -48 -108 -86v-1q50 0 50 -43q0 -47 -61 -83q-53 -31 -104 -31q-67 0 -67 41q0 49 51 49q24 0 24 -16q0 -14 -19 -27t-19 -24q0 -14 29 -14q39 0 79.5 40.5t40.5 80.5q0 18 -13 18q-14 0 -40 -12q-1 1 -1 2q0 5 29 19q37 17 53 30q28 23 28 51q0 19 -24 19
q-32 0 -56 -21t-24 -52l3 -4l-1 -4h-2q-12 0 -12 23q0 15 18 34q39 42 105 42q41 0 41 -31z" />
    <glyph glyph-name="four" unicode="4" horiz-adv-x="273" 
d="M326 265l-6 -9q-17 -22 -52 -66q-48 -63 -101 -138q5 -1 17 -1q37 0 37 -12q-1 -1 -1 -2l-4 -2q-9 0 -27.5 2t-28.5 2q-45 -61 -101 -128q-19 -10 -42 -10q-4 0 -6 3v1q0 12 93 134q-49 0 -78 -3q-58 -6 -52 -6q-2 0 -2 3q0 20 229 169q27 19 54 37q44 28 64 28q5 0 7 -2
zM258 221l-2 2q-127 -72 -250 -175v-1q35 5 108 5q34 44 69 87q41 51 75 82z" />
    <glyph glyph-name="five" unicode="5" horiz-adv-x="258" 
d="M320 251q0 -4 -16 -17q-23 -18 -65 -18q-31 0 -56 15q-34 -45 -74 -81h1q19 10 49 10q58 0 58 -45q0 -57 -60 -93q-52 -31 -112 -31q-64 0 -64 38q0 50 44 50q22 0 22 -22q0 -5 -14 -21t-14 -23q0 -13 26 -13q48 0 86.5 38t38.5 86q0 25 -25 25q-22 0 -43 -13t-23 -13
q-5 0 -5 5q0 4 13 15q64 52 115 123q5 7 12 7l4 -2q15 -27 69 -27q8 0 18 5.5t13 5.5q2 -1 2 -4z" />
    <glyph glyph-name="six" unicode="6" horiz-adv-x="261" 
d="M403 284q0 -6 -2 -9q-13 12 -25 24q-12 9 -35 9q-81 0 -205 -133q-86 -92 -86 -147q0 -29 25 -29q33 0 78.5 57t45.5 91q0 17 -17 17q-13 0 -27 -8q-22 -12 -25 -13l-2 2q2 12 23 22t35 10q49 0 49 -50q0 -52 -52.5 -94.5t-106.5 -42.5q-57 0 -57 54q0 96 113 188
q109 88 208 88q19 0 39 -9q24 -11 24 -27z" />
    <glyph glyph-name="seven" unicode="7" horiz-adv-x="215" 
d="M287 249q0 -4 -11 -5q-144 -134 -253 -264q-52 -16 -74 -16q-3 0 -6 1q-2 10 101 100q78 70 116 101q54 43 96 72v1q-61 -26 -119 -26q-47 0 -47 26q0 17 16 28t34 11v-1q0 -2 -3.5 -8t-3.5 -9q0 -21 58 -21q18 0 35 2q7 0 28.5 6t26.5 6q6 0 6 -4z" />
    <glyph glyph-name="eight" unicode="8" horiz-adv-x="245" 
d="M309 273q0 -35 -39 -65q-34 -26 -72 -33q3 4 15 12q57 39 57 85q0 32 -32 32q-27 0 -45 -20t-18 -48q0 -22 15.5 -63t15.5 -64q0 -47 -43.5 -82.5t-91.5 -35.5q-67 0 -67 49q0 42 37 75q31 28 76 42q6 6 19 6l4 -2q-22 -16 -45 -32q-44 -41 -44 -89q0 -34 36 -34
q33 0 55.5 26.5t22.5 60.5q0 21 -14 59.5t-14 60.5q0 41 37.5 73.5t79.5 32.5q55 0 55 -46z" />
    <glyph glyph-name="nine" unicode="9" horiz-adv-x="267" 
d="M270 205q0 -54 -56 -127.5t-132 -123.5q-88 -58 -166 -58q-19 0 -38 9q-22 11 -22 28q0 5 3 7q6 -8 13 -17q15 -15 43 -15q66 0 144 66q61 50 111 122q69 99 69 138q0 21 -23 21q-33 0 -76.5 -52t-43.5 -86q0 -22 23 -22q14 0 31.5 12.5t22.5 13.5l1 -1q0 -11 -27 -24
t-40 -13q-44 0 -44 49q0 52 50 94q49 39 102 39q55 0 55 -60z" />
    <glyph glyph-name="colon" unicode=":" horiz-adv-x="163" 
d="M125 132q0 -14 -19.5 -28t-34.5 -14q-4 4 -4 15q0 38 42 38q16 0 16 -11zM77 33q0 -14 -19.5 -28t-34.5 -14q-4 4 -4 15q0 38 42 38q16 0 16 -11z" />
    <glyph glyph-name="semicolon" unicode=";" horiz-adv-x="163" 
d="M125 132q0 -14 -19.5 -28t-34.5 -14q-4 4 -4 15q0 38 41 38q17 0 17 -11zM79 34q0 -13 -39 -47.5t-56 -41.5q-4 -1 -13 -5q1 5 28 35q22 25 19 48q8 21 46 21q15 0 15 -10z" />
    <glyph glyph-name="less" unicode="&#x3c;" horiz-adv-x="282" 
d="M309 229q-1 -2 -4 -4q-42 -23 -110 -51q-55 -24 -111 -47l140 -87q8 -5 8 -6q0 -6 -4 -6q-1 0 -2 1q-5 1 -81 40l-93 48q-13 7 -13 13q0 4 23 13l78 29q161 60 165 60q3 0 4 -3z" />
    <glyph glyph-name="equal" unicode="=" horiz-adv-x="331" 
d="M343 160q-7 -11 -96 -11q-23 0 -68.5 1t-68.5 1q-51 0 -25 -1q-19 1 -19 9q0 16 24 16q96 0 237 -9q16 -1 16 -6zM306 96q0 -4 -15 -5q-88 -4 -248 -4q-13 0 -13 10q0 15 23 14l237 -8q16 -1 16 -7z" />
    <glyph glyph-name="greater" unicode="&#x3e;" horiz-adv-x="282" 
d="M265 129q0 -4 -23 -13q-228 -88 -243 -88q-1 0 -3 1q-1 4 65 35q53 22 159 68q-36 23 -107 67q-40 22 -39 28v1q1 2 4 2q10 0 175 -88q12 -6 12 -13z" />
    <glyph glyph-name="question" unicode="?" 
d="M309 294q0 -47 -58 -88q-17 -13 -97 -55q-57 -30 -64 -49q-11 -30 -19 -30q-3 0 -3 4q0 34 81 91q90 63 108 108q4 9 4 17q0 26 -31 26q-34 0 -69.5 -29t-35.5 -62q0 -11 11 -23q-2 -2 -5 -2q-24 0 -24 26q0 40 58 76q52 33 96 33q48 0 48 -43zM84 33q0 -14 -19.5 -28
t-34.5 -14q-4 4 -4 19q0 34 41 34q17 0 17 -11z" />
    <glyph glyph-name="at" unicode="@" horiz-adv-x="495" 
d="M423 186q0 -29 -20 -56q4 -9 4 -19q0 -58 -62 -93q-52 -30 -114 -30q-56 0 -95 24q-46 29 -46 82q0 77 79 127q68 43 149 43h1q41 0 70 -18q34 -21 34 -60zM315 172q0 12 -14 12q-18 0 -57 -38.5t-39 -55.5q0 -8 8 -8q17 0 59.5 37t42.5 53zM407 187q0 34 -29 53
q-26 16 -61 16q-67 0 -130 -53q-67 -56 -67 -121q0 -85 114 -85q89 0 144 64q21 25 21 49q0 6 -1 11q-11 -20 -39 -37.5t-51 -17.5q-37 0 -37 25q0 8 8 21h-1q-45 -45 -77 -45q-29 0 -29 22q0 37 47 72q44 32 82 32q27 0 23 -24h1q21 24 34 24q12 0 12 -5q0 -2 -32.5 -42.5
t-32.5 -54.5q0 -12 16 -12q34 0 59 37q3 7 12 19q-5 8 -10 19l1 1q4 0 13 -12q10 23 10 44z" />
    <glyph glyph-name="bracketleft" unicode="[" 
d="M485 463l-4 -7q-41 -3 -48 -4q-36 -4 -44 -13q-16 -21 -47 -62l-98 -128q-70 -91 -194 -242q-56 -68 -56 -75v0q3 -5 37 -9q29 -4 41 -4l-5 -6h-111q139 189 209 280q119 154 222 270h98z" />
    <glyph glyph-name="backslash" unicode="\" 
d="M143 -78q0 -8 -5 -8q-4 0 -7 13l-74 324q-23 102 -23 100q0 9 5.5 21t12.5 12t14 -34q14 -66 34 -180l42 -237q1 -6 1 -11z" />
    <glyph glyph-name="bracketright" unicode="]" 
d="M398 463q-24 -40 -134 -185q-133 -175 -297 -365h-98l5 7q39 2 84 11q20 18 53 64l48 66q147 194 246 309q56 65 56 73q0 6 -35 10q-27 4 -43 4l4 6h111z" />
    <glyph glyph-name="asciicircum" unicode="^" horiz-adv-x="307" 
d="M291 136q-1 0 -3 -1q-15 0 -91 76q-22 -15 -81 -47q-62 -33 -72 -33q-1 0 -2 1q4 5 84 62.5t82 57.5q3 0 5 -3q17 -22 78 -113z" />
    <glyph glyph-name="underscore" unicode="_" horiz-adv-x="500" 
d="M445 -135h-509v30h509v-30z" />
    <glyph glyph-name="grave" unicode="`" horiz-adv-x="307" 
d="M246 201l-1 -4q-13 2 -47 36.5t-34 49.5q0 19 18 19q5 0 7 -3q6 -7 26 -47q11 -17 31 -51z" />
    <glyph glyph-name="a" unicode="a" horiz-adv-x="288" 
d="M302 99q0 -10 -69 -65q-50 -40 -86 -40q-29 0 -29 24q0 18 14 33h-1q-63 -57 -113 -57q-38 0 -38 33q0 29 28 61h-1q-15 -16 -19 -16q-2 0 -3 1v2l1 4q25 30 83.5 61.5t93.5 31.5t35 -26q0 -6 -2 -13h1q34 38 62 38q13 0 13 -3t-51 -64.5t-51 -81.5l2 -5q3 -1 7 -1
q21 0 69.5 41.5t52.5 42.5zM189 143q0 18 -19 18q-26 0 -86.5 -58t-60.5 -82q0 -12 13 -12q29 0 91 54t62 80z" />
    <glyph glyph-name="b" unicode="b" horiz-adv-x="298" 
d="M534 542q0 -67 -309 -301q-41 -29 -101 -83q-19 -24 -58 -80l2 -3q102 97 162 97q42 0 42 -31q0 -49 -63 -99q-59 -47 -110 -47q-30 0 -30 20q0 19 52 39l70 22q35 35 35 69q0 11 -13 11q-50 0 -198 -146q-15 -14 -36 -14q-11 0 -11 7q0 23 74 115h-1q-37 -37 -45 -37
q-1 0 -2 1q1 7 31 33l38 33q19 25 57 73q92 113 180 203q144 145 202 145q32 0 32 -27zM508 539q0 19 -17 19q-41 0 -186 -168q-104 -121 -165 -206v-1q102 85 204 171q164 144 164 185zM183 65v1l-54 -20q-41 -17 -41 -28q0 -9 9 -9q41 0 86 56z" />
    <glyph glyph-name="c" unicode="c" horiz-adv-x="213" 
d="M221 92q0 -13 -64 -57t-118 -44q-53 0 -53 36q0 31 29 67h-1q-9 -10 -29 -21v2q0 2 1 4q23 28 82 60t92 32q35 0 35 -28q0 -15 -10.5 -29.5t-24.5 -14.5t-14 14q0 6 8 20t8 21t-10 7q-25 0 -70 -53.5t-45 -81.5q0 -19 23 -19q41 0 100.5 43l59.5 43h1v-1z" />
    <glyph glyph-name="d" unicode="d" horiz-adv-x="288" 
d="M496 432q-160 -160 -288 -343q-40 -57 -40 -65q0 -9 11 -9q16 0 61 37q52 43 61 48l1 -2q-13 -26 -70.5 -65t-85.5 -39t-28 24q0 18 14 33h-1q-63 -57 -114 -57q-37 0 -37 33q0 29 28 61h-1q-15 -16 -20 -16q-1 0 -2 1v2q0 2 1 4q26 30 83.5 61.5t94.5 31.5q41 0 34 -32
h1q233 299 282 299q14 0 15 -7zM188 143q0 18 -18 18q-26 0 -87 -57.5t-61 -82.5q0 -12 14 -12q29 0 90.5 54t61.5 80z" />
    <glyph glyph-name="e" unicode="e" horiz-adv-x="212" 
d="M227 98q0 -3 -9 -12q-37 -38 -82 -64q-53 -31 -98 -31q-55 0 -55 37q0 27 24 59h-1q-14 -15 -19 -15q-1 0 -2 1v2l1 4q28 31 82 61q58 31 95 31q29 0 29 -26q0 -45 -151 -93q-6 -20 -6 -27q0 -18 23 -18q31 0 73 24q29 17 63 45q29 25 30 25q3 0 3 -3zM157 149q0 9 -12 9
q-20 0 -55 -38q-27 -29 -43 -57v-1q110 35 110 87z" />
    <glyph glyph-name="f" unicode="f" horiz-adv-x="171" 
d="M535 542q0 -39 -68 -101.5t-253 -213.5q-29 -22 -83 -68q-13 -12 -118 -155q79 22 159 90q8 7 10 7q3 0 3 -1q0 -5 -8 -13q-24 -25 -65 -50q-48 -23 -105 -56q-8 -11 -16 -36q-7 -20 -13 -39q-34 -89 -91 -182q-79 -128 -132 -128q-23 0 -23 23q0 105 324 510h-1
q-21 -20 -61 -47q1 6 39 39q23 19 45 37q44 55 114 141q68 82 148 158q117 112 166 112q29 0 29 -27zM510 540q0 18 -16 18q-37 0 -176 -163q-93 -108 -169 -210v-1l202 176q159 143 159 180zM-9 -25h-1q-59 -79 -126 -178q-99 -146 -99 -172q0 -10 9 -10q39 0 129 154
q50 86 88 206z" />
    <glyph glyph-name="g" unicode="g" horiz-adv-x="285" 
d="M299 98q0 -15 -82 -71q-54 -38 -100 -65q-173 -260 -343 -347q-41 -21 -69 -21q-48 0 -48 35q0 46 87 118q63 53 176 123q71 42 143 85q24 32 63 91v1q-63 -53 -109 -53q-38 0 -38 33q0 32 28 59v1q-18 -15 -20 -15q-1 0 -2 1v2l1 4q27 31 84.5 61.5t95.5 30.5
q36 0 32 -34h1q30 34 48 34t18 -7q0 -3 -15.5 -21.5t-123.5 -164.5v-1l46 30q45 29 79 56q13 14 47 37q1 -1 1 -2zM189 143q0 18 -18 18q-26 0 -87 -57.5t-61 -82.5q0 -12 14 -12q29 0 90.5 54t61.5 80zM54 -62v1q-195 -123 -212 -135q-150 -108 -150 -172q0 -25 28 -25
q97 0 334 331z" />
    <glyph glyph-name="h" unicode="h" horiz-adv-x="317" 
d="M534 542q0 -39 -68 -101q-84 -77 -256 -215q-31 -22 -86 -68q-18 -18 -42 -54q-19 -28 -37 -56l3 -1q147 124 195 124q31 0 31 -22q0 -18 -39 -66t-39 -61l1 -4q3 -1 7 -1q21 0 71 40.5t55 41.5v-2q0 -2 -8 -11q-30 -31 -69 -58q-50 -34 -81 -34t-31 20q0 26 44.5 78
t44.5 57t-7 5q-30 0 -125.5 -79t-112.5 -79t-17 6q0 10 33 58q26 39 42 59v1q-42 -39 -48 -39l-1 1q1 8 31 34q20 16 39 32q1 1 57 73q77 100 180 203q144 145 201 145q32 0 32 -27zM508 539q0 19 -17 19q-41 0 -186 -168q-104 -121 -165 -206v-1q102 85 204 171
q164 144 164 185z" />
    <glyph glyph-name="i" unicode="i" horiz-adv-x="161" 
d="M235 293q0 -14 -19.5 -28t-34.5 -14q-4 4 -4 18q0 35 44 35q14 0 14 -11zM176 98q0 -11 -68 -64q-53 -41 -87 -41q-30 0 -30 23t35 68q29 38 55 59v1q-16 -11 -48 -36q-12 -11 -36 -31q-6 -4 -10 -4l-1 2q10 23 65 58.5t83 35.5q7 0 12 -2v-2q0 -2 -51 -63.5t-51 -77.5
q1 -3 3 -6t6 -3q17 0 63.5 40.5t59.5 43.5v-1z" />
    <glyph glyph-name="j" unicode="j" horiz-adv-x="165" 
d="M228 293q0 -14 -19.5 -27.5t-34.5 -13.5q-4 4 -4 13q0 39 42 39q16 0 16 -11zM180 97q-3 -4 -8 -11q-14 -18 -86 -67q-61 -41 -97 -61q-78 -112 -127 -168q-73 -83 -156 -141q-79 -55 -128 -55q-42 0 -42 34q0 92 399 325q35 49 71 98q48 66 75 93v1q-17 -12 -48 -37
q-12 -12 -36 -31q-5 -3 -10 -4l-1 2q4 9 25 27q43 35 58 45q36 23 67 23q6 0 9 -3q-64 -83 -146 -191v-1q101 57 167 118q7 7 11 7q1 0 2 -1zM-76 -65v1q-27 -18 -83 -54q-115 -70 -162 -107q-111 -86 -111 -146q0 -21 30 -21q62 0 182 137q79 91 144 190z" />
    <glyph glyph-name="k" unicode="k" horiz-adv-x="312" 
d="M534 542q0 -39 -68 -101q-94 -86 -176 -151q-44 -32 -87 -64q-54 -40 -79 -68q-17 -19 -41 -54q-29 -44 -39 -56l2 -1q65 59 90 77q63 47 105 47q43 0 43 -29q0 -22 -25.5 -27t-49.5 -9q-26 -10 -26 -41q0 -47 20 -47q21 0 68 40t54 41v-2q0 -11 -69 -64q-51 -39 -86 -39
q-34 0 -34 41q0 44 26 63q10 7 48 19q26 8 26 25q0 16 -15 16q-37 0 -125.5 -81t-109.5 -81q-12 0 -16 3v4q-2 24 71 114v1q-37 -37 -45 -37q-2 0 -2 1q1 7 31 33q37 32 38 33q19 25 57 73q79 100 176 198q147 150 206 150q32 0 32 -27zM508 539q0 19 -17 19
q-62 0 -351 -374v-1q102 85 204 171q164 144 164 185z" />
    <glyph glyph-name="l" unicode="l" horiz-adv-x="167" 
d="M527 542q0 -37 -68.5 -101.5t-334.5 -282.5q-13 -10 -45.5 -64t-32.5 -68l2 -5q4 -4 8 -4q34 0 111 76l13 6v-2q0 -10 -68 -63q-52 -40 -90 -40q-31 0 -31 23q0 30 55 105h-1q-44 -41 -50 -41l-1 1q1 8 33 35l40 34q17 22 52 66q284 352 377 352q31 0 31 -27zM502 539
q0 19 -17 19q-37 0 -181 -169q-105 -122 -164 -205v-1q103 88 206 177q156 140 156 179z" />
    <glyph glyph-name="m" unicode="m" horiz-adv-x="512" 
d="M525 98q0 -12 -69 -64q-54 -40 -90 -40q-29 0 -29 23t44 75t44 57t-7 5q-30 0 -124 -79t-114 -79q-16 0 -16 6q0 20 50.5 81.5t50.5 64.5q0 6 -8 6q-27 0 -124 -79t-113 -79q-17 0 -17 6q0 14 48 77.5t49 64.5q-2 6 -6 6q-17 0 -61 -39t-45 -39q-4 0 -4 4q0 6 65 61
q40 34 70 34q25 0 25 -23q0 -17 -64 -100l3 -1q147 124 194 124q32 0 32 -23q0 -17 -27 -51q-21 -24 -42 -49l3 -1q147 124 195 124q31 0 31 -22q0 -17 -39 -65.5t-39 -61.5l1 -4q3 -1 7 -1q21 0 64 35q54 43 62 47v-1z" />
    <glyph glyph-name="n" unicode="n" horiz-adv-x="352" 
d="M367 98q0 -4 -32 -31q-27 -24 -39 -33q-54 -40 -90 -40q-30 0 -30 20q0 26 44.5 78t44.5 57t-7 5q-30 0 -125.5 -79t-112.5 -79t-17 6q0 14 48 77.5t49 64.5q-2 6 -6 6q-17 0 -61 -39t-45 -39q-4 0 -4 4q0 11 55.5 53t79.5 42q25 0 25 -23q0 -17 -64 -100l3 -1
q147 124 195 124q31 0 31 -22q0 -18 -39 -66t-39 -61l1 -4q3 -1 7 -1q22 0 72 41.5t52 41.5l3 -1.5z" />
    <glyph glyph-name="o" unicode="o" horiz-adv-x="248" 
d="M262 97q0 -12 -38 -36t-53 -24q-13 0 -18 3q-70 -49 -114 -49q-49 0 -49 37t28 69v1q-26 -26 -32 -26q-1 0 -1 1v2l1 4q31 33 84 62q57 30 98 31l6 -5q-1 -1 -11 -6q-33 -16 -79 -63q-51 -52 -51 -83q0 -14 14 -14q39 0 93 61q13 52 50 68q3 7 3 25q0 2 -1.5 5.5
t-1.5 5.5q0 4 6 4q9 0 15.5 -12.5t6.5 -22.5q0 -35 -57 -88q3 -1 6 -1q23 0 52 24q33 27 42 29q1 -1 1 -2z" />
    <glyph glyph-name="p" unicode="p" horiz-adv-x="326" 
d="M340 99q-2 -15 -69 -65q-53 -40 -90 -40q-33 0 -33 23q0 26 45.5 75t45.5 56q0 5 -8 5q-52 0 -202 -186q-60 -74 -191 -256l-38 -56q-27 -37 -41 -48.5t-24 -11.5q-23 0 -23 25t33 74q198 289 356 479h-1q-106 -99 -115 -99v0q5 12 173 164q22 20 39 20q15 0 15 -4
q0 -2 -16 -21q-55 -64 -184 -234q-118 -154 -195 -267q-64 -93 -64 -104v-3q1 -1 2 -1q11 0 111 142q126 179 200 263q123 142 189 142q31 0 31 -20t-41.5 -65.5t-41.5 -59.5q0 -9 10 -9q22 0 72 40.5t55 41.5z" />
    <glyph glyph-name="q" unicode="q" horiz-adv-x="274" 
d="M287 97q0 -1 -35 -36q-61 -61 -96 -102q-81 -95 -183 -241q-20 -29 -39 -58q-25 -34 -46 -52q-15 -13 -29 -13q-19 0 -19 22q0 34 140 230q90 128 150 204v1q-58 -58 -114 -58q-37 0 -37 33q0 32 28 59v1q-18 -15 -20 -15q-1 0 -2 1v2l1 4q24 29 83.5 61t93.5 32
q35 0 35 -26q0 -6 -2 -13h1q35 38 50 38q18 0 18 -7q0 2 -67 -86q-316 -415 -316 -450q0 -1 1 -2.5t2 -1.5q10 0 43 48q173 246 293 371q19 20 31 32q25 23 35 24v-2zM189 143q0 18 -19 18q-26 0 -86.5 -58t-60.5 -82q0 -12 13 -12q29 0 91 54t62 80z" />
    <glyph glyph-name="r" unicode="r" horiz-adv-x="205" 
d="M219 98q0 -14 -69 -64q-54 -40 -89 -40q-31 0 -31 24q0 30 57 80.5t57 51.5q0 6 -11 7q-8 1 -22 0l-17 -2q-5 0 -14 3q-7 -9 -48 -47t-45 -38q-3 0 -3 3q0 2 8 9q17 14 80 77q-7 4 -7 14q0 15 14.5 25t30.5 10q14 0 18 -10q-8 -6 -15 -12q-10 -8 -10 -16q0 -7 34 -9
t34 -20q0 -10 -42 -55.5t-42 -64.5q0 -3 3 -6h5q19 -1 70.5 41t50.5 42q3 0 3 -3z" />
    <glyph glyph-name="s" unicode="s" horiz-adv-x="228" 
d="M242 98q0 -5 -30 -31q-88 -76 -179 -76q-61 0 -61 49q0 22 14.5 42t35.5 20q22 0 22 -15t-23 -31t-23 -33q0 -22 29 -22q30 0 53 32q15 19 33.5 65.5t27.5 58.5v1q-80 -65 -94 -65q-1 0 -2 1q2 6 48 40q51 37 58 45q24 28 45 28q13 0 13 -4q0 -6 -42 -32q-6 -4 -6 -68
q0 -22 -12 -46t-30 -36v-1q47 22 82.5 51t39.5 29q1 -1 1 -2z" />
    <glyph glyph-name="t" unicode="t" horiz-adv-x="167" 
d="M252 307q-41 -37 -122 -139q8 1 16 1h41q15 0 15 -5q0 -7 -33 -7h-47q-77 -100 -77 -129q0 -12 10 -12q19 0 71 42l52 42q2 0 2 -2q0 -11 -68 -64q-53 -41 -92 -41q-30 0 -30 24q0 31 54 103v1q-23 -22 -57 -49q-3 1 -3 4t37 36q46 40 51 45q-7 0 -20 -1t-19 -1l-6 1
q-2 2 -2 5q0 6 27 6q24 0 28 1q115 145 157 145q9 0 15 -6z" />
    <glyph glyph-name="u" unicode="u" horiz-adv-x="320" 
d="M333 98q0 -12 -68 -64q-53 -40 -86 -40q-31 0 -31 24q0 30 55 85l-2 2q-134 -111 -178 -111q-33 0 -33 24q0 39 90 125v1q-16 -11 -48 -36q-12 -11 -36 -31q-6 -4 -10 -4l-1 2q17 27 65 59q52 35 82 35q10 0 12 -3q-1 -2 -55 -71q-45 -57 -45 -71q1 -1 3 -4t7 -3
q24 0 199 143q13 11 29 11q21 0 21 -5t-50.5 -65t-50.5 -75q0 -4 2 -6.5t6 -2.5q34 0 110 76l13 6v-1z" />
    <glyph glyph-name="v" unicode="v" horiz-adv-x="295" 
d="M309 99q-37 -54 -88 -54q-27 0 -31 19q-125 -73 -172 -73q-15 0 -15 14q0 6 48.5 63.5t49.5 74.5l-3 5l-6 2q-32 -13 -94 -71q-7 -7 -10 -7q-4 0 -4 4q0 10 55.5 52.5t79.5 42.5q28 0 28 -28q0 -51 -92 -132v-1q25 7 70.5 29.5t63.5 37.5q4 26 23 58q23 36 45 36
q12 0 12 -14q0 -21 -26 -49q-20 -23 -44 -38q2 -16 24 -16q23 0 53 23t32 23q1 0 1 -1z" />
    <glyph glyph-name="w" unicode="w" horiz-adv-x="426" 
d="M440 97q0 -12 -34.5 -32t-51.5 -20q-23 0 -31 14q-82 -66 -138 -66q-35 0 -35 26q0 20 16 43l28 36l-2 2q-124 -107 -169 -107q-27 0 -27 25q0 49 96 132v1q-18 -7 -59.5 -42.5t-44.5 -36.5l-3 3q4 10 39 38q69 56 109 56q19 0 19 -4q0 -1 -52.5 -58t-52.5 -79
q0 -11 9 -11q24 0 109 72.5t102 72.5q21 0 21 -5q0 -3 -44.5 -59.5t-44.5 -75.5q0 -11 14 -11q19 0 57 23q35 21 49 38q0 24 23.5 61.5t45.5 37.5q12 0 12 -17q0 -28 -69 -88q5 -12 23 -12q19 0 51 23t33 23t2 -3z" />
    <glyph glyph-name="x" unicode="x" horiz-adv-x="285" 
d="M293 92q0 -7 -28 -30q-43 -35 -58 -44q-37 -24 -68 -24q-46 0 -46 39q0 7 2 16h-1q-34 -55 -74 -55q-38 0 -38 32q0 18 11 32t28 14q21 0 21 -17q1 -1 1 -2q0 -5 -11.5 -16t-11.5 -20q0 -7 11 -7q21 0 63 54t42 77q0 16 -18 16q-25 0 -77.5 -42.5t-54.5 -42.5q-1 0 -1 1
v2l1 4q48 44 68 59q45 33 79 33q44 0 44 -38q0 -7 -2 -16h1q48 54 79 54q29 0 29 -24q0 -38 -33 -38q-16 0 -16 11q0 10 11 24q1 7 -8 7q-21 0 -62 -50.5t-41 -73.5q0 -18 21 -18q32 0 83 42t53 42q1 0 1 -1z" />
    <glyph glyph-name="y" unicode="y" horiz-adv-x="313" 
d="M328 97q0 -3 -10 -12q-77 -73 -122 -126q-83 -97 -183 -241q-33 -48 -41 -58q-28 -38 -43.5 -51.5t-29.5 -13.5q-19 0 -19 22q0 37 130 216l200 276l-3 1q-146 -117 -188 -117q-26 0 -26 24q0 45 87 126v1q-16 -11 -48 -36q-12 -11 -36 -31q-6 -4 -10 -4l-1 2q0 10 75 67
q36 27 72 27q7 0 12 -3v-2q0 -1 -50 -64t-50 -77q0 -6 6 -6q21 0 101 62q51 40 101 81q14 11 29 11q20 0 20 -5l-189.5 -256.5t-189.5 -281.5q0 -1 1 -2.5t2 -1.5q8 0 25 23q84 117 169 234q101 133 195 212q8 7 11 7t3 -3z" />
    <glyph glyph-name="z" unicode="z" horiz-adv-x="244" 
d="M259 98q0 -12 -132 -102q1 -7 1 -16q0 -51 -61 -129q-44 -57 -101 -107q-170 -149 -257 -149q-42 0 -42 35q0 67 174 193q41 29 252 162q1 6 1 11q0 33 -28 33q-22 0 -44 -16q-18 -14 -37 -28q-6 9 -6 7q0 3 6 12q25 21 42 30q45 23 91 45q52 29 80 60q5 5 4 9l-2 2
l-46 -18q-27 -11 -48 -11q-38 0 -48 18q-64 -66 -70 -66q-1 0 -3 1v3v2q34 38 68 69v4q0 43 43 43q17 0 17 -10q-17 -12 -17 -23q0 -13 29 -13q23 0 57 10t36 10q10 0 10 -7t-8 -18q-26 -35 -78 -64l-92 -44v-1q14 4 19 4q42 0 55 -34q30 20 90 62q9 9 30 26q9 6 13 6h1z
M90 -26q-52 -33 -155 -100q-244 -156 -244 -247q0 -21 23 -21q74 0 216 148q135 139 160 220z" />
    <glyph glyph-name="braceleft" unicode="{" horiz-adv-x="295" 
d="M555 463l-6 -8q-7 0 -20 1h-20q-51 0 -91 -20q-30 -15 -63 -76q-42 -76 -63 -100q-46 -51 -114 -54q15 -15 15 -41q0 -30 -59.5 -103t-59.5 -95q0 -26 34 -38q15 -5 56 -10l-6 -6q-108 0 -108 60q0 35 59 108t59 98q0 26 -29 33v1q69 0 113 47q13 14 64 98q38 63 83 87
q38 20 121 20z" />
    <glyph glyph-name="bar" unicode="|" horiz-adv-x="144" 
d="M82 -250h-20v1000h20v-1000z" />
    <glyph glyph-name="braceright" unicode="}" horiz-adv-x="295" 
d="M366 404q0 -33 -57 -104t-57 -96t29 -30v-1q-5 1 -10 1q-7 0 -15 -2q-50 -11 -85 -49q-20 -22 -52.5 -78t-55.5 -80q-50 -53 -166 -53q-1 0 -36 2l6 7q72 0 102 7q44 10 84 76q66 107 72 114q50 59 122 62q-21 17 -21 40q0 25 58 96t58 93q0 38 -89 49l5 5q108 0 108 -59
z" />
    <glyph glyph-name="asciitilde" unicode="~" horiz-adv-x="307" 
d="M308 153q0 -5 -2 -6q0 1 -4 6q-22 28 -78 28q-20 0 -59.5 -11.5t-60.5 -11.5q-15 0 -33.5 11t-18.5 26q0 2 1 3q6 -5 11 -10q10 -9 26 -9q24 0 68.5 17.5t68.5 17.5q31 0 54 -14q27 -17 27 -47z" />
    <glyph glyph-name="quotesinglbase" unicode="&#x201a;" horiz-adv-x="141" 
d="M73 36q0 -15 -42.5 -51t-53.5 -35h-1l-1 2q11 12 22 25q22 25 22 35q0 1 -1 3v3q0 11 16 19q13 7 26 7t13 -8z" />
    <glyph glyph-name="quotedblbase" unicode="&#x201e;" horiz-adv-x="228" 
d="M161 35q0 -13 -42.5 -49t-54.5 -36h-1l-1 2q44 47 44 61q0 10 1 12q3 8 17 13.5t24 5.5q13 0 13 -9zM73 34q0 -13 -42.5 -49.5t-53.5 -35.5h-1l-1 2q11 12 22 25q22 25 22 35q0 1 -1 3v3q0 11 16 19q13 7 26 7t13 -9z" />
    <glyph glyph-name="ellipsis" unicode="&#x2026;" horiz-adv-x="378" 
d="M330 33q0 -13 -20 -27.5t-34 -14.5q-4 5 -4 15q0 38 42 38q16 0 16 -11zM203 33q0 -13 -20 -27.5t-34 -14.5q-4 5 -4 15q0 38 42 38q16 0 16 -11zM76 33q0 -13 -20 -27.5t-34 -14.5q-4 5 -4 15q0 38 42 38q16 0 16 -11z" />
    <glyph glyph-name="dagger" unicode="&#x2020;" horiz-adv-x="356" 
d="M363 194q0 -5 -23 -6l-92 -3q-58 -71 -175 -212q-22 -29 -64 -76q-7 -5 -11 -5t-4 3q0 6 10 19q50 67 151 201l51 68h-61q-33 0 -33 10q0 13 29 13h39q17 0 40 -2q25 36 80 103q13 14 36 14q10 0 10 -7q0 -14 -85 -112q7 0 79 -3q23 -1 23 -5z" />
    <glyph glyph-name="daggerdbl" unicode="&#x2021;" horiz-adv-x="356" 
d="M371 211q0 -4 -7 -5q-37 -1 -103 -4l-85 -103q30 -2 93 -5q22 -1 22 -4q0 -5 -7 -6q-3 -1 -15 -1l-108 -3l-141 -171q-14 -17 -21 -17q-5 0 -5 4q0 6 10 19l123 164h-53q-33 0 -33 11q0 12 30 12q37 0 72 -3q18 25 75 102q-65 -3 -86 1q-11 2 -11 10q0 11 30 11t82 -2
q20 31 66 86q14 13 36 13q11 0 11 -7q0 -8 -71 -94q24 -1 73 -3q23 -1 23 -5z" />
    <glyph glyph-name="circumflex" unicode="&#x2c6;" horiz-adv-x="307" 
d="M296 201l-3 -1q-15 0 -51 46q-17 -10 -55 -28q-45 -20 -55 -20q-4 0 -4 3q0 1 2 3q11 6 32 19q29 16 82 53q6 5 10 5q3 0 6 -7q36 -79 36 -73z" />
    <glyph glyph-name="perthousand" unicode="&#x2030;" horiz-adv-x="548" 
d="M521 116q0 -38 -43.5 -80t-81.5 -42q-35 0 -35 33q0 36 42.5 76.5t78.5 40.5q5 0 5 -2t-5 -3t-11 -6q-26 -20 -46 -46q-35 -46 -35 -72q0 -12 15 -12q24 0 58.5 50t34.5 76q0 6 -2 8q-6 7 -6 5q1 2 5 2q26 0 26 -28zM364 116q0 -37 -43 -79.5t-82 -42.5q-36 0 -36 33
q0 27 26 59q24 29 52.5 43.5t43.5 14.5q5 0 5 -2t-5 -3t-11.5 -6t-20.5 -18q-60 -61 -60 -98q0 -14 15 -14q23 0 58.5 50t35.5 75q0 7 -4.5 10t-4.5 4q1 2 5 2q26 0 26 -28zM377 297q0 -3 -73 -78l-84 -86q-37 -39 -151 -167q-8 -9 -13 -9q-2 0 -3 1l-1 2q0 8 116 137
q89 102 137 153v1q-34 -21 -72 -21q-12 0 -30 7q2 -7 2 -14q0 -36 -44.5 -78.5t-80.5 -42.5q-35 0 -35 33q0 38 42.5 78t80.5 40q2 -1 2 -2q0 2 -16 -9q-22 -15 -50 -53q-30 -42 -30 -65q0 -12 14 -12q24 0 59 49t35 74q0 8 -2 10q-6 9 -6 5q0 3 5 3q13 0 17 -6q15 -9 36 -9
q54 0 94 35q9 9 19.5 18t23.5 9q8 0 8 -3z" />
    <glyph glyph-name="guilsinglleft" unicode="&#x2039;" horiz-adv-x="196" 
d="M163 166q5 -5 -15 -24l-18 -17q-21 -19 -42 -32q19 -50 19 -80v-6q0 -3 -2 -3h-1q-5 0 -5 7q-7 17 -19 38l-12 21q-16 28 -16 25q0 2 0.5 4t30.5 19q27 16 72 44q5 5 8 4z" />
    <glyph glyph-name="quoteleft" unicode="&#x2018;" horiz-adv-x="91" 
d="M181 362q-4 -3 -8 -7q-28 -30 -28 -52v-4q1 -2 1 -3q0 -12 -13.5 -19.5t-26.5 -7.5q-9 0 -9 9q0 14 34 50t48 36h1z" />
    <glyph glyph-name="quoteright" unicode="&#x2019;" horiz-adv-x="91" 
d="M177 349q0 -13 -42.5 -49.5t-53.5 -35.5h-1l-1 2q11 12 22 25q22 25 22 35q0 1 -1 3v3q0 11 16 19q13 7 26 7t13 -9z" />
    <glyph glyph-name="quotedblleft" unicode="&#x201c;" horiz-adv-x="179" 
d="M260 362q-4 -3 -8 -7q-28 -30 -28 -52v-4q1 -2 1 -3q0 -12 -13.5 -19.5t-26.5 -7.5q-9 0 -9 10q0 14 34 49.5t48 35.5h1zM181 363l-7 -7q-28 -30 -28 -54q0 -9 -1 -11q-6 -21 -38 -21q-10 0 -10 10q0 13 34 49t47 36q2 0 3 -2z" />
    <glyph glyph-name="quotedblright" unicode="&#x201d;" horiz-adv-x="179" 
d="M273 349q0 -13 -42.5 -49t-54.5 -36h-1l-1 2q44 47 44 61q0 10 1 12q3 8 17 13.5t24 5.5q13 0 13 -9zM185 349q0 -15 -42.5 -51t-53.5 -35h-1l-1 2q11 12 22 25q22 25 22 35q0 1 -1 3v3q0 11 16 19q13 7 26 7t13 -8z" />
    <glyph glyph-name="bullet" unicode="&#x2022;" horiz-adv-x="256" 
d="M202 147q0 -21 -14.5 -35.5t-35.5 -14.5q-22 0 -36.5 14t-14.5 36t14.5 36.5t36.5 14.5q21 0 35.5 -15t14.5 -36z" />
    <glyph glyph-name="endash" unicode="&#x2013;" horiz-adv-x="356" 
d="M322 99q0 -5 -15 -6q-147 -6 -240 -6q-21 0 -21 10q0 15 18 15q13 0 131 -4l111 -4q16 -1 16 -5z" />
    <glyph glyph-name="emdash" unicode="&#x2014;" horiz-adv-x="552" 
d="M518 99q0 -7 -64 -7l-385 -5q-23 0 -23 10q0 15 17 15q9 0 143 -3q214 -5 296 -5q16 0 16 -5z" />
    <glyph glyph-name="tilde" unicode="&#x2dc;" horiz-adv-x="307" 
d="M318 260q0 -13 -24 -35q-15 -14 -36 -14q-13 0 -33.5 13.5t-34.5 13.5q-13 0 -27 -14t-15 -14h-1q-1 1 -1 3q0 16 27 38q14 11 33 11q14 0 33.5 -14t32.5 -14q14 0 28.5 14.5t15.5 14.5h1q1 -1 1 -3z" />
    <glyph glyph-name="trademark" unicode="&#x2122;" horiz-adv-x="487" 
d="M420 193h-65v10q18 2 18 18q0 14 -5 74q-15 -33 -44 -99l-10 -3q-7 18 -23 54q-7 15 -21 46h-1q0 -9 -3 -36q-2 -23 -2 -37q0 -17 15 -17v-10h-45v10q9 0 12.5 4t8.5 37q5 30 5 41q0 17 -18 20v9h49q13 -29 37 -86l38 86h48v-9q-20 -1 -18 -22q2 -35 12 -75q3 -4 12 -5
v-10zM231 281l-10 -2q-5 18 -10.5 21t-26.5 3v-75q0 -25 20 -25v-10h-70v10q21 0 21 25v75q-21 0 -26 -2q-8 -4 -12 -22l-10 2l4 33h116z" />
    <glyph glyph-name="guilsinglright" unicode="&#x203a;" horiz-adv-x="196" 
d="M134 71q-1 -4 -11 -8q-22 -13 -70 -41q-3 -2 -28 -19q-1 0 -2 1q-3 5 16 24q33 33 60 49q-17 44 -20 79q0 10 3 10h1q2 0 5 -7q14 -25 41 -76q6 -8 5 -12z" />
    <glyph glyph-name="afii10110" unicode="&#x45e;" horiz-adv-x="313" 
d="M299 266q-2 -17 -35 -35.5t-52 -18.5q-10 0 -21.5 6.5t-11.5 15.5v25q5 11 14 11q16 0 16 -13q0 -14 -18 -24q5 -12 22 -12q19 0 51.5 23l32.5 23q1 0 2 -1zM328 97q0 -3 -10 -12q-77 -73 -122 -126q-83 -97 -183 -241q-33 -48 -41 -58q-28 -38 -43.5 -51.5t-29.5 -13.5
q-19 0 -19 22q0 37 130 216l200 276l-3 1q-146 -117 -188 -117q-26 0 -26 24q0 45 87 126v1q-16 -11 -48 -36q-12 -11 -36 -31q-6 -4 -10 -4l-1 2q0 10 75 67q36 27 72 27q7 0 12 -3v-2q0 -1 -50 -64t-50 -77q0 -6 6 -6q21 0 101 62q51 40 101 81q14 11 29 11q20 0 20 -5
l-189.5 -256.5t-189.5 -281.5q0 -1 1 -2.5t2 -1.5q8 0 25 23q84 117 169 234q101 133 195 212q8 7 11 7t3 -3z" />
    <glyph glyph-name="currency" unicode="&#xa4;" horiz-adv-x="320" 
d="M329 244q0 -9 -51 -47q6 -12 6 -26q0 -60 -61 -110q31 -43 31 -53q0 -8 -7 -8q-4 0 -21 22q-15 18 -20 27q-40 -30 -81 -30q-30 0 -51 23q-62 -40 -66 -40q-3 2 -3 4q0 5 58 51q-6 11 -6 31q0 59 60 105q-30 49 -30 55t7 6q4 0 10 -10q10 -13 30 -38q40 28 82 28
q34 0 52 -22q50 36 56 36q5 0 5 -4zM245 172q0 49 -42 49q-39 0 -75 -51q-33 -47 -33 -89q0 -51 40 -51q41 0 77 52q33 47 33 90z" />
    <glyph glyph-name="brokenbar" unicode="&#xa6;" horiz-adv-x="144" 
d="M82 325h-20v350h20v-350zM82 -175h-20v350h20v-350z" />
    <glyph glyph-name="section" unicode="&#xa7;" horiz-adv-x="356" 
d="M361 282q0 -13 -8.5 -25t-20.5 -12q-19 0 -19 18q0 9 8.5 20t8.5 14q0 15 -28 15t-49.5 -21t-21.5 -49q0 -19 15 -55t15 -55q0 -41 -33.5 -68.5t-75.5 -30.5q7 -22 7 -39q0 -42 -37 -70t-80 -28q-28 0 -48 13q-24 15 -24 41q0 16 9.5 28.5t24.5 12.5q23 0 23 -19
q0 -12 -10.5 -24t-10.5 -16q0 -25 40 -25q33 0 56 20t23 53q0 19 -13.5 54.5t-13.5 54.5q0 12 6 26q27 70 103 70q-7 23 -7 43q0 40 35 67q32 26 73 26q20 0 36.5 -10t16.5 -29zM225 114q0 31 -15 61h-1q-33 0 -56.5 -19t-23.5 -51q0 -16 18 -63q32 3 55 22t23 50z" />
    <glyph glyph-name="copyright" unicode="&#xa9;" horiz-adv-x="509" 
d="M429 135q0 -65 -48.5 -109.5t-113.5 -44.5q-66 0 -114.5 44.5t-48.5 109.5t48.5 110t114.5 45q65 0 113.5 -45t48.5 -110zM403 134q0 57 -40 97t-96 40t-96 -40.5t-40 -96.5t40 -95.5t96 -39.5t96 39.5t40 95.5zM342 102q0 -25 -7 -35q-11 -16 -54 -16q-40 0 -68 20
q-31 23 -31 62q0 40 31 64q28 22 69 22q59 0 59 -34v-22h-15q-2 42 -44 42q-60 0 -60 -69q0 -71 58 -71q36 0 50 37h12z" />
    <glyph glyph-name="guillemotleft" unicode="&#xab;" horiz-adv-x="279" 
d="M248 163q0 -8 -33 -37q-29 -24 -44 -33q20 -53 20 -80q0 -9 -3 -9t-4 3q-19 38 -33 63q-8 12 -16 25q0 4 32 23q28 15 71 44q5 4 7 4h2zM163 163q0 -8 -32 -36q-28 -25 -44 -34q19 -50 19 -80q0 -9 -2 -9q-6 0 -6 7q-18 41 -42 76q-5 7 -5 8q0 7 11 12q59 29 92 55
q5 4 6 4h2z" />
    <glyph glyph-name="logicalnot" unicode="&#xac;" horiz-adv-x="457" 
d="M413 163q0 -2 -2 -5q-18 -21 -54 -62q-22 -28 -58 -68q-5 -4 -8 -4q-2 0 -2.5 1t-1.5 2q0 19 79 118q-89 2 -267 7q-19 1 -19 7q0 4 7 6q3 0 81 2q75 1 153 4q67 2 77 2q15 0 15 -10z" />
    <glyph glyph-name="sfthyphen" unicode="&#xad;" horiz-adv-x="245" 
d="M195 65l-2 -5l-4 3q-10 16 -40 16q-13 0 -37.5 -4.5t-37.5 -4.5q-33 0 -36 16l1 3h2q10 -5 18 -5q17 0 46 16.5t46 16.5q45 0 44 -52z" />
    <glyph glyph-name="sfthyphen" unicode="&#x2212;" horiz-adv-x="245" 
d="M195 65l-2 -5l-4 3q-10 16 -40 16q-13 0 -37.5 -4.5t-37.5 -4.5q-33 0 -36 16l1 3h2q10 -5 18 -5q17 0 46 16.5t46 16.5q45 0 44 -52z" />
    <glyph glyph-name="registered" unicode="&#xae;" horiz-adv-x="453" 
d="M366 286q0 -52 -39.5 -89.5t-92.5 -37.5t-93.5 37.5t-40.5 89.5q0 53 40.5 90.5t93.5 37.5q52 0 92 -38t40 -90zM345 285q0 46 -32.5 78.5t-78.5 32.5q-45 0 -78 -33t-33 -78q0 -44 33.5 -77t77.5 -33t77.5 33t33.5 77zM319 221h-8q-5 -1 -8 -1q-24 0 -40 19q-6 6 -25 38
q-5 -1 -12 -1q-8 0 -8 1v-19q0 -25 22 -25v-11h-73v11q21 0 21 26v60q0 21 -21 21v11h70q50 0 50 -34q0 -19 -23 -30q14 -25 22 -34q15 -18 33 -22v-10zM256 316q0 23 -31 23h-7v-51h5h5q28 0 28 28z" />
    <glyph glyph-name="degree" unicode="&#xb0;" horiz-adv-x="155" 
d="M169 218q0 -18 -13.5 -31t-31.5 -13q-19 0 -32 12.5t-13 31.5t13 32.5t32 13.5t32 -13.5t13 -32.5zM154 217q0 12 -9 21t-21 9t-21 -9t-9 -21q0 -29 30 -29t30 29z" />
    <glyph glyph-name="plusminus" unicode="&#xb1;" horiz-adv-x="359" 
d="M375 173q0 -4 -15 -5q-58 -2 -127 -2q-70 -77 -76 -77q-1 1 -2 1.5t-1 2.5q0 7 48 72q-117 -5 -126 2q-3 1 -3 4q0 15 22 15l120 -4q20 30 63 86q7 8 21 8q16 0 16 -6q0 -5 -69 -89q40 -1 113 -3q16 0 16 -5zM303 66q0 -5 -15 -6q-98 -4 -248 -4q-13 0 -13 7q0 17 24 17
q26 0 237 -9q15 -1 15 -5z" />
    <glyph glyph-name="afii10103" unicode="&#x456;" horiz-adv-x="161" 
d="M235 293q0 -14 -19.5 -28t-34.5 -14q-4 4 -4 18q0 35 44 35q14 0 14 -11zM176 98q0 -11 -68 -64q-53 -41 -87 -41q-30 0 -30 23t35 68q29 38 55 59v1q-16 -11 -48 -36q-12 -11 -36 -31q-6 -4 -10 -4l-1 2q10 23 65 58.5t83 35.5q7 0 12 -2v-2q0 -2 -51 -63.5t-51 -77.5
q1 -3 3 -6t6 -3q17 0 63.5 40.5t59.5 43.5v-1z" />
    <glyph glyph-name="afii10098" unicode="&#x491;" horiz-adv-x="186" 
d="M200 97q-10 -30 -110 -88q-26 -15 -50 -15q-30 0 -30 21q0 24 44.5 78t44.5 55q0 5 -4 6l-47 -46q8 13 22 40q-7 -4 -42.5 -36t-36.5 -32t-2 1t-2 3q1 2 2 3q21 21 42 43q26 25 47 34q3 8 7 17l78 78q-26 -62 -34 -71l-16 -16q30 0 30 -22q0 -17 -39 -65t-40 -62l2 -4
q4 -2 8 -2q18 0 61 33q30 23 59 47h3h3z" />
    <glyph glyph-name="mu1" unicode="&#xb5;" horiz-adv-x="320" 
d="M334 98q0 -9 -47 -47q-40 -31 -60 -43q-23 -14 -48 -14q-31 0 -31 24q0 30 55 85l-2 2q-65 -57 -128 -95q-27 -16 -50 -16q-16 0 -21 13q-13 -15 -26.5 -48.5t-13.5 -51.5v-6q1 -3 1 -5t-1 -3h-2q-18 0 -18 24q0 45 51 121q40 58 87 105v1q-19 -11 -41.5 -30.5
t-42.5 -36.5q-6 -4 -8 -4h-2l-1 2q0 14 83 72q32 22 61 22q15 0 15 -5q0 -1 -50 -62t-50 -77q0 -8 10 -8q31 0 150 103q24 20 61 48q6 3 17 3q21 0 21 -6q0 -3 -50.5 -63.5t-50.5 -75.5q0 -10 8 -10q20 0 70 42t51 42q2 -1 3 -2z" />
    <glyph glyph-name="mu1" unicode="&#x3bc;" horiz-adv-x="320" 
d="M334 98q0 -9 -47 -47q-40 -31 -60 -43q-23 -14 -48 -14q-31 0 -31 24q0 30 55 85l-2 2q-65 -57 -128 -95q-27 -16 -50 -16q-16 0 -21 13q-13 -15 -26.5 -48.5t-13.5 -51.5v-6q1 -3 1 -5t-1 -3h-2q-18 0 -18 24q0 45 51 121q40 58 87 105v1q-19 -11 -41.5 -30.5
t-42.5 -36.5q-6 -4 -8 -4h-2l-1 2q0 14 83 72q32 22 61 22q15 0 15 -5q0 -1 -50 -62t-50 -77q0 -8 10 -8q31 0 150 103q24 20 61 48q6 3 17 3q21 0 21 -6q0 -3 -50.5 -63.5t-50.5 -75.5q0 -10 8 -10q20 0 70 42t51 42q2 -1 3 -2z" />
    <glyph glyph-name="paragraph" unicode="&#xb6;" horiz-adv-x="417" 
d="M609 383q0 -7 -11 -7q-7 0 -16 8t-20 8q-47 0 -117 -82q30 -7 30 -18q0 -1 -0.5 -2t-1.5 -1q-3 0 -7 3q-8 6 -27 12q-40 -52 -121 -154q-137 -168 -220 -168q-14 0 -18 1q-56 -37 -105 -37q-27 0 -48 10q-26 12 -26 36q0 17 10 29.5t25 12.5q23 0 23 -19q0 -12 -10.5 -24
t-10.5 -18q0 -18 38 -18q55 0 118 56q34 30 91 101q-31 4 -51.5 26t-20.5 53q0 38 29 70q59 65 201 65q45 0 78 -8q82 82 146 82q42 0 42 -17zM380 314v1h-13q-122 0 -179 -75q-30 -40 -30 -75q0 -38 33 -46q3 5 49 62q94 116 140 133zM416 310q-7 3 -16 3q-14 0 -35 -19
q-27 -24 -115 -134q-63 -79 -119 -135q-14 -14 -42 -34v-1q1 0 4 -1h4q48 0 128 89q2 3 104 131q27 35 87 101z" />
    <glyph glyph-name="periodcentered" unicode="&#xb7;" horiz-adv-x="126" 
d="M110 150q0 -13 -20 -27t-34 -14q-4 6 -4 17q0 36 41 36q17 0 17 -12z" />
    <glyph glyph-name="periodcentered" unicode="&#x2219;" horiz-adv-x="126" 
d="M110 150q0 -13 -20 -27t-34 -14q-4 6 -4 17q0 36 41 36q17 0 17 -12z" />
    <glyph glyph-name="afii10071" unicode="&#x451;" horiz-adv-x="212" 
d="M285 293q0 -14 -19.5 -28t-34.5 -14q-4 4 -4 18q0 35 44 35q14 0 14 -11zM185 293q0 -14 -19.5 -28t-34.5 -14q-4 4 -4 18q0 35 44 35q14 0 14 -11zM227 98q0 -3 -9 -12q-37 -38 -82 -64q-53 -31 -98 -31q-55 0 -55 37q0 27 24 59h-1q-14 -15 -19 -15q-1 0 -2 1v2l1 4
q28 31 82 61q58 31 95 31q29 0 29 -26q0 -45 -151 -93q-6 -20 -6 -27q0 -18 23 -18q31 0 73 24q29 17 63 45q29 25 30 25q3 0 3 -3zM157 149q0 9 -12 9q-20 0 -55 -38q-27 -29 -43 -57v-1q110 35 110 87z" />
    <glyph glyph-name="afii10101" unicode="&#x454;" horiz-adv-x="213" 
d="M221 92q0 -13 -64 -57t-118 -44q-53 0 -53 36q0 31 29 67h-1q-9 -10 -29 -21v2q0 2 1 4q23 28 82 60t92 32q35 0 35 -28q0 -15 -10.5 -29.5t-24.5 -14.5t-14 14q0 6 8 20t8 21t-10 7q-35 0 -89 -78q27 8 47 8q24 0 24 -14q0 -20 -26 -20v1q4 6 4 9q0 10 -30 10
q-8 0 -24 -2q-21 -32 -21 -49q0 -19 23 -19q41 0 100.5 43l59.5 43h1v-1z" />
    <glyph glyph-name="guillemotright" unicode="&#xbb;" horiz-adv-x="279" 
d="M217 73q0 -4 -3 -6q-37 -21 -78 -45q-13 -10 -27 -19q-2 0 -3 4q0 8 33 37q28 24 43 33q-19 50 -19 79q0 10 2 10q6 0 6 -7q23 -42 46 -86zM135 72q0 -3 -30 -20q-5 -3 -51 -30q-11 -9 -28 -19q-3 0 -3 4q0 8 34 37q29 25 43 33q-20 52 -20 79q0 10 3 10q2 0 14 -24
q1 -2 21 -37q17 -30 17 -33z" />
    <glyph glyph-name="afii10104" unicode="&#x457;" horiz-adv-x="161" 
d="M255 293q0 -14 -19.5 -28t-34.5 -14q-4 4 -4 18q0 35 44 35q14 0 14 -11zM155 293q0 -14 -19.5 -28t-34.5 -14q-4 4 -4 18q0 35 44 35q14 0 14 -11zM176 98q0 -11 -68 -64q-53 -41 -87 -41q-30 0 -30 23t35 68q29 38 55 59v1q-16 -11 -48 -36q-12 -11 -36 -31
q-6 -4 -10 -4l-1 2q10 23 65 58.5t83 35.5q7 0 12 -2v-2q0 -2 -51 -63.5t-51 -77.5q1 -3 3 -6t6 -3q17 0 63.5 40.5t59.5 43.5v-1z" />
    <glyph glyph-name="afii10065" unicode="&#x430;" horiz-adv-x="288" 
d="M302 99q0 -10 -69 -65q-50 -40 -86 -40q-29 0 -29 24q0 18 14 33h-1q-63 -57 -113 -57q-38 0 -38 33q0 29 28 61h-1q-15 -16 -19 -16q-2 0 -3 1v2l1 4q25 30 83.5 61.5t93.5 31.5t35 -26q0 -6 -2 -13h1q34 38 62 38q13 0 13 -3t-51 -64.5t-51 -81.5l2 -5q3 -1 7 -1
q21 0 69.5 41.5t52.5 42.5zM189 143q0 18 -19 18q-26 0 -86.5 -58t-60.5 -82q0 -12 13 -12q29 0 91 54t62 80z" />
    <glyph glyph-name="afii10067" unicode="&#x432;" horiz-adv-x="298" 
d="M534 542q0 -67 -309 -301q-41 -29 -101 -83q-19 -24 -58 -80l2 -3q102 97 162 97q42 0 42 -31q0 -49 -63 -99q-59 -47 -110 -47q-30 0 -30 20q0 19 52 39l70 22q35 35 35 69q0 11 -13 11q-50 0 -198 -146q-15 -14 -36 -14q-11 0 -11 7q0 23 74 115h-1q-37 -37 -45 -37
q-1 0 -2 1q1 7 31 33l38 33q19 25 57 73q92 113 180 203q144 145 202 145q32 0 32 -27zM508 539q0 19 -17 19q-41 0 -186 -168q-104 -121 -165 -206v-1q102 85 204 171q164 144 164 185zM183 65v1l-54 -20q-41 -17 -41 -28q0 -9 9 -9q41 0 86 56z" />
    <glyph glyph-name="afii10068" unicode="&#x433;" horiz-adv-x="205" 
d="M217 100q-5 -15 -48 -48q-34 -27 -60.5 -42.5t-51.5 -15.5q-30 0 -30 21q0 24 44.5 78t44.5 55q0 7 -7 7q-17 0 -63.5 -34.5t-48.5 -34.5q-1 0 -3 2q0 4 1 5q92 79 134 79q31 0 31 -22q0 -17 -39 -65t-39 -62l1 -4q4 -2 8 -2q18 0 62 34q29 25 58 49h3h3z" />
    <glyph glyph-name="afii10069" unicode="&#x434;" horiz-adv-x="285" 
d="M299 98q0 -15 -82 -71q-54 -38 -100 -65q-173 -260 -343 -347q-41 -21 -69 -21q-48 0 -48 35q0 46 87 118q63 53 176 123q71 42 143 85q24 32 63 91v1q-63 -53 -109 -53q-38 0 -38 33q0 32 28 59v1q-18 -15 -20 -15q-1 0 -2 1v2l1 4q27 31 84.5 61.5t95.5 30.5
q36 0 32 -34h1q30 34 48 34t18 -7q0 -3 -15.5 -21.5t-123.5 -164.5v-1l46 30q45 29 79 56q13 14 47 37q1 -1 1 -2zM189 143q0 18 -18 18q-26 0 -87 -57.5t-61 -82.5q0 -12 14 -12q29 0 90.5 54t61.5 80zM54 -62v1q-195 -123 -212 -135q-150 -108 -150 -172q0 -25 28 -25
q97 0 334 331z" />
    <glyph glyph-name="afii10070" unicode="&#x435;" horiz-adv-x="212" 
d="M227 98q0 -3 -9 -12q-37 -38 -82 -64q-53 -31 -98 -31q-55 0 -55 37q0 27 24 59h-1q-14 -15 -19 -15q-1 0 -2 1v2l1 4q28 31 82 61q58 31 95 31q29 0 29 -26q0 -45 -151 -93q-6 -20 -6 -27q0 -18 23 -18q31 0 73 24q29 17 63 45q29 25 30 25q3 0 3 -3zM157 149q0 9 -12 9
q-20 0 -55 -38q-27 -29 -43 -57v-1q110 35 110 87z" />
    <glyph glyph-name="afii10072" unicode="&#x436;" horiz-adv-x="452" 
d="M474 100q0 -5 -31 -30q-25 -21 -38 -29q-67 -44 -123 -44t-56 37q0 3 2 9q-94 -42 -108 -42q-9 0 -9 4q0 7 60 70q57 60 72 71q-34 -27 -73 -33q-17 -39 -68 -77.5t-90 -38.5q-44 0 -44 36q0 19 12.5 34t30.5 15q23 0 23 -18q0 -10 -12 -21t-12 -20q0 -7 12 -7
q25 0 69.5 49.5t44.5 75.5q0 15 -25 15q-24 0 -57.5 -24.5t-34.5 -24.5t-2 1v2l1 4q19 23 52.5 40t62.5 17q41 0 41 -36q0 -7 -2 -16q6 3 61 30q50 25 53 25t3 -3q-27 -30 -64 -74q-28 -32 -54 -67q22 12 66 37q19 36 72 69.5t92 33.5q44 0 44 -32q0 -14 -11 -25t-25 -11
q-15 0 -15 14q0 6 8.5 19t8.5 20l-15 4q-39 -20 -74 -53q-42 -41 -42 -74q0 -18 24 -18q44 0 106 44l62 44h1q1 -1 1 -2z" />
    <glyph glyph-name="afii10073" unicode="&#x437;" horiz-adv-x="244" 
d="M259 98q0 -12 -132 -102q1 -7 1 -16q0 -51 -61 -129q-44 -57 -101 -107q-170 -149 -257 -149q-42 0 -42 35q0 67 174 193q41 29 252 162q1 6 1 11q0 33 -28 33q-22 0 -44 -16q-18 -14 -37 -28q-6 9 -6 7q0 3 6 12q25 21 42 30q45 23 91 45q52 29 80 60q5 5 4 9l-2 2
l-46 -18q-27 -11 -48 -11q-38 0 -48 18q-64 -66 -70 -66q-1 0 -3 1v3v2q34 38 68 69v4q0 43 43 43q17 0 17 -10q-17 -12 -17 -23q0 -13 29 -13q23 0 57 10t36 10q10 0 10 -7t-8 -18q-26 -35 -78 -64l-92 -44v-1q14 4 19 4q42 0 55 -34q30 20 90 62q9 9 30 26q9 6 13 6h1z
M90 -26q-52 -33 -155 -100q-244 -156 -244 -247q0 -21 23 -21q74 0 216 148q135 139 160 220z" />
    <glyph glyph-name="afii10074" unicode="&#x438;" horiz-adv-x="320" 
d="M333 98q0 -12 -68 -64q-53 -40 -86 -40q-31 0 -31 24q0 30 55 85l-2 2q-134 -111 -178 -111q-33 0 -33 24q0 39 90 125v1q-16 -11 -48 -36q-12 -11 -36 -31q-6 -4 -10 -4l-1 2q17 27 65 59q52 35 82 35q10 0 12 -3q-1 -2 -55 -71q-45 -57 -45 -71q1 -1 3 -4t7 -3
q24 0 199 143q13 11 29 11q21 0 21 -5t-50.5 -65t-50.5 -75q0 -4 2 -6.5t6 -2.5q34 0 110 76l13 6v-1z" />
    <glyph glyph-name="afii10075" unicode="&#x439;" horiz-adv-x="320" 
d="M289 266q-2 -17 -35 -35.5t-52 -18.5q-10 0 -21.5 6.5t-11.5 15.5v25q5 11 14 11q16 0 16 -13q0 -14 -18 -24q5 -12 22 -12q19 0 51.5 23l32.5 23q1 0 2 -1zM333 99q-2 -15 -68 -65q-53 -40 -86 -40q-31 0 -31 24q0 30 55 85l-2 2q-134 -111 -178 -111q-33 0 -33 24
q0 39 90 125v1q-16 -11 -48 -36q-12 -11 -36 -31q-6 -4 -10 -4q-1 1 -1 3q0 13 59 53t87 40q11 0 13 -3q-1 -2 -55 -71q-45 -57 -45 -71q1 -1 3 -4t6 -3q25 0 200 143q13 11 29 11q21 0 21 -5q0 -6 -50.5 -65t-50.5 -75q0 -4 2 -6.5t6 -2.5q34 0 110 76z" />
    <glyph glyph-name="afii10076" unicode="&#x43a;" horiz-adv-x="312" 
d="M325 98q0 -5 -31 -33q-25 -22 -38 -32q-52 -39 -86 -39q-22 0 -30 16q-4 10 -4 35q0 37 -16 31q10 9 30 9q27 0 33.5 -33.5t18.5 -33.5q22 0 69.5 40t53.5 41v-1zM283 143q0 -30 -31 -30q-23 0 -23 10q0 2 3.5 9.5t3.5 11.5q0 14 -15 14q-37 0 -125.5 -81t-109.5 -81
q-12 0 -16 3v4q0 26 71 114v1q-37 -37 -45 -37q-2 0 -2 1q2 10 50.5 50t60.5 40q19 0 19 -12v-2q-26 -37 -80 -110l2 -1q66 59 90 77q63 47 106 47q41 0 41 -28z" />
    <glyph glyph-name="afii10077" unicode="&#x43b;" horiz-adv-x="283" 
d="M295 97q-3 -14 -65 -62q-50 -39 -84 -39q-28 0 -28 25q0 18 35 65q-50 -45 -67 -57q-45 -33 -75 -33q-29 0 -29 23q0 6 1 12h1q8 26 36 26q17 0 17 -10q0 -3 -2 -10t-2 -11q0 -1 2 -7q3 -1 6 -1q19 0 95 64q47 41 95 82q8 6 32 6q8 0 8 -4q0 -2 -51 -63t-51 -77
q3 -9 7 -9q17 0 61 38.5t58 41.5z" />
    <glyph glyph-name="afii10078" unicode="&#x43c;" horiz-adv-x="437" 
d="M451 98q0 -12 -69 -64q-53 -40 -86 -40q-31 0 -31 24q0 30 55 85l-2 2q-125 -109 -172 -109q-28 0 -28 25q0 14 13 33l22 32q-33 -28 -67 -57q-44 -33 -75 -33q-29 0 -29 23q0 6 1 12h1q8 26 36 26q17 0 17 -10q0 -3 -2 -10t-2 -11q0 -1 2 -7q2 -1 6 -1q18 0 100 69
q45 38 89 77q7 6 32 6q5 0 8 -3q-1 -6 -51 -65t-50 -76q3 -9 7 -9q20 0 104 69q102 84 107 87t17 3q21 0 21 -5q0 -3 -53 -65.5t-53 -79.5q0 -4 2 -6.5t6 -2.5q17 0 59 32q31 24 51 44l13 6z" />
    <glyph glyph-name="afii10079" unicode="&#x43d;" horiz-adv-x="315" 
d="M325 92q-20 -43 -68 -73q-40 -26 -66 -26q-34 0 -34 29q0 22 20 49q-31 -22 -66 -22q-26 0 -37 17q-14 -22 -46 -62q-18 -8 -34 -8q-22 0 -22 8q0 14 45 69q38 48 60 69v1q-66 -54 -74 -54q-2 0 -2 2q9 20 54 47.5t67 27.5q19 0 19 -5q0 -4 -47 -65q8 -5 8 -13
q0 -5 -4.5 -10.5t-4.5 -7.5q0 -9 13 -9q39 0 73 28q2 1 52 53q28 29 50 29q21 0 21 -6q0 -2 -45.5 -58.5t-45.5 -71.5q0 -7 3 -10.5t7 -3.5q18 0 98 77h3q2 0 3 -1z" />
    <glyph glyph-name="afii10080" unicode="&#x43e;" horiz-adv-x="248" 
d="M262 97q0 -12 -38 -36t-53 -24q-13 0 -18 3q-70 -49 -114 -49q-49 0 -49 37t28 69v1q-26 -26 -32 -26q-1 0 -1 1v2l1 4q31 33 84 62q57 30 98 31l6 -5q-1 -1 -11 -6q-33 -16 -79 -63q-51 -52 -51 -83q0 -14 14 -14q39 0 93 61q13 52 50 68q3 7 3 25q0 2 -1.5 5.5
t-1.5 5.5q0 4 6 4q9 0 15.5 -12.5t6.5 -22.5q0 -35 -57 -88q3 -1 6 -1q23 0 52 24q33 27 42 29q1 -1 1 -2z" />
    <glyph glyph-name="afii10081" unicode="&#x43f;" horiz-adv-x="352" 
d="M367 98q0 -4 -32 -31q-27 -24 -39 -33q-54 -40 -90 -40q-30 0 -30 20q0 26 44.5 78t44.5 57t-7 5q-30 0 -125.5 -79t-112.5 -79t-17 6q0 14 48 77.5t49 64.5q-2 6 -6 6q-17 0 -61 -39t-45 -39q-4 0 -4 4q0 11 55.5 53t79.5 42q25 0 25 -23q0 -17 -64 -100l3 -1
q147 124 195 124q31 0 31 -22q0 -18 -39 -66t-39 -61l1 -4q3 -1 7 -1q22 0 72 41.5t52 41.5l3 -1.5z" />
    <glyph glyph-name="afii10082" unicode="&#x440;" horiz-adv-x="326" 
d="M340 99q-2 -15 -69 -65q-53 -40 -90 -40q-33 0 -33 23q0 26 45.5 75t45.5 56q0 5 -8 5q-52 0 -202 -186q-60 -74 -191 -256l-38 -56q-27 -37 -41 -48.5t-24 -11.5q-23 0 -23 25t33 74q198 289 356 479h-1q-106 -99 -115 -99v0q5 12 173 164q22 20 39 20q15 0 15 -4
q0 -2 -16 -21q-55 -64 -184 -234q-118 -154 -195 -267q-64 -93 -64 -104v-3q1 -1 2 -1q11 0 111 142q126 179 200 263q123 142 189 142q31 0 31 -20t-41.5 -65.5t-41.5 -59.5q0 -9 10 -9q22 0 72 40.5t55 41.5z" />
    <glyph glyph-name="afii10083" unicode="&#x441;" horiz-adv-x="213" 
d="M221 92q0 -13 -64 -57t-118 -44q-53 0 -53 36q0 31 29 67h-1q-9 -10 -29 -21v2q0 2 1 4q23 28 82 60t92 32q35 0 35 -28q0 -15 -10.5 -29.5t-24.5 -14.5t-14 14q0 6 8 20t8 21t-10 7q-25 0 -70 -53.5t-45 -81.5q0 -19 23 -19q41 0 100.5 43l59.5 43h1v-1z" />
    <glyph glyph-name="afii10084" unicode="&#x442;" horiz-adv-x="512" 
d="M525 98q0 -12 -69 -64q-54 -40 -90 -40q-29 0 -29 23t44 75t44 57t-7 5q-30 0 -124 -79t-114 -79q-16 0 -16 6q0 20 50.5 81.5t50.5 64.5q0 6 -8 6q-27 0 -124 -79t-113 -79q-17 0 -17 6q0 14 48 77.5t49 64.5q-2 6 -6 6q-17 0 -61 -39t-45 -39q-4 0 -4 4q0 6 65 61
q40 34 70 34q25 0 25 -23q0 -17 -64 -100l3 -1q147 124 194 124q32 0 32 -23q0 -17 -27 -51q-21 -24 -42 -49l3 -1q147 124 195 124q31 0 31 -22q0 -17 -39 -65.5t-39 -61.5l1 -4q3 -1 7 -1q21 0 64 35q54 43 62 47v-1z" />
    <glyph glyph-name="afii10085" unicode="&#x443;" horiz-adv-x="313" 
d="M328 97q0 -3 -10 -12q-77 -73 -122 -126q-83 -97 -183 -241q-33 -48 -41 -58q-28 -38 -43.5 -51.5t-29.5 -13.5q-19 0 -19 22q0 37 130 216l200 276l-3 1q-146 -117 -188 -117q-26 0 -26 24q0 45 87 126v1q-16 -11 -48 -36q-12 -11 -36 -31q-6 -4 -10 -4l-1 2q0 10 75 67
q36 27 72 27q7 0 12 -3v-2q0 -1 -50 -64t-50 -77q0 -6 6 -6q21 0 101 62q51 40 101 81q14 11 29 11q20 0 20 -5l-189.5 -256.5t-189.5 -281.5q0 -1 1 -2.5t2 -1.5q8 0 25 23q84 117 169 234q101 133 195 212q8 7 11 7t3 -3z" />
    <glyph glyph-name="afii10086" unicode="&#x444;" horiz-adv-x="366" 
d="M357 128q0 -56 -70 -98q-62 -37 -122 -37q2 1 11 5q37 16 83 61q52 51 52 83q0 13 -14 13q-25 0 -59 -25q-28 -21 -46 -46q-79 -109 -243 -324q-26 -35 -83 -102q-42 -45 -84 -44h-3q125 150 200 250q45 62 135 187q-71 -45 -114 -45q-39 0 -39 33q0 51 74 98
q68 42 122 42q33 0 33 -26q0 -5 -1 -10q12 11 25.5 23.5t26.5 12.5q18 0 18 -8q0 -4 -13 -17q35 11 61 11q50 0 50 -37zM181 156q0 11 -13 11q-33 0 -97 -54t-64 -81q0 -10 13 -10q32 0 96.5 52t64.5 82z" />
    <glyph glyph-name="afii10087" unicode="&#x445;" horiz-adv-x="285" 
d="M293 92q0 -7 -28 -30q-43 -35 -58 -44q-37 -24 -68 -24q-46 0 -46 39q0 7 2 16h-1q-34 -55 -74 -55q-38 0 -38 32q0 18 11 32t28 14q21 0 21 -17q1 -1 1 -2q0 -5 -11.5 -16t-11.5 -20q0 -7 11 -7q21 0 63 54t42 77q0 16 -18 16q-25 0 -77.5 -42.5t-54.5 -42.5q-1 0 -1 1
v2l1 4q48 44 68 59q45 33 79 33q44 0 44 -38q0 -7 -2 -16h1q48 54 79 54q29 0 29 -24q0 -38 -33 -38q-16 0 -16 11q0 10 11 24q1 7 -8 7q-21 0 -62 -50.5t-41 -73.5q0 -18 21 -18q32 0 83 42t53 42q1 0 1 -1z" />
    <glyph glyph-name="afii10088" unicode="&#x446;" horiz-adv-x="303" 
d="M303 166q0 -6 -50.5 -65t-50.5 -75q0 -4 2.5 -6.5t5.5 -2.5q14 0 44.5 21.5t32.5 21.5l1 -3l-2 -5l-66 -107q-17 -28 -29 -28t-19.5 12.5t-7.5 24.5q0 27 16 26h2q11 -34 20 -34q5 0 30 39q29 45 33 49q-56 -40 -86 -40q-31 0 -31 24q0 30 55 85l-2 2
q-134 -111 -178 -111q-33 0 -33 24q0 39 90 125v1q-16 -11 -48 -36q-12 -11 -36 -31q-6 -4 -10 -4q-1 1 -1 3q0 12 59 52.5t87 40.5q11 0 13 -3q-2 -3 -56 -72q-44 -56 -44 -70q1 -1 3 -4t6 -3q27 0 200 143q13 11 29 11q21 0 21 -5z" />
    <glyph glyph-name="afii10089" unicode="&#x447;" horiz-adv-x="205" 
d="M219 98q0 -13 -69 -64q-54 -40 -89 -40q-31 0 -31 24q0 30 57 80.5t57 51.5q0 7 -26 7q-4 0 -12 -1t-12 -1q-2 0 -14 3q-6 -9 -47.5 -47t-45.5 -38q-3 0 -3 3q0 2 8 9q17 14 80 77q-7 4 -7 14q0 15 14.5 25t30.5 10q14 0 18 -10q-8 -6 -15 -12q-10 -9 -10 -16t34 -9.5
t34 -19.5q0 -9 -42 -55.5t-42 -64.5q0 -3 3 -6h5q18 -1 70 41t51 42q3 0 3 -3z" />
    <glyph glyph-name="afii10090" unicode="&#x448;" horiz-adv-x="473" 
d="M473 91q0 -7 -37.5 -42t-48.5 -41q-24 -14 -48 -14q-31 0 -31 24q0 30 55 85l-2 2q-127 -111 -182 -111q-31 0 -31 24q0 30 55 85l-2 2q-127 -111 -178 -111q-33 0 -33 25q0 38 90 124v1q-5 -3 -50 -39q-41 -32 -44 -32l-1 3q0 5 37 36q31 25 47 36q31 21 62 21
q11 0 13 -3q-2 -3 -56 -73q-44 -56 -44 -68q1 -1 3 -4.5t7 -3.5q24 0 102 64q95 78 103 83t32 5q11 0 13 -3q-2 -3 -56 -73q-44 -56 -44 -68q1 -1 3 -4.5t7 -3.5q24 0 117 77t111 77q21 0 21 -5t-50.5 -65t-50.5 -75q0 -4 2 -6.5t6 -2.5q14 0 52 34q41 38 50 42q1 -1 1 -2z
" />
    <glyph glyph-name="afii10091" unicode="&#x449;" horiz-adv-x="473" 
d="M463 166q0 -5 -50.5 -65t-50.5 -75q-1 -3 2 -8q3 -1 6 -1q14 0 44.5 21.5t32.5 21.5l1 -3l-2 -5l-66 -107q-17 -28 -29 -28t-19.5 12.5t-7.5 24.5q0 27 16 26h2q11 -34 20 -34q5 0 30 39q29 45 33 49q-56 -40 -86 -40q-31 0 -31 24q0 30 55 85l-2 2q-127 -111 -182 -111
q-31 0 -31 24q0 30 55 85l-2 2q-127 -111 -178 -111q-33 0 -33 25q0 38 90 124v1q-5 -3 -50 -39q-41 -32 -44 -32l-1 3q0 5 37 36q31 25 47 36q31 21 62 21q11 0 13 -3q-2 -3 -56 -73q-44 -56 -44 -68q1 -1 3 -4.5t7 -3.5q24 0 102 64q95 78 103 83t32 5q11 0 13 -3
q-2 -3 -56 -73q-44 -56 -44 -68q1 -1 3 -4.5t7 -3.5q24 0 117 77t111 77q21 0 21 -5z" />
    <glyph glyph-name="afii10092" unicode="&#x44a;" horiz-adv-x="233" 
d="M245 97q0 -7 -30 -35q-20 -16 -65 -40h-1q-43 -28 -76 -28t-33 24q0 23 41 74q30 38 61 66q-55 -23 -108 -23q-41 0 -41 21q0 15 14 25.5t30 10.5q2 0 2 -1q0 -2 -3.5 -7t-3.5 -8q0 -18 43 -18q18 0 54 6.5t54 6.5q11 0 13 -3q-28 -36 -57 -72q-45 -58 -45 -71
q1 -1 3.5 -4.5t7.5 -3.5q13 0 39 24q7 31 33 38v21l1 1q1 1 3 1q15 0 15 -21q0 -15 -22 -37q9 6 30 22q10 9 19 18q16 15 21 15q1 -1 1 -2z" />
    <glyph glyph-name="afii10093" unicode="&#x44b;" horiz-adv-x="320" 
d="M326 93q0 -1 -9 -12q-26 -32 -63 -58q-42 -30 -70 -30q-29 0 -29 23q0 16 12 36q-32 -29 -53 -29q-4 0 -11 2q-55 -31 -80 -31q-33 0 -33 24q0 31 57 95l-5 -1q-54 -39 -56 -39l-1 3q0 5 88 65q5 4 12 10l6 3q24 17 37 17q16 0 18 -3q-28 -36 -57 -72q-45 -57 -45 -71
q1 -1 3.5 -4.5t7.5 -3.5q13 0 39 24q7 31 33 38v21l1 1q1 1 3 1q15 0 15 -21q0 -19 -38 -51l3 -1q33 0 92.5 71t95.5 71q7 0 12 -2q-3 -5 -57 -73q-45 -57 -45 -73l2.5 -4t5.5 -4q12 0 58 40.5t48 40.5l2 -1q1 0 1 -2z" />
    <glyph glyph-name="afii10094" unicode="&#x44c;" horiz-adv-x="177" 
d="M189 98q0 -7 -30 -31q-21 -15 -66 -46l-8 -2q-46 -25 -69 -25q-34 0 -34 24q0 11 15.5 41t32.5 46q2 3 5 7q-54 -39 -56 -39l-1 3q0 5 88 65q4 4 12 10q26 20 43 20q15 0 18 -3q-29 -36 -57 -72q-45 -57 -45 -71q0 -1 3 -4.5t8 -3.5q13 0 39 24q7 31 33 38v21l1 1
q1 1 2 1q16 0 16 -21q0 -15 -22 -37q10 9 32 27q35 29 39 29q1 -1 1 -2z" />
    <glyph glyph-name="afii10095" unicode="&#x44d;" horiz-adv-x="192" 
d="M195 96q5 -3 -3 -6l-53 -34q-7 -6 -30 -26q-52 -37 -89 -37q-47 0 -47 38q0 20 13 36.5t32 16.5q24 0 24 -19q0 -9 -12 -21t-12 -21q0 -8 13 -8q32 0 86 68q-29 -9 -50 -9q-24 0 -24 14q0 20 26 20v-1q-4 -6 -4 -9q0 -10 30 -10q11 0 27 2q27 34 27 54q0 18 -24 18
t-64 -28l-40 -28q-2 0 -3 1t-1 2q0 2 2 5q16 22 57.5 42.5t69.5 20.5q42 0 42 -38q0 -31 -31 -62l19 9q5 4 19 10z" />
    <glyph glyph-name="afii10096" unicode="&#x44e;" horiz-adv-x="373" 
d="M385 94q-5 -15 -33.5 -37.5t-44.5 -22.5q-12 0 -16 3q-71 -42 -120 -42q-51 0 -51 35q0 24 18 51q-44 -21 -54 -21q-13 0 -20 6q-15 -21 -30 -41q-24 -31 -34 -31q-16 0 -16 17q0 26 55 99l-16 -12q-19 -11 -21 -6l61 41q1 2 11 13q32 34 62 34q13 0 15 -3v-2l-34 -42
q-37 -46 -40 -50q3 -7 15 -7q16 0 85.5 46.5t123.5 46.5h5h6q-3 -2 -11 -6q-31 -15 -81 -63q-55 -53 -55 -81q0 -13 15 -13q41 0 97 57q2 13 14.5 34t22.5 27q5 2 15 8q3 7 3 24q0 2 -1.5 5t-1.5 5q0 3 3 3q11 0 19 -11t8 -23q0 -39 -60 -91q4 -1 8 -1q20 0 46.5 26.5
t29.5 26.5z" />
    <glyph glyph-name="afii10097" unicode="&#x44f;" horiz-adv-x="306" 
d="M324 99q0 -6 -68 -59q-60 -47 -100 -47q-33 0 -33 26q0 21 16 46q-30 -23 -61 -45q-39 -26 -69 -26q-35 0 -35 30q0 43 45 43q21 0 21 -12q0 -4 -3 -12.5t-3 -12.5q0 -10 9 -10q27 0 89 54q-8 -2 -14 -2q-18 0 -30.5 15.5t-12.5 33.5q0 28 34 49q30 19 59 19q48 0 57 -28
q18 14 49 14q6 0 9 -2l1 -1q0 -5 -50.5 -66t-50.5 -79q0 -9 9 -9q24 0 67 37q48 41 64 46q1 -1 1 -2zM194 161q0 14 -15 14q-23 0 -51 -25t-28 -49q0 -20 15 -20q21 0 50 30t29 50z" />
    <glyph glyph-name="A.swash1" unicode="A" horiz-adv-x="1350" 
d="M1009 230q38 32 72 63.5t65 60.5q33 32 63 60.5t59 54.5q-34 28 -79 43.5t-95 15.5q-80 0 -127.5 -39.5t-53.5 -106.5q-5 -51 22 -90t74 -62zM1175 5q12 -2 27 4t30.5 17.5t30.5 26.5t28 33q26 34 40.5 69.5t20.5 71.5q-12 -5 -24.5 -9t-26.5 -8q-34 -10 -68 -14
q-17 -25 -31.5 -47t-19.5 -33q-11 -20 -19.5 -41t-10.5 -38q-2 -11 3 -20.5t20 -11.5zM1333 400q32 35 65.5 69.5t74.5 78.5q21 23 41 46t37 43q28 34 29 51q0 10 -7 11q-12 3 -38 -13q-14 -9 -30 -21t-32 -26t-32 -28.5t-30 -27.5q-29 -26 -61 -55t-65 -61q14 -14 27 -32
q5 -8 10.5 -16.5t10.5 -18.5zM1239 205q33 5 59 12q14 5 28 9.5t27 10.5q4 28 3 57q-2 26 -10 51q-14 -16 -27.5 -33t-28.5 -36q-11 -14 -24 -32.5t-27 -38.5zM1173 201q15 23 32 46.5t36 46.5q23 29 44 52.5t41 46.5q-11 19 -21 36q-11 17 -27 31q-32 -29 -63 -57.5
t-60 -56.5q-29 -27 -63 -58t-72 -63q17 -7 35 -12.5t38 -7.5q17 -2 37 -3.5t43 -0.5zM355 -77q-76 0 -148 15.5t-127.5 50t-89 89.5t-33.5 134q0 76 38 135.5t98.5 100.5t136 62.5t150.5 21.5q50 0 101 -12t91.5 -36t66 -60.5t25.5 -86.5q0 -47 -23.5 -86t-61.5 -66.5
t-86 -43t-96 -15.5q-34 0 -67.5 7t-60 22t-43 38t-16.5 55q0 21 9.5 39t24 32t33 24t36.5 14q17 3 17 -1q0 -1 -4 -1t-13 -3q-32 -10 -56 -38t-24 -66q0 -29 13.5 -50t36 -35t52 -21t61.5 -7q47 0 91.5 14.5t78.5 41.5t54.5 64.5t20.5 83.5q0 47 -23 81.5t-59.5 57.5t-83 34
t-94.5 11q-74 0 -144 -21.5t-124 -61t-87 -96.5t-33 -129q0 -78 28.5 -131.5t78 -87.5t115.5 -49t141 -15q57 0 113 10t108.5 27t100.5 39.5t91 47.5q59 34 117.5 77t113.5 90q-26 12 -49 28.5t-39 36.5t-24.5 44t-5.5 51q3 34 21.5 62.5t47 48.5t65.5 31.5t79 11.5
q53 0 99 -16t81 -46q32 30 63 58.5t63 57.5q15 13 31.5 28t33.5 28.5t33.5 25.5t31.5 21q25 16 46 14q13 -1 21.5 -8t9.5 -17q1 -12 -3.5 -26t-18.5 -33q-16 -23 -36 -46.5t-42 -47.5q-47 -52 -83 -92.5t-72 -83.5q5 -15 8.5 -30.5t4.5 -30.5q1 -12 0.5 -24.5t-2.5 -26.5
q51 24 93 56t76 67q74 79 86 155q2 13 0.5 16.5t0.5 4.5q8 2 5 -23q-5 -40 -27 -80.5t-58 -79.5q-37 -39 -80.5 -71.5t-97.5 -55.5q-6 -37 -21.5 -75t-42.5 -74q-29 -38 -64.5 -63.5t-68.5 -25.5q-27 0 -44.5 15.5t-13.5 47.5q2 20 9.5 41t18.5 41q7 13 15 26.5t17 27.5
q-20 0 -39 1t-36 3q-20 2 -40.5 8t-40.5 14q-56 -47 -116 -91t-120 -79q-41 -24 -88.5 -46.5t-101 -40t-111.5 -28t-118 -10.5h-1z" />
    <glyph glyph-name="B.swash1" unicode="B" horiz-adv-x="1194" 
d="M929 5q30 0 62 17t61.5 44t53.5 61t38 68q-30 -6 -59.5 -14.5t-52.5 -17.5q-66 -25 -105 -58.5t-39 -63.5q0 -36 40 -36h1zM671 -243q-48 0 -90.5 14.5t-76.5 41.5t-58 65.5t-34 86.5q-23 -4 -46.5 -5.5t-48.5 -1.5q-55 0 -108 14.5t-94.5 43.5t-67 73t-25.5 104
q0 69 31 128t84.5 102.5t125.5 68t154 24.5q45 0 96 -12.5t94 -38.5q48 48 107.5 91t126.5 75t140 50t148 16q38 -1 72.5 -9t62.5 -24q14 8 33.5 15.5t37.5 12.5q14 3 14 0q0 -1 -4.5 -1.5t-9.5 -2.5q-16 -5 -32 -13t-30 -17q25 -17 40 -41t17 -56q1 -26 -8.5 -49.5t-26 -44
t-38 -37.5t-44.5 -31q-31 -18 -64.5 -29.5t-56.5 -16.5q55 -5 87.5 -35.5t32.5 -71.5q0 -16 -5 -36q29 3 52 0q11 -2 13.5 -3.5t1.5 -3.5t-4 -1t-14 2q-23 2 -51 0q-13 -39 -45.5 -76.5t-74 -67t-87.5 -48t-86 -18.5q-24 0 -44 9t-20 34q0 19 15 37.5t40 35.5t58 32.5
t68 28.5q27 10 57 18t61 13q11 31 11 57q0 37 -19.5 62t-61.5 24q-16 0 -29.5 -5.5t-29.5 -8.5q-8 -2 -14 0t-6 9q0 8 6.5 10.5t20.5 4.5l66 8t69 23q54 28 89 73.5t35 108.5q0 46 -33 76q-72 -51 -139 -125.5t-143 -170.5q-54 -68 -113 -129.5t-124 -111t-136.5 -85
t-151.5 -51.5q9 -47 29 -85t50 -64t68 -40t82 -14q38 0 66 5.5t59 22.5q9 5 12 8t4 1t-1.5 -5t-10.5 -9q-26 -18 -59 -26t-71 -8h-1zM442 -19q73 17 134.5 53.5t118 86.5t111.5 111t114 128q82 93 160 169t162 123q-44 34 -112 36q-74 2 -145.5 -16t-137 -49.5t-124 -74.5
t-104.5 -91q38 -25 61.5 -61.5t23.5 -86.5q0 -38 -10.5 -67.5t-28.5 -49.5q-3 -4 -6.5 -6.5t-5.5 -0.5q-1 1 2 4.5t5 5.5q18 25 25.5 51t7.5 61q0 48 -24 81.5t-62 56.5q-79 -86 -124 -185t-45 -222q0 -15 1 -29t3 -28zM317 -33q24 0 47 2t46 6q-2 12 -3.5 27.5t-1.5 31.5
q0 64 14.5 122t40 110t60 98.5t74.5 87.5q-39 20 -85.5 29.5t-92.5 9.5q-77 0 -146 -22t-121 -61.5t-82.5 -94t-30.5 -118.5q0 -57 23.5 -100t62.5 -71.5t89.5 -42.5t104.5 -14h1z" />
    <glyph glyph-name="C.swash1" unicode="C" horiz-adv-x="558" 
d="M228 -30q23 0 50.5 6.5t55 18t54.5 27.5t49 36q25 22 46 46t36 47t23.5 44.5t8.5 38.5q0 21 -13 31.5t-35 10.5q-20 0 -44 -9t-49 -26t-50.5 -40.5t-47.5 -52.5q-14 -18 -27.5 -41t-25 -47t-19.5 -47.5t-12 -42.5zM307 396q78 8 157.5 25t146.5 47q87 38 132 83.5
t45 90.5q0 17 -10.5 27.5t-31.5 10.5q-33 0 -72.5 -15t-81.5 -39t-84 -54.5t-80 -62t-69.5 -61.5t-51.5 -52zM222 -135q-3 -3 -6 12q-4 20 -3 41t4 43q-21 0 -43.5 6.5t-42 20.5t-32 36t-12.5 55q0 40 11.5 80.5t30.5 79t44.5 75t54.5 69.5h-27q-64 0 -131.5 9.5
t-130.5 29.5t-118.5 50.5t-97.5 72t-66 95t-24 118.5q0 89 44 155.5t113.5 111t155 66.5t167.5 22q61 0 122.5 -13t111 -40.5t80 -69t30.5 -98.5t-28 -101t-71.5 -73.5t-96 -44.5t-102.5 -15q-24 0 -45.5 4.5t-37.5 15.5q33 -11 82 -11t100 15t92.5 43.5t67.5 71t26 97.5
q0 54 -30.5 93.5t-78 65.5t-106.5 38.5t-116 12.5q-53 0 -106.5 -10t-102.5 -30t-91.5 -49.5t-74 -68.5t-49.5 -87t-18 -105q0 -99 47 -168t123 -112t171.5 -62.5t193.5 -19.5h30q23 25 58.5 57t79 65t92.5 64.5t99 56t98 39.5t90 15q31 0 48 -16t17 -39t-17 -47
t-44.5 -46.5t-61.5 -42.5t-68 -35q-72 -32 -158.5 -50.5t-170.5 -25.5q-30 -34 -59 -71t-52 -77.5t-37.5 -84t-14.5 -89.5q0 -48 24.5 -70.5t59.5 -24.5q4 21 12 45t19.5 48t25 47.5t29.5 43.5q22 28 48 52t52 41t51.5 26.5t48.5 9.5t43.5 -11.5t20.5 -43.5q0 -24 -10 -47.5
t-26.5 -46t-39 -44t-47.5 -42.5q-48 -39 -107 -63t-113 -24q-5 -22 -6 -42t1 -40q1 -9 2 -11t-1 -3z" />
    <glyph glyph-name="D.swash1" unicode="D" horiz-adv-x="1503" 
d="M710 -18q101 0 186 32q-38 10 -77.5 17.5t-84.5 7.5q-52 0 -81 -9t-29 -23t23 -19.5t62 -5.5h1zM1061 1q65 0 114.5 6.5t90.5 22t77 42t74 67.5q23 24 48 60t46 80t35 94.5t14 103.5q0 64 -27 120q-32 -28 -60 -63t-57.5 -76t-62 -87t-72.5 -97q-71 -88 -154.5 -154.5
t-184.5 -104.5q29 -6 57.5 -10t60.5 -4h1zM754 -380q-114 0 -217 31.5t-180.5 95.5t-123.5 162t-46 232q0 62 14.5 124t40 120.5t61.5 112.5t79 101q58 63 130 113.5t152 86t165.5 54.5t169.5 19q87 0 167.5 -17t150.5 -50t126 -81t92 -109q23 18 49 35t54.5 30.5t59 22
t62.5 8.5q48 0 71 -21q2 -2 4 -4.5t1 -3.5l-9 5q-11 7 -26.5 11t-40.5 4q-60 0 -114.5 -28.5t-103.5 -69.5q25 -45 38 -95.5t13 -107.5q0 -45 -11.5 -85t-31 -76t-45.5 -67.5t-56 -58.5q-29 -26 -70 -49t-91.5 -40t-109 -27.5t-120.5 -10.5q-36 0 -69.5 6.5t-66.5 14.5
q-51 -17 -106.5 -26.5t-115.5 -9.5q-26 0 -49.5 1.5t-40.5 6t-27 11.5t-10 18t13 18.5t35 12t51 6.5t61 2q53 0 96 -8.5t85 -18.5q45 19 85.5 47t79.5 62.5t77 76t77 89.5q71 86 145 169t149 144q-27 51 -74.5 94t-115 75t-153.5 50t-189 18q-84 0 -168 -17t-163 -49
t-149 -79t-127 -108q-41 -44 -74 -98t-56 -112.5t-35 -119.5t-12 -121q1 -125 44.5 -220t117.5 -159t173 -96.5t211 -32.5q116 0 212.5 27t170.5 76q46 30 79.5 66.5t48.5 68.5q3 6 3.5 9t2.5 3q6 0 -1 -16q-6 -14 -18 -31.5t-28.5 -36t-37.5 -37t-45 -34.5
q-77 -51 -175 -80t-214 -29h-1z" />
    <glyph glyph-name="E.swash1" unicode="E" horiz-adv-x="622" 
d="M669 421q31 0 58 10t47.5 28t32 42.5t11.5 53.5q0 32 -11 56.5t-30 41t-45 26.5t-56 13q-52 -23 -87 -66t-35 -103q0 -48 31.5 -75t82.5 -27h1zM465 380q14 0 26.5 5.5t14.5 19.5q2 11 -6.5 18t-21.5 11.5t-27.5 6t-24.5 1.5q-9 0 -18 -0.5t-18 -1.5q5 -26 22.5 -43
t51.5 -17h1zM272 -52q53 0 106 17.5t88 40.5q51 34 79 75.5t30 93.5q1 53 -33.5 80.5t-87.5 27.5q-28 0 -54 -7.5t-49 -20t-43.5 -28t-36.5 -31.5q-38 -37 -63.5 -85t-27.5 -104q-1 -11 0 -21t3 -20q17 -8 39.5 -13t48.5 -5h1zM386 -207q-94 0 -155 61q-19 19 -33 43.5
t-22 55.5q-55 20 -91.5 62.5t-36.5 108.5q0 69 29 127.5t93 109.5q15 12 35.5 24t45 23t52 20t56.5 15q-8 22 -8 44q0 47 21 85.5t59 68.5q18 14 41.5 25.5t51.5 20t58 13t61 4.5q9 0 18 -0.5t18 -1.5q58 24 122 24q32 0 63 -10t55.5 -28t39.5 -44t15 -59q0 -26 -13 -48.5
t-29 -36.5q-3 -2 -6.5 -5t-5.5 -1q-1 1 2 3t6 7q11 16 18.5 36.5t7.5 44.5q0 31 -12.5 56t-33.5 42t-49 26t-59 9q-56 0 -106 -19q29 -6 55 -18t45.5 -30t30.5 -42.5t11 -55.5q0 -30 -14.5 -56t-38.5 -45t-54.5 -29.5t-61.5 -10.5q-54 0 -88 28.5t-34 82.5q0 59 33 102
t83 68q-5 1 -9.5 1h-9.5q-32 0 -58.5 -7t-49 -19t-42 -27t-35.5 -31q-31 -30 -50 -67.5t-19 -79.5v-7t1 -8q9 1 18.5 1.5t18.5 0.5q14 0 30.5 -2.5t30.5 -8t22.5 -14.5t6.5 -22q-2 -16 -18.5 -23.5t-32.5 -7.5q-32 0 -60 17t-43 46q-47 -12 -86 -38.5t-75 -63.5
q-46 -48 -70.5 -99.5t-24.5 -120.5q0 -47 16 -83.5t51 -58.5q-1 9 -1.5 18t-0.5 19q1 60 23 110t64 91q35 35 85.5 59t110.5 24q28 0 53.5 -7.5t45 -22.5t31 -37t10.5 -50q-2 -57 -36 -99.5t-88 -77.5q-38 -25 -91 -42.5t-109 -17.5q-44 0 -84 12q8 -28 21 -50.5t30 -39.5
q28 -29 66.5 -42t85.5 -13q26 0 46 4t42 15q5 2 8 5t4 1q1 -3 -9 -10q-17 -11 -41 -19t-52 -8h-1z" />
    <glyph glyph-name="F.swash1" unicode="F" horiz-adv-x="1300" 
d="M671 -81q70 0 141 19t146 67q65 42 112 89.5t91 102.5q-81 -2 -160.5 -11t-166.5 -33q-43 -12 -87 -30t-79.5 -41t-57 -51t-19.5 -60q2 -26 24.5 -39t54.5 -13h1zM1591 540q25 0 54.5 4t54 11.5t41 19.5t16.5 27q0 14 -14.5 19t-28.5 5q-56 0 -106 -22t-101 -58
q39 -6 83 -6h1zM668 -90q-21 0 -41.5 3t-37 10t-27 18.5t-11.5 29.5q-2 33 26.5 63t72.5 55t96.5 44.5t97.5 31.5q82 22 159.5 31t165.5 11q23 30 47 61.5t50 65.5q52 67 105.5 119t100.5 87q-80 12 -152 44t-153 86q-76 50 -144.5 91t-139 70.5t-147 45.5t-169.5 16
q-89 0 -179 -19.5t-163 -60.5t-118.5 -105t-45.5 -153q0 -74 33.5 -131.5t89.5 -96.5t129 -59t152 -21q66 -1 134 12t123.5 41.5t91 73.5t35.5 107q0 40 -21 69.5t-54 49t-74 28.5t-81 9q-66 0 -123.5 -18t-90.5 -60q-5 -7 -6.5 -10.5t-3.5 -2.5t0 6t5 10q11 18 31.5 34
t49 28.5t64 19.5t76.5 7q47 0 95 -10.5t86.5 -32t63 -55.5t24.5 -80q0 -63 -40 -107.5t-102.5 -73t-137.5 -41.5t-145 -13q-77 0 -153.5 19t-138 58t-99.5 99t-38 142q0 92 48.5 157.5t125.5 107.5t171.5 61.5t186.5 19.5q93 0 173 -12.5t154 -38t145.5 -63.5t147.5 -89
q41 -28 78 -51.5t73 -42.5t72 -33t75 -22q61 42 116.5 63.5t113.5 21.5q11 0 23.5 -1.5t23 -5.5t17.5 -11t7 -18q0 -15 -19.5 -27.5t-48.5 -21.5t-64 -14t-66 -5q-49 0 -94 6q-18 -15 -38.5 -37t-41.5 -48t-42.5 -54t-40.5 -55q-28 -38 -54 -71.5t-52 -62.5h78
q12 0 19.5 0.5t13 2.5t10 6t9.5 11q12 17 24 27.5t23 10.5q5 0 8 -3.5t2 -8.5q-3 -15 -24 -32q-10 -8 -17 -12.5t-16 -12.5q-10 -9 -16.5 -17t-12.5 -17q-4 -5 -7 -10.5t-6 -5.5t-1 6.5t4 11.5q6 13 10 20.5t9 15.5q-6 -2 -21 -3t-30 -1q-20 0 -35.5 0.5t-32.5 -0.5
q-56 -63 -112 -110.5t-122 -87.5q-83 -50 -163.5 -70t-150.5 -20h-1z" />
    <glyph glyph-name="G.swash1" unicode="G" horiz-adv-x="1550" 
d="M1273 361q97 2 184 22.5t175 59.5q40 18 79.5 41.5t71 50.5t51.5 56t20 58q0 25 -13.5 40.5t-43.5 15.5q-46 0 -91 -13.5t-87 -35t-80 -48t-70 -51.5q-66 -51 -112 -98t-84 -98zM567 -452q-68 0 -134.5 9.5t-127 29.5t-112 52t-89 77t-57.5 104t-17 134q3 89 43 160.5
t104.5 121.5t148 77t172.5 27q63 0 125 -15.5t111.5 -46t80.5 -77t31 -109.5q0 -53 -25 -96.5t-65 -74.5t-90 -47.5t-100 -16.5q-20 0 -38.5 3t-32.5 10q-4 2 -8.5 5t-3.5 5t4 -0.5t11 -4.5q28 -9 66 -9q46 0 88 18.5t74.5 49.5t52 72t19.5 87q0 55 -26.5 97t-69.5 71
t-97 44t-109 15q-83 0 -162.5 -25.5t-142.5 -73t-103 -114.5t-43 -151q-4 -108 39.5 -184t118 -124t170.5 -69.5t197 -21.5q91 0 175 19t159 51.5t139 75t117 89.5q44 39 84 81.5t74.5 83t61.5 75.5t44 59q-22 -19 -47.5 -38t-53 -34t-56.5 -24t-57 -9q-25 0 -47 6.5t-38 21
t-25 36.5t-7 52q2 36 12.5 70.5t25.5 66.5t34 61t37 54q-38 4 -79.5 15.5t-77 34.5t-58.5 59t-23 90q0 42 19.5 75t51 56t69.5 35t76 12q29 0 55.5 -7.5t47 -22t32.5 -35t12 -46.5q0 -9 -2 -9l-2 9q-9 46 -48.5 71.5t-93.5 25.5q-36 0 -69 -11.5t-58 -33t-39.5 -51.5
t-14.5 -67q0 -48 18.5 -82t48.5 -56.5t67.5 -35t75.5 -16.5q50 66 109 117.5t128 97.5q36 24 78 48t87.5 43.5t93 31.5t94.5 12q16 0 32.5 -4t30 -12t21.5 -20t8 -29q0 -26 -23 -55.5t-59.5 -58t-82 -54.5t-90.5 -46t-88.5 -34.5t-88 -25t-92.5 -16.5t-102 -7
q-22 -29 -43 -59t-38.5 -62.5t-29 -66.5t-14.5 -71q-3 -42 11.5 -69.5t61.5 -27.5q26 0 55.5 10t59 27t57.5 38.5t50 44.5q17 18 32.5 33.5t30 32.5t29.5 35.5t32 42.5q11 16 25 27.5t28 10.5q20 -2 8 -28q-7 -16 -20 -30t-32 -34q-36 -47 -81 -106.5t-95 -120.5
t-103.5 -117t-106.5 -96q-64 -48 -131 -88.5t-141.5 -69t-159 -44.5t-183.5 -16h-1z" />
    <glyph glyph-name="H.swash1" unicode="H" horiz-adv-x="1443" 
d="M1431 388q117 35 205 79q36 18 71.5 39.5t64 46t46.5 50t18 51.5q0 14 -9.5 24t-27.5 10q-28 0 -55 -10t-53 -27.5t-52.5 -41.5t-54.5 -52q-48 -48 -84.5 -87.5t-68.5 -81.5zM601 -66q42 0 80 14t71 36.5t61.5 50t52.5 55.5q25 29 62 80t80 109q-77 -19 -148 -42
t-149 -56q-90 -38 -140.5 -85t-48.5 -104q3 -58 78 -58h1zM587 -76q-17 0 -34.5 3t-32 11t-24.5 21t-11 33q-2 29 15.5 56.5t48.5 52.5t72 47t85 41q81 35 156.5 58.5t153.5 42.5l58 76t57 72q44 53 90 96t87 73q-45 -17 -91.5 -25t-106.5 -10q-47 -1 -88 2.5t-79.5 11.5
t-76 20t-77.5 27q-51 19 -93 35t-83 27t-84.5 17.5t-97.5 6.5q-40 0 -85.5 -6t-90 -19t-85.5 -33.5t-72.5 -49t-50 -66t-18.5 -84.5q0 -63 32 -106.5t83 -70.5t113.5 -38.5t124.5 -11.5q60 0 120.5 12t109 35t79 56.5t30.5 75.5q0 39 -20 65t-51.5 42t-71 22.5t-79.5 6.5
q-47 0 -89.5 -10t-74.5 -28q-8 -4 -11.5 -7.5t-4.5 -1.5t3.5 6t8.5 7q29 23 73.5 38t95.5 15q42 0 83 -8.5t74 -27t53 -48t20 -71.5q0 -45 -30.5 -81.5t-79.5 -62.5t-111.5 -40t-126.5 -14q-63 0 -127.5 14t-116.5 43.5t-85 76t-33 112.5q0 72 41 124t103 85.5t134.5 49.5
t135.5 16q60 0 108 -5t91 -15t85.5 -23.5t91.5 -29.5q39 -13 74 -27t70 -25.5t72.5 -19t81.5 -8.5q50 -1 97.5 5.5t99.5 27.5q30 12 50 24t46 30q10 7 16.5 9.5t13.5 2.5q4 0 7.5 -3.5t1.5 -8.5q-2 -8 -12.5 -14t-28.5 -14q-17 -8 -32 -15t-31 -16q-29 -23 -55 -52.5
t-59 -73.5q-36 -48 -67 -91.5t-60 -85.5q29 6 59 12t62 13l72 16t71 18q42 52 83 95t74 74q34 32 74 62t80 53.5t78 37t68 13.5q22 0 38 -12t15 -38q-1 -24 -22.5 -50t-54.5 -51.5t-73.5 -49.5t-79.5 -43q-96 -47 -218 -83q-26 -34 -50.5 -71t-52.5 -82q-39 -64 -64.5 -112
t-27.5 -80q-1 -23 10 -33t28 -12q18 -2 44 8.5t64 39.5q9 6 19 14.5t19.5 16.5t18 15.5t13.5 12.5q4 4 9.5 8t7.5 2q2 -3 -8 -13q-4 -4 -13 -12.5t-20 -18.5t-22 -19t-18 -15q-76 -58 -126 -58q-38 0 -59.5 16.5t-19.5 52.5q1 18 5.5 35.5t14 38.5t23.5 46t33 57
q23 38 48.5 74t51.5 69q-32 -8 -66 -15.5t-66 -14.5q-35 -8 -67 -14t-62 -13q-35 -48 -69 -92.5t-74 -86.5q-38 -40 -80 -75.5t-87 -62t-92.5 -42t-97.5 -15.5h-1z" />
    <glyph glyph-name="K.swash1" unicode="K" horiz-adv-x="1459" 
d="M333 -93q-75 -1 -141.5 17t-114 54.5t-71 91.5t-12.5 128q10 72 51.5 131t101.5 101t132 65t144 23q46 0 88 -11t72.5 -33t46.5 -54.5t11 -75.5q-5 -42 -33 -77t-68 -60.5t-85.5 -39.5t-85.5 -15q-45 -1 -80 9.5t-53 33.5q-8 10 -10 18.5t1 10.5q2 1 3.5 -6.5t10.5 -16.5
q26 -26 58.5 -32.5t73.5 -5.5q37 0 75.5 14.5t70.5 39.5t54 57.5t27 70.5q5 40 -5 71t-33.5 52t-58.5 31.5t-80 10.5q-71 0 -138.5 -23t-122.5 -64.5t-91.5 -98.5t-45.5 -125q-9 -73 11 -126.5t62.5 -89t103.5 -52t133 -15.5q98 1 180.5 28.5t156.5 76.5t142.5 116.5
t138.5 149.5q27 32 54.5 64.5t53 63t48.5 57t41 46.5q-30 -18 -59.5 -24.5t-58.5 -6.5q-34 0 -62.5 11t-47.5 31t-27 47.5t-2 60.5q7 37 30.5 73t55.5 64.5t68.5 46t69.5 17.5q35 0 56 -19t16 -54q-4 -31 -20.5 -59.5t-39.5 -54t-49.5 -47t-50.5 -37.5q-5 -3 -12 -7t-8 -2
t2.5 4.5t13.5 9.5q23 16 46 37t42.5 46t33.5 53t19 59q5 28 -10 45.5t-41 17.5q-32 0 -62.5 -17t-56 -45t-43.5 -62.5t-24 -69.5q-12 -64 15 -102.5t91 -38.5q39 0 70 10.5t64 36.5q23 17 49 44.5t50 50.5q16 15 30 25t29 10q13 0 13 -12q0 -8 -7 -15t-18 -16
q-17 -13 -39 -30t-43 -36q-23 -21 -48.5 -52t-51.5 -67t-52.5 -74t-52.5 -72q-75 -98 -153.5 -171t-164 -121.5t-179 -73t-198.5 -25.5zM1108 309q15 0 33 5q-14 9 -32 9q-5 0 -12.5 -1t-7.5 -6q0 -4 5.5 -5.5t12.5 -1.5h1zM1130 -36q-22 0 -40.5 6.5t-31.5 19t-19 31.5
t-1 45q5 29 21 54.5t36 51.5q19 24 38.5 47.5t24.5 49.5q4 22 -9 37q-26 -6 -53 -6q-31 0 -29 16q1 8 12.5 12t31.5 3q25 -2 43 -13q28 10 54 31.5t50.5 48t48.5 55.5t49 54q44 45 90 85.5t94 70.5t99 48t105 18q27 0 51 -7t40.5 -20.5t24.5 -33.5t3 -46q-6 -35 -34.5 -63.5
t-66.5 -48.5t-80 -31t-75 -11q-20 0 -38 2t-32 7q-5 2 -8.5 4t-2.5 4t4.5 0t8.5 -3q17 -4 34 -5t35 -1q32 0 71 10.5t74 30t60.5 47.5t31.5 62q8 48 -20 71t-82 23t-100 -19.5t-85 -49t-71.5 -63.5t-60.5 -63q-33 -34 -64.5 -67.5t-63 -62t-64.5 -51t-69 -34.5
q14 -11 21 -28.5t3 -38.5q-5 -26 -18.5 -50.5t-32.5 -53.5q-18 -28 -29.5 -48t-16.5 -49t8 -47.5t45 -18.5q19 0 43.5 7t51.5 20.5t55 32t55 41.5q44 38 72.5 79.5t35.5 73.5q6 29 -7 43t-39 14q-29 0 -59.5 -14.5t-58.5 -37.5q-21 -17 -42.5 -42.5t-32.5 -43.5
q-7 -13 -9 -12q-3 2 4 15q9 17 29.5 42t44.5 47q26 24 60 41.5t67 17.5t52 -17t11 -54q-8 -35 -42.5 -77t-77.5 -80q-26 -23 -55 -43t-58.5 -34.5t-58.5 -22.5t-55 -8h-1z" />
    <glyph glyph-name="L.swash1" unicode="L" horiz-adv-x="1510" 
d="M488 -16q44 0 90.5 1.5t91.5 4.5t87 7t77 9q-73 10 -148 22t-150 21.5t-149 16t-144 6.5q-94 0 -138 -10t-44 -30q0 -17 40.5 -27t103.5 -14.5t138 -5.5t144 -1h1zM1368 324q73 26 142.5 64.5t141.5 88.5q37 25 75 54.5t69 59t51.5 57.5t22.5 51q2 20 -11.5 29t-28.5 9
q-36 0 -72 -15.5t-71 -42.5t-70.5 -62.5t-71.5 -74.5q-48 -51 -90 -107t-87 -111zM485 -25q-47 0 -98 0.5t-100.5 2t-94.5 5t-79 10t-54 16t-20 23.5q0 12 13.5 21.5t38.5 15.5t59 9t76 3q72 0 154 -6.5t172 -15.5t186.5 -18.5t197.5 -15.5q58 15 102.5 38t94.5 61
q37 28 72.5 69.5t72.5 90.5q-76 -20 -159 -30t-173 -10q-74 0 -151 15.5t-139 49t-101.5 87t-39.5 129.5q0 48 17.5 88t46.5 72.5t68 57t82 41t88 25t86 8.5q53 0 102 -12t86.5 -34.5t60.5 -55.5t24 -75q1 -44 -19.5 -80.5t-54 -62.5t-76.5 -41t-87 -15q-31 0 -61.5 6.5
t-55 20t-39.5 35.5t-15 54q0 19 8 35t17 24q9 7 11 5l-8 -9q-19 -22 -19 -53q0 -28 15 -46.5t38.5 -29.5t52 -15.5t56.5 -4.5q42 0 83 12t73.5 34.5t52.5 55.5t19 75q-1 39 -23.5 68.5t-59.5 49t-84 29.5t-97 10q-60 0 -127 -16.5t-123 -50.5t-92.5 -85t-36.5 -120
q0 -74 39 -125.5t100 -84t135.5 -47.5t146.5 -15q94 0 179.5 11.5t163.5 33.5q33 44 68 89.5t75 90.5q50 57 105 106t108 85t101.5 56.5t86.5 20.5q20 0 36 -11t14 -37q-2 -24 -21.5 -54t-50.5 -61.5t-69.5 -62.5t-78.5 -57q-77 -51 -152 -89t-154 -65q-35 -45 -74 -86.5
t-84 -78.5q-62 -50 -117 -77.5t-116 -43.5q42 -2 84.5 -3t85.5 -1q70 0 133.5 6.5t113.5 31.5q35 18 62 46t41 72q5 16 4 23.5t2 7.5t4 -10t-1 -21q-9 -46 -37 -79.5t-65 -56.5q-52 -32 -120 -45.5t-137 -13.5q-64 0 -133 6.5t-142 16.5q-44 -6 -95.5 -11.5t-102 -9
t-96.5 -5.5t-80 -2h-1z" />
    <glyph glyph-name="N.swash1" unicode="N" horiz-adv-x="1620" 
d="M485 -165q-92 0 -173.5 19.5t-142.5 59t-96.5 101t-35.5 145.5q0 94 42.5 169t112 128t158.5 81.5t182 28.5q61 0 118.5 -14t102.5 -43t72 -73.5t27 -105.5q0 -47 -23.5 -87t-60.5 -69.5t-82 -45.5t-88 -16q-13 0 -26 3t-10 8q1 2 9 -0.5t27 -2.5q43 0 84 16t73 44
t51.5 66.5t19.5 83.5q0 61 -24 104t-64.5 70.5t-94 40t-112.5 12.5q-91 0 -171.5 -28t-141 -78.5t-95.5 -121.5t-35 -157q0 -83 28.5 -145t81 -103t126 -61t163.5 -20q99 0 190 19.5t174.5 54.5t159.5 82.5t144 103.5q62 51 120 112.5t108.5 125.5t92 126.5t70.5 115.5
q14 26 22.5 43t25.5 37q6 7 12.5 14t18.5 7q10 0 13 -8t-2 -13q-17 -14 -26 -23.5t-14 -20.5q-6 -15 -9.5 -39t-6 -56.5t-5.5 -73t-8 -88.5q-4 -38 -10 -78t-13.5 -78t-15.5 -73t-15 -63q19 32 56.5 87t85 117.5t100.5 125t103 109.5q53 50 110.5 94t118 76.5t123.5 51.5
t128 19q36 0 75.5 -7.5t72.5 -23t54.5 -40.5t21.5 -60t-25.5 -58.5t-57.5 -28.5q-5 -1 -12 -0.5t-7 2.5t3.5 2t13.5 6q21 14 28.5 33t7.5 44q0 30 -16 52.5t-41.5 37.5t-56.5 22.5t-61 7.5q-65 0 -128 -18.5t-122.5 -51t-116 -76.5t-108.5 -94q-49 -47 -103.5 -110.5
t-106.5 -133t-98 -139.5t-78 -129q-4 -8 -7 -15.5t-12 -7.5q-10 0 -8.5 12.5t4.5 21.5q17 49 27 128.5t22 179.5q4 33 9 72t11 75t11.5 65.5t11.5 43.5q-29 -51 -68.5 -111.5t-88 -122.5t-105.5 -123t-121 -113q-69 -57 -146 -104.5t-161.5 -81.5t-177 -53t-192.5 -19h-1z
" />
    <glyph glyph-name="O.swash1" unicode="O" horiz-adv-x="946" 
d="M440 305q73 15 163 38t185 59q37 14 72 33.5t63 42.5t45 48.5t18 51.5q2 41 -24 66.5t-71 25.5q-48 0 -96.5 -20t-96 -53.5t-92 -77.5t-83.5 -93q-25 -31 -45.5 -61t-37.5 -60zM510 -34q63 0 123 24.5t116 63.5q-33 41 -86 63t-115 22q-40 0 -84 -12t-82 -34
q2 -60 33 -93.5t94 -33.5h1zM395 -368q74 0 145.5 20t127.5 58.5t90 94t34 126.5q0 59 -29 103q-60 -35 -124.5 -56t-130.5 -21q-57 0 -103.5 28.5t-63.5 78.5q-28 -23 -45 -52t-17 -63q0 -13 3 -24t7 -20q2 -5 4.5 -8.5t1.5 -4.5q-3 -2 -10 9q-6 10 -10 23t-4 27
q0 38 18 68.5t48 55.5q-2 6 -3.5 18.5t-1.5 23.5q0 83 35 162q-68 -18 -128.5 -46.5t-106 -70.5t-72.5 -98.5t-29 -129.5q-2 -76 25.5 -133t77 -94.5t116.5 -56t144 -18.5h1zM392 -377q-79 0 -149 19t-121.5 57t-81 95t-27.5 134t31.5 136t78 102.5t112.5 73.5t136 49
q20 41 47.5 80.5t62.5 80.5q34 39 84.5 79.5t107 74t113 54.5t103.5 21q23 0 43 -7t34 -19.5t22 -31.5t7 -43q-1 -28 -18.5 -55t-46.5 -51t-65.5 -44t-74.5 -35q-91 -35 -185 -58.5t-170 -39.5q-25 -48 -38.5 -95t-14.5 -95q38 20 81.5 31.5t84.5 11.5q63 0 118.5 -22.5
t92.5 -64.5q38 28 73 61t66 67t57.5 67.5t47.5 63.5q17 24 34 54t30.5 63t22 68t8.5 69q0 24 -6 46.5t-18.5 39t-31.5 26.5t-45 10q-23 0 -42 -7q-5 -2 -7 -3.5t-3 -0.5q-2 1 6 6q9 5 21.5 8.5t26.5 3.5q28 0 52.5 -9t43.5 -27t30 -46.5t11 -67.5q0 -64 -27 -131t-67 -125
q-50 -72 -118 -139.5t-149 -116.5q16 -23 25 -50.5t9 -59.5q0 -72 -36 -129.5t-95 -97t-133.5 -60.5t-151.5 -21h-1z" />
    <glyph glyph-name="Q.swash1" unicode="Q" horiz-adv-x="698" 
d="M262 -34q47 0 99.5 15t105.5 43.5t103 69t93 90.5q31 36 56 76t42.5 79t27 75t9.5 65q0 48 -21.5 81t-73.5 34q-35 1 -71.5 -13.5t-73.5 -39t-72 -57.5t-67 -70q-39 -45 -72.5 -93t-58.5 -97.5t-39 -99t-14 -97.5q0 -17 1.5 -32.5t3.5 -27.5q5 -1 10.5 -1h10.5h1z
M688 -223q-2 -1 -4 5.5t-7 14.5q-21 37 -48 49t-63 9q-19 -2 -39 -12.5t-42.5 -22.5t-47.5 -22t-53 -11q-69 -2 -107 44t-48 128q-72 9 -114.5 48.5t-47.5 115.5q-5 79 26.5 167.5t97.5 164.5q45 52 100.5 97t120 78t136 52t148.5 19q33 0 65.5 -8.5t59.5 -25t45.5 -41
t21.5 -57.5q3 -30 -6 -55t-24 -45q-6 -8 -11.5 -14t-7.5 -5q-1 1 3 7t9 18q8 20 11 42.5t0 48.5q-7 65 -52.5 95.5t-112.5 30.5q-76 0 -141.5 -22t-123 -59.5t-107 -87t-93.5 -104.5q-27 -34 -50 -72t-39 -78t-24 -81t-6 -82q6 -123 115 -138q-3 28 -3 59q0 102 41 205
t122 195q34 39 74 72t81 56.5t82 36t79 11.5q54 -2 86.5 -39.5t32.5 -92.5q0 -75 -35.5 -153t-99.5 -151q-44 -51 -97 -90t-108.5 -65.5t-110 -40.5t-100.5 -14h-15t-15 1q14 -67 53.5 -98t90.5 -29q23 0 45.5 9.5t45 20.5t45.5 20t46 9q45 0 73 -25.5t42 -64.5
q2 -6 4.5 -14t0.5 -9z" />
    <glyph glyph-name="R.swash1" unicode="R" horiz-adv-x="1630" 
d="M1279 319q11 0 22 1t21 3q-8 10 -20 16t-28 6q-8 0 -16 -2t-9 -10q-1 -9 10 -11.5t19 -2.5h1zM378 -15q45 21 84 52t67.5 68t45 79t16.5 86t-25.5 75.5t-75.5 31.5q-35 0 -69 -18.5t-60 -49t-42.5 -70.5t-16.5 -82q-1 -54 18.5 -98t57.5 -74zM555 -80q-54 0 -99.5 13.5
t-79.5 39.5q-42 -17 -84.5 -27t-84.5 -10q-27 0 -53 6t-48 17.5t-39 29t-24 40.5q-5 17 -1 18l6 -16q19 -43 63 -64t95 -21q42 0 82.5 9t78.5 25q-38 32 -59 76.5t-21 100.5q0 45 17.5 86.5t46.5 73.5t65.5 51t74.5 19q58 0 93.5 -37t35.5 -97q0 -39 -18.5 -78.5t-50 -76
t-74 -67.5t-90.5 -53q32 -23 74 -35t94 -12q90 0 168 31t147 82t130.5 117.5t119.5 137.5q48 59 92.5 110.5t89.5 96t92 81.5t100 67q-34 38 -89.5 55.5t-113.5 17.5q-45 0 -89 -7t-84 -19t-74.5 -27t-59.5 -31q-78 -48 -125.5 -110.5t-52.5 -131.5q-3 -49 22 -77.5
t71 -30.5q36 -2 70 13.5t60 40.5t41.5 54.5t15.5 55.5q0 9 -2.5 18.5t-8.5 17.5t-15.5 13.5t-23.5 5.5q-24 0 -44 -11l-11 -6q-1 1 3 4t6 5q23 15 47 15q31 0 51.5 -16t20.5 -51q0 -30 -19 -60.5t-49 -55t-68 -39.5t-76 -13q-49 2 -78.5 32.5t-26.5 85.5q2 34 16.5 68
t39 66.5t57.5 61t72 52.5q25 16 60 31.5t75.5 28t86 20t92.5 7.5q59 0 118 -17.5t100 -56.5q57 32 121 53.5t139 19.5q31 -1 29 -7q-1 -2 -5.5 -1t-22.5 1q-76 0 -135 -20.5t-118 -53.5q38 -40 44 -100q4 -48 -14 -85.5t-48 -69.5q-27 -29 -67.5 -49t-83.5 -31
q11 -11 18 -25t7 -31q0 -33 -15.5 -64.5t-34.5 -60.5q-18 -28 -29.5 -48t-16.5 -49t8 -47.5t45 -18.5q19 0 43 7t51 20t54.5 31.5t54.5 41.5q44 38 65 73t26 67q4 24 -8 40.5t-38 16.5q-29 0 -58.5 -16t-50.5 -34q-20 -17 -37 -36.5t-28 -37.5q-7 -13 -9 -12q-3 2 4 15
q9 17 23.5 35.5t38.5 40.5q23 20 55 38.5t65 19.5t50.5 -19t12.5 -52q-5 -36 -32.5 -71t-70.5 -73q-53 -47 -113 -77t-112 -30q-22 0 -41 6.5t-32 19t-19 31.5t-1 45q5 29 20.5 53.5t36.5 52.5q22 29 39 54.5t17 54.5q0 20 -9 35q-23 -4 -49 -4q-14 0 -29 4t-13 18
q2 11 14 14.5t25 3.5q35 0 66 -25q39 11 68.5 34.5t58.5 56.5q13 15 24.5 33.5t20.5 39t13.5 41.5t2.5 42q-3 40 -27 72q-45 -29 -88 -70.5t-83.5 -89.5t-80 -100.5t-78.5 -101.5q-67 -84 -135.5 -151.5t-143 -115t-158 -72.5t-179.5 -25h-1z" />
    <glyph glyph-name="S.swash1" unicode="S" horiz-adv-x="954" 
d="M1346 496q18 13 21 29q1 3 0 6.5t-5 3.5q-8 0 -12.5 -9.5t-4.5 -18.5q0 -6 1 -11zM1468 435q29 0 58 9.5t52 26.5t37.5 39.5t15.5 49.5q2 57 -41 88t-111 31q-38 0 -74 -12t-68 -31t-59.5 -43t-49.5 -48q-23 -24 -42.5 -49.5t-40.5 -53.5q62 0 113.5 14t80.5 35
q-1 3 -2 9.5t0 12.5q2 13 9 22t17 9q7 0 10 -4.5t2 -10.5q-2 -21 -27 -40q5 -14 17 -24t28.5 -17t36 -10t37.5 -3h1zM409 -73q-84 -2 -157.5 16t-127 56t-83.5 96t-27 137q3 77 39 141.5t93.5 111t130 72.5t147.5 26q59 0 107.5 -13.5t82.5 -39t52 -63.5t16 -87
q-2 -50 -27.5 -91t-65.5 -70t-88.5 -45.5t-96.5 -16.5q-25 0 -49 5t-43 16t-32 28t-15 41q-1 8 0 14.5t3 6.5t1.5 -5t1.5 -16q3 -22 15.5 -37.5t31.5 -25t42 -14t46 -4.5q46 0 90 16t78.5 44.5t56 68.5t23.5 88q1 41 -12 76t-41 60.5t-72 40t-104 14.5q-73 0 -142.5 -25
t-124 -70.5t-89 -108.5t-37.5 -139t25 -132.5t79 -93t121 -54t152 -15.5q78 2 149.5 24.5t136.5 62.5t124 95.5t113 123.5q49 62 85 109t68 85q-44 5 -84.5 20.5t-71 41t-48.5 60.5t-16 79q1 35 16.5 65t40 52.5t57 35t67.5 12.5q22 0 43.5 -6t38 -18t26 -30t8.5 -42
q-1 -48 -45 -78q-5 -3 -9.5 -5t-5.5 0t3.5 4.5t8.5 5.5q36 28 37 74q0 22 -8.5 38.5t-23 27t-33.5 15.5t-40 5q-34 0 -62.5 -12.5t-50 -34t-34 -51.5t-13.5 -64q-2 -39 14.5 -71t45 -56t66.5 -39t80 -20q24 29 48 54.5t50 51.5q27 26 61.5 51t72 44t77 30.5t78.5 11.5
q73 0 119 -33.5t44 -95.5q-1 -29 -16.5 -53.5t-40.5 -42t-56 -27.5t-63 -10q-20 0 -39.5 3.5t-36.5 10.5t-30 18t-19 26q-31 -22 -83.5 -37t-118.5 -14q-31 -44 -66.5 -93.5t-83.5 -108.5q-65 -79 -134 -136t-141 -93.5t-148.5 -54.5t-156.5 -20z" />
    <glyph glyph-name="T.swash1" unicode="T" horiz-adv-x="970" 
d="M255 -22q53 0 105.5 6t98.5 17q-68 13 -137 27t-149 14q-28 0 -50 -7t-22 -22q0 -10 14.5 -17t37 -11t49.5 -5.5t52 -1.5h1zM251 -31q-27 0 -58.5 1.5t-58.5 6.5t-45 14.5t-18 26.5q0 9 9 15.5t23.5 10t32.5 5t36 1.5q47 0 89 -4t82 -10t79 -12.5t80 -11.5q106 32 192 93
t162 153q44 53 90 105.5t90.5 99t85.5 83.5t76 58q-63 -24 -119.5 -48.5t-112.5 -48.5q-62 -27 -121.5 -49.5t-121 -40t-126 -28t-135.5 -11.5q-90 -2 -169.5 14.5t-138.5 52t-93.5 90.5t-34.5 130q0 56 23.5 108t65.5 96.5t100 81t125.5 63t142.5 42.5t152 19
q64 3 128 -5.5t115.5 -30t84 -56t32.5 -84.5q0 -62 -41.5 -118t-107.5 -99t-147 -68t-160 -25q-37 0 -76 6.5t-71.5 21.5t-53 39t-20.5 58q0 37 19.5 68t49 53t63.5 35.5t63 16.5q18 1 18 -2t-16 -4q-28 -3 -60.5 -16t-60.5 -35t-46.5 -51t-18.5 -64q0 -29 16 -48.5
t40.5 -31.5t54 -17t55.5 -5q53 0 110 10t111.5 28.5t103.5 44.5t86 57.5t58.5 68.5t21.5 77q0 47 -32 79.5t-82 52t-112.5 27.5t-123.5 6q-71 -3 -143 -20t-138.5 -44.5t-124.5 -65t-101 -80.5t-67.5 -91.5t-24.5 -97.5q0 -72 33 -125.5t91 -88t135.5 -50.5t166.5 -14
q70 1 135.5 14t126.5 33t118.5 45.5t113.5 53.5q59 30 118.5 58.5t118 51.5t116 37t112.5 14q29 0 57 -4t52.5 -13t43.5 -22t29 -31q3 -6 6.5 -12.5t0.5 -8.5q-2 -1 -5 3t-12 10q-26 17 -65.5 26.5t-79.5 9.5q-34 0 -63.5 -2.5t-57.5 -7.5t-56 -13t-58 -19
q-41 -28 -77.5 -72t-72.5 -94.5t-74 -102.5t-80 -96q-44 -46 -88 -82.5t-89.5 -66t-94.5 -51t-103 -37.5q8 -1 22 -1.5t29.5 -1t30.5 -1t24 -0.5q66 0 130 7.5t114 29.5q34 15 53.5 28.5t36.5 27.5q15 12 17 10q4 -4 -9 -15q-20 -18 -42.5 -34.5t-51.5 -30.5
q-53 -23 -114 -34.5t-136 -11.5q-16 0 -36 1t-40.5 3t-39.5 4.5t-33 4.5q-107 -25 -238 -25h-1z" />
    <glyph glyph-name="V.swash1" unicode="V" horiz-adv-x="1414" 
d="M1124 -34q9 0 24 10.5t32.5 27.5t35 38.5t31.5 43.5q-35 -22 -60 -37.5t-41.5 -28t-24.5 -23t-8 -21.5q0 -10 10 -10h1zM675 -467q-158 -3 -292.5 38t-227 123.5t-131.5 204t-5 279.5q17 78 55.5 143t94 117.5t124.5 91.5t146.5 65.5t162 40.5t169.5 16q102 2 184.5 -4.5
t155 -15.5t140 -16.5t138.5 -7.5q18 0 45.5 2t58 7t60 12t49.5 18q20 20 33 29.5t24 9.5q7 0 11.5 -4t2.5 -12q-2 -12 -15 -15.5t-32 -18.5q-32 -25 -58 -57.5t-49 -70t-43.5 -78.5l-40.5 -81q-15 -31 -27.5 -57t-25 -50t-26.5 -47.5t-32 -49.5q50 30 95 58.5t89.5 59
t90.5 64.5t98 76q42 33 80 72t69 77t53 73t32 60q-3 7 -5.5 14.5t-2.5 16.5q0 22 24 22q12 0 17 -11t5 -23q0 -6 -2 -16q26 4 66.5 15t106.5 39q58 24 117.5 46t120 38t122.5 25.5t127 9.5q72 0 137.5 -13.5t115.5 -42.5t79.5 -75.5t29.5 -112.5q0 -60 -32.5 -107.5
t-84 -82.5t-116.5 -56t-131 -27q-59 -5 -120.5 -2t-112.5 19.5t-86 48.5t-39 84q-4 42 16.5 78t57 63.5t86 44.5t103.5 22q38 3 77 -1.5t73 -16.5t59 -31t35 -44q5 -11 6 -20.5t-1 -9.5q-3 0 -3.5 6.5t-6.5 20.5q-11 24 -35 42t-56 29t-69.5 15t-73.5 1q-51 -5 -96 -21
t-78 -42t-50.5 -60.5t-14.5 -75.5q4 -48 34.5 -78t76.5 -45.5t102.5 -19t113.5 1.5q61 5 124.5 25.5t115 54t84.5 80t33 103.5q0 64 -30 109t-79.5 73.5t-113.5 41t-132 12.5q-80 0 -148 -13t-126.5 -32t-108 -40.5t-92.5 -38.5q-74 -30 -117.5 -39t-67.5 -10
q-9 -33 -36.5 -72.5t-65 -79t-80.5 -77t-81 -67.5q-52 -41 -101 -75t-97 -64.5t-96.5 -60t-100.5 -61.5q-27 -36 -57 -68t-57.5 -55.5t-50.5 -37.5t-36 -14q-20 0 -20 18q0 12 16.5 29t42 36.5t56.5 39.5t59 37q22 38 37.5 72.5t30.5 69t32 70.5t41 77q22 37 42.5 67
t42 56.5t45.5 52.5t54 57q-16 -6 -41 -11.5t-53 -9.5t-55 -6.5t-47 -2.5q-75 0 -142.5 7t-139.5 15t-153.5 14t-183.5 4q-127 -3 -244 -33t-212 -88t-161 -143.5t-91 -199.5q-22 -100 -14 -186.5t41.5 -157.5t90.5 -125.5t132.5 -91.5t167 -55.5t195.5 -16.5q90 2 173 19
t154.5 46t130.5 68t100.5 85t64.5 96.5t23 103.5q1 17 -1.5 25t-0.5 9q4 1 7 -8.5t3 -26.5q0 -83 -49.5 -159t-137 -134.5t-207.5 -94t-260 -38.5z" />
    <glyph glyph-name="W.swash1" unicode="W" horiz-adv-x="1630" 
d="M498 -31q-92 0 -178 21.5t-152 66t-106 113t-40 162.5q0 117 60.5 204t160.5 144.5t227.5 86t262.5 28.5q74 0 142 -8.5t130.5 -21.5t119.5 -29t108 -30q64 -18 120 -31t104 -13q41 0 72 4t69 18q9 4 16 9t13.5 10t13 8.5t14.5 3.5q6 0 12 -2t6 -9q0 -5 -5.5 -6t-9.5 -5
q-52 -44 -96 -115t-93 -153q-64 -106 -121.5 -192.5t-115.5 -164.5q40 41 74 75.5t67 67.5t68.5 67t77.5 73q49 46 93 86t85.5 76.5t82.5 72t85 72.5q5 5 11 8t13 1q8 -3 5 -12.5t-6 -14.5q-23 -32 -44.5 -63.5t-44 -65t-46.5 -70.5t-50 -80q-42 -68 -87.5 -140.5
t-87.5 -132.5q30 31 71 73t86.5 87.5t93.5 91t92 84.5q54 48 97.5 86t85.5 71.5t88 65t106 67.5q40 24 81.5 44t83 35t80.5 23.5t74 8.5q28 0 56 -5t50.5 -16.5t35.5 -30t12 -46.5q-1 -15 -8 -27.5t-17 -22t-21 -15.5t-19 -9q-8 -2 -15.5 -3.5t-9.5 0.5q-1 2 4 2.5t13 8.5
q10 9 15.5 25.5t4.5 33.5q-1 19 -11 34t-26.5 24.5t-36.5 14.5t-41 5q-78 0 -152.5 -26t-149.5 -70q-48 -28 -87.5 -54.5t-75 -53.5t-70.5 -57t-75 -66q-143 -128 -260 -242t-214 -221q-5 -5 -11.5 -9t-18.5 -4q-13 0 -12.5 11.5t8.5 23.5q15 22 36.5 54t45.5 69.5t50 78.5
l52 82q50 80 95.5 150.5t91.5 129.5q-27 -23 -60 -52t-69 -61.5t-74.5 -67.5t-76.5 -70q-49 -45 -98.5 -94t-94.5 -94t-82 -83t-59 -61q-10 -10 -18 -14.5t-23 -4.5q-8 0 -9 5.5t2 13.5t8 16.5t9 14.5q44 63 94 141.5t104 166.5q29 47 62.5 98.5t65 97t59 79.5t45.5 48
q-32 -10 -64.5 -15t-70.5 -5q-75 0 -135.5 10.5t-116.5 27.5q-51 15 -100.5 31.5t-105 30.5t-120 23.5t-145.5 9.5q-86 0 -170.5 -12.5t-160.5 -37t-140.5 -62.5t-112 -88.5t-74 -114.5t-26.5 -141q0 -91 36.5 -157t98.5 -109.5t143.5 -64.5t171.5 -21q57 0 115 8.5
t112 25.5t101.5 43t82.5 60t55.5 76.5t20.5 93.5q0 52 -23.5 90t-61.5 62.5t-87 36.5t-101 12t-99.5 -11.5t-85.5 -31t-64 -44.5t-33 -53q-5 -19 -3.5 -27t-3.5 -9q-3 -1 -4 12t2 25q7 30 33.5 57t66 47.5t89 32t102.5 11.5q54 0 109 -12t99.5 -37t72.5 -64.5t28 -94.5
q0 -53 -22.5 -97.5t-61 -79.5t-90 -61.5t-110 -44t-120 -26.5t-119.5 -9h-1z" />
    <glyph glyph-name="Y.swash1" unicode="Y" horiz-adv-x="738" 
d="M-616 -1063q54 0 114.5 18.5t124.5 51t128 78t125 99.5q85 76 158.5 150.5t141.5 155t135 169.5t139 194q-81 -14 -163 -36.5t-159.5 -51.5t-148.5 -63t-132 -69q-74 -43 -145.5 -91.5t-135.5 -100t-118 -104.5t-93.5 -104.5t-61.5 -101.5t-22 -94q0 -48 31.5 -74
t80.5 -26h1zM-618 -1073q-29 0 -56 7t-48 21t-34 36.5t-13 54.5q0 44 24 93t66 100t100 103.5t126 103.5t142.5 100t151.5 94q62 36 134.5 71t152 64.5t163 52.5t167.5 36q59 87 104 160t84 139q-30 -29 -62 -56.5t-64.5 -49t-64 -34.5t-60.5 -13q-27 0 -44 16t-17 48
q0 27 15 57.5t38 62t51.5 64t55.5 65.5q22 27 45 55t41 57.5t29.5 60.5t11.5 64q0 34 -13 58t-35 39.5t-50 22.5t-59 7q-35 0 -72 -8t-73 -23t-70 -35.5t-62 -45.5q-57 -49 -89 -105.5t-32 -124.5q0 -48 30 -79t79 -31q39 0 77.5 16t70 43.5t52.5 65t26 79.5q2 23 -8 40
t-37 17q-19 0 -36.5 -7t-25.5 -14q-7 -5 -9.5 -8.5t-4.5 -1.5q-1 1 1.5 4.5t7.5 8.5q11 11 30.5 20t39.5 9q29 0 49 -17.5t17 -52.5q-3 -44 -28.5 -82t-62 -67t-79 -45.5t-80.5 -16.5q-58 0 -95 30.5t-37 86.5q0 35 10.5 67.5t29 62t43.5 57t55 53.5q27 23 61.5 44.5
t72.5 37.5t77.5 25.5t75.5 9.5q42 0 78.5 -10t63.5 -29.5t42.5 -48t15.5 -65.5q0 -33 -13 -66t-34.5 -67.5t-49.5 -69.5t-59 -72q-24 -29 -47.5 -58t-42 -57.5t-30.5 -55t-12 -49.5q0 -13 9 -20.5t23 -7.5q16 0 33 5.5t34.5 14.5t34.5 20.5t32 23.5q21 17 37.5 30.5t31.5 28
t29.5 30.5t31.5 39q22 29 41.5 55.5t39 53.5t40 55.5t45.5 61.5q47 62 80.5 104t64.5 78q9 11 23 23t27 10q8 -2 11 -8t1 -14q-2 -7 -11.5 -15.5t-20.5 -22.5q-54 -68 -100.5 -130t-88.5 -121q-48 -69 -88 -129.5t-76 -117.5t-71.5 -113t-75.5 -114q32 3 62.5 5t61.5 2
q64 0 127.5 -9t121.5 -28.5t108 -49.5t86.5 -73t57.5 -99.5t21 -127.5q0 -67 -21 -129t-58.5 -116t-89 -98.5t-113 -77t-130.5 -50.5t-141 -19q-62 -1 -122 13t-107 44t-76.5 76.5t-29.5 112.5q0 60 24 111t63.5 91t89.5 68t101 41q9 2 17 3t8 -1q0 -3 -4.5 -3.5t-17.5 -4.5
q-51 -14 -97 -42.5t-81 -68t-55.5 -90t-20.5 -108.5q0 -61 26.5 -105.5t69.5 -73t98.5 -42t114.5 -12.5q106 2 198.5 40t161 103t108 152t39.5 188t-39.5 172.5t-105.5 116.5t-152 66t-180 21q-32 0 -65 -2t-66 -6q-26 -38 -54.5 -77t-61.5 -81q-65 -83 -122.5 -153
t-116 -133.5t-123.5 -123.5t-145 -123q-65 -51 -130.5 -95.5t-130 -77.5t-126 -52t-117.5 -19h-1z" />
    <glyph glyph-name="Z.swash1" unicode="Z" horiz-adv-x="997" 
d="M661 2q24 0 51 5t55 14t55 21.5t50 27.5q64 40 108.5 95.5t55.5 111.5q7 35 -4 60t-46 27q-100 6 -230 -112q-24 -22 -48 -50t-46 -59.5t-41.5 -65t-35.5 -66.5q37 -9 75 -9h1zM539 -178q-2 0 -3 6t-1 13q-2 26 7 66t21 74q-38 5 -77 17t-79 35q-25 15 -46.5 27.5
t-43 21.5t-44 14.5t-49.5 5.5q-28 0 -52.5 -8.5t-46 -21.5t-39.5 -28t-32 -28q-6 -6 -12.5 -13t-12.5 -12.5t-11.5 -8t-9.5 1.5q-9 8 -3.5 21t15.5 21q19 16 62.5 50.5t100.5 77t122 90t129 90.5q-33 -1 -48 3t-14 13q0 7 5 11.5t17 6t32.5 0.5t53.5 -3q48 31 102 64.5
t108 64t104.5 57.5t91.5 46q-66 -23 -126.5 -36t-113.5 -19.5t-97.5 -8t-78.5 0.5q-69 3 -119.5 20t-83 44t-45.5 62.5t-5 75.5q7 39 35.5 72t71 57.5t95 38.5t107.5 14q33 0 66 -5.5t59.5 -17t43.5 -29.5t17 -44q0 -32 -23 -59t-57.5 -47.5t-75.5 -34t-78 -19.5
q-13 -2 -17 -2t-5 2t3.5 3t17.5 3q35 7 70.5 20t64.5 32.5t47.5 45t18.5 58.5q0 22 -14 38.5t-36 27t-49.5 15.5t-55.5 5q-53 0 -103.5 -13.5t-90.5 -37t-67 -55.5t-34 -69q-12 -66 49.5 -112t194.5 -51q33 -1 80.5 -0.5t98 3t99.5 8t87 13.5q18 4 52.5 14.5t79.5 26.5
q21 8 48 14.5t51 6.5q23 0 23 -13q0 -17 -42 -30q-25 -8 -45.5 -10.5t-38.5 -4t-34.5 -3t-33.5 -7.5q-39 -20 -87 -47t-98.5 -58t-101 -62.5t-93.5 -60.5q25 -2 43 -3.5t44 -1.5q3 0 7 -0.5t4 -2.5t-3.5 -3t-7.5 -1q-30 -2 -62.5 -6.5t-62.5 -6.5q-43 -29 -96.5 -63.5
t-106.5 -70.5t-101 -71t-80 -65q47 32 89 50t77 18q28 0 51.5 -4.5t46 -12.5t45 -20.5t48.5 -27.5q66 -40 124 -56q15 33 34.5 66.5t42 65.5t47.5 61t51 53q65 60 124 90t114 27q45 -2 64.5 -31t11.5 -69q-5 -26 -21.5 -54t-41 -56t-57 -55t-69.5 -50q-134 -84 -260 -84
q-11 0 -22 0.5t-22 1.5q-11 -33 -20.5 -72t-9.5 -67q0 -9 0.5 -14t-2.5 -5h-1z" />
    <glyph glyph-name="afii10017" unicode="&#x410;" horiz-adv-x="1350" 
d="M1009 230q38 32 72 63.5t65 60.5q33 32 63 60.5t59 54.5q-34 28 -79 43.5t-95 15.5q-80 0 -127.5 -39.5t-53.5 -106.5q-5 -51 22 -90t74 -62zM1175 5q12 -2 27 4t30.5 17.5t30.5 26.5t28 33q26 34 40.5 69.5t20.5 71.5q-12 -5 -24.5 -9t-26.5 -8q-34 -10 -68 -14
q-17 -25 -31.5 -47t-19.5 -33q-11 -20 -19.5 -41t-10.5 -38q-2 -11 3 -20.5t20 -11.5zM1333 400q32 35 65.5 69.5t74.5 78.5q21 23 41 46t37 43q28 34 29 51q0 10 -7 11q-12 3 -38 -13q-14 -9 -30 -21t-32 -26t-32 -28.5t-30 -27.5q-29 -26 -61 -55t-65 -61q14 -14 27 -32
q5 -8 10.5 -16.5t10.5 -18.5zM1239 205q33 5 59 12q14 5 28 9.5t27 10.5q4 28 3 57q-2 26 -10 51q-14 -16 -27.5 -33t-28.5 -36q-11 -14 -24 -32.5t-27 -38.5zM1173 201q15 23 32 46.5t36 46.5q23 29 44 52.5t41 46.5q-11 19 -21 36q-11 17 -27 31q-32 -29 -63 -57.5
t-60 -56.5q-29 -27 -63 -58t-72 -63q17 -7 35 -12.5t38 -7.5q17 -2 37 -3.5t43 -0.5zM355 -77q-76 0 -148 15.5t-127.5 50t-89 89.5t-33.5 134q0 76 38 135.5t98.5 100.5t136 62.5t150.5 21.5q50 0 101 -12t91.5 -36t66 -60.5t25.5 -86.5q0 -47 -23.5 -86t-61.5 -66.5
t-86 -43t-96 -15.5q-34 0 -67.5 7t-60 22t-43 38t-16.5 55q0 21 9.5 39t24 32t33 24t36.5 14q17 3 17 -1q0 -1 -4 -1t-13 -3q-32 -10 -56 -38t-24 -66q0 -29 13.5 -50t36 -35t52 -21t61.5 -7q47 0 91.5 14.5t78.5 41.5t54.5 64.5t20.5 83.5q0 47 -23 81.5t-59.5 57.5t-83 34
t-94.5 11q-74 0 -144 -21.5t-124 -61t-87 -96.5t-33 -129q0 -78 28.5 -131.5t78 -87.5t115.5 -49t141 -15q57 0 113 10t108.5 27t100.5 39.5t91 47.5q59 34 117.5 77t113.5 90q-26 12 -49 28.5t-39 36.5t-24.5 44t-5.5 51q3 34 21.5 62.5t47 48.5t65.5 31.5t79 11.5
q53 0 99 -16t81 -46q32 30 63 58.5t63 57.5q15 13 31.5 28t33.5 28.5t33.5 25.5t31.5 21q25 16 46 14q13 -1 21.5 -8t9.5 -17q1 -12 -3.5 -26t-18.5 -33q-16 -23 -36 -46.5t-42 -47.5q-47 -52 -83 -92.5t-72 -83.5q5 -15 8.5 -30.5t4.5 -30.5q1 -12 0.5 -24.5t-2.5 -26.5
q51 24 93 56t76 67q74 79 86 155q2 13 0.5 16.5t0.5 4.5q8 2 5 -23q-5 -40 -27 -80.5t-58 -79.5q-37 -39 -80.5 -71.5t-97.5 -55.5q-6 -37 -21.5 -75t-42.5 -74q-29 -38 -64.5 -63.5t-68.5 -25.5q-27 0 -44.5 15.5t-13.5 47.5q2 20 9.5 41t18.5 41q7 13 15 26.5t17 27.5
q-20 0 -39 1t-36 3q-20 2 -40.5 8t-40.5 14q-56 -47 -116 -91t-120 -79q-41 -24 -88.5 -46.5t-101 -40t-111.5 -28t-118 -10.5h-1z" />
    <glyph glyph-name="afii10020" unicode="&#x413;" horiz-adv-x="851" 
d="M1289 668q-6 -3 -14 -9t-16.5 -12.5t-16 -13t-11.5 -9.5q-69 -57 -129 -132t-115 -151q-62 -86 -133.5 -158t-154 -123.5t-176 -80.5t-199.5 -29h-1q-58 0 -110.5 14.5t-92 42.5t-63 68.5t-23.5 92.5q0 67 34 119t86 88t114.5 54.5t119.5 18.5q39 0 75.5 -8.5t65 -26
t46 -43.5t17.5 -62q0 -39 -22 -70.5t-54.5 -53t-70 -33.5t-67.5 -13q-17 -1 -30 1t-12 7q0 2 1.5 1.5t6 -1t12.5 -1.5t21 1q28 3 59 15t56 32.5t41.5 49t16.5 65.5q0 31 -12.5 55.5t-34.5 41t-52 25.5t-64 9q-57 0 -115 -18t-104.5 -52.5t-76 -85t-29.5 -115.5
q0 -49 18.5 -87.5t53 -65.5t83 -41.5t107.5 -14.5q88 0 159 20t133 57.5t118.5 91.5t115.5 122q22 25 50.5 60.5t61.5 75.5t70.5 81t76 78t77.5 67t77 47zM1414 716q-8 1 -8.5 -3.5t-7.5 -2.5q-62 -23 -119.5 -47t-112.5 -47q-62 -26 -122 -48.5t-121.5 -39t-126.5 -26
t-136 -10.5q-90 -1 -169 16.5t-137.5 53.5t-92.5 91.5t-33 130.5q0 57 24 108t66.5 95t100.5 80t126 62t143.5 41t152.5 17q64 2 128 -7.5t115.5 -31t83.5 -56.5t31 -85q0 -41 -20 -80t-53.5 -73t-78.5 -62t-95.5 -48.5t-105 -31.5t-106.5 -10q-37 0 -76 7.5t-71.5 23
t-52.5 39.5t-20 58q0 37 20 67.5t49.5 52.5t63.5 35t63 15q19 1 19 -2q-1 -3 -17 -3q-28 -3 -60.5 -16t-60.5 -34.5t-47 -50.5t-19 -64q0 -29 15.5 -48.5t40 -31.5t53.5 -17.5t56 -5.5q53 -1 110 8.5t111.5 27t104 43t86.5 57t59 68t23 76.5q0 47 -31.5 80t-81.5 53
t-112.5 28.5t-123.5 7.5q-71 -2 -143 -18t-138.5 -43.5t-125 -64t-101.5 -79t-68.5 -90.5t-25.5 -97q-1 -72 31.5 -125.5t89.5 -89t134.5 -52.5t166.5 -16q71 1 136.5 12.5t126.5 31t119 45t114 52.5q59 28 119 56t118.5 50.5t116 36t112.5 13.5q29 -1 57 -5.5t52.5 -13.5
t43.5 -22.5t29 -31.5q3 -5 6.5 -12t0.5 -9q-2 0 -5.5 3.5t-11.5 10.5q-26 17 -65.5 26.5t-79.5 10.5q-68 1 -121.5 -8t-114.5 -31z" />
    <glyph glyph-name="afii10021" unicode="&#x414;" horiz-adv-x="1503" 
d="M710 -18q101 0 186 32q-38 10 -77.5 17.5t-84.5 7.5q-52 0 -81 -9t-29 -23t23 -19.5t62 -5.5h1zM1061 1q65 0 114.5 6.5t90.5 22t77 42t74 67.5q23 24 48 60t46 80t35 94.5t14 103.5q0 64 -27 120q-32 -28 -60 -63t-57.5 -76t-62 -87t-72.5 -97q-71 -88 -154.5 -154.5
t-184.5 -104.5q29 -6 57.5 -10t60.5 -4h1zM754 -380q-114 0 -217 31.5t-180.5 95.5t-123.5 162t-46 232q0 62 14.5 124t40 120.5t61.5 112.5t79 101q58 63 130 113.5t152 86t165.5 54.5t169.5 19q87 0 167.5 -17t150.5 -50t126 -81t92 -109q23 18 49 35t54.5 30.5t59 22
t62.5 8.5q48 0 71 -21q2 -2 4 -4.5t1 -3.5l-9 5q-11 7 -26.5 11t-40.5 4q-60 0 -114.5 -28.5t-103.5 -69.5q25 -45 38 -95.5t13 -107.5q0 -45 -11.5 -85t-31 -76t-45.5 -67.5t-56 -58.5q-29 -26 -70 -49t-91.5 -40t-109 -27.5t-120.5 -10.5q-36 0 -69.5 6.5t-66.5 14.5
q-51 -17 -106.5 -26.5t-115.5 -9.5q-26 0 -49.5 1.5t-40.5 6t-27 11.5t-10 18t13 18.5t35 12t51 6.5t61 2q53 0 96 -8.5t85 -18.5q45 19 85.5 47t79.5 62.5t77 76t77 89.5q71 86 145 169t149 144q-27 51 -74.5 94t-115 75t-153.5 50t-189 18q-84 0 -168 -17t-163 -49
t-149 -79t-127 -108q-41 -44 -74 -98t-56 -112.5t-35 -119.5t-12 -121q1 -125 44.5 -220t117.5 -159t173 -96.5t211 -32.5q116 0 212.5 27t170.5 76q46 30 79.5 66.5t48.5 68.5q3 6 3.5 9t2.5 3q6 0 -1 -16q-6 -14 -18 -31.5t-28.5 -36t-37.5 -37t-45 -34.5
q-77 -51 -175 -80t-214 -29h-1z" />
    <glyph glyph-name="afii10022" unicode="&#x415;" horiz-adv-x="622" 
d="M669 421q31 0 58 10t47.5 28t32 42.5t11.5 53.5q0 32 -11 56.5t-30 41t-45 26.5t-56 13q-52 -23 -87 -66t-35 -103q0 -48 31.5 -75t82.5 -27h1zM465 380q14 0 26.5 5.5t14.5 19.5q2 11 -6.5 18t-21.5 11.5t-27.5 6t-24.5 1.5q-9 0 -18 -0.5t-18 -1.5q5 -26 22.5 -43
t51.5 -17h1zM272 -52q53 0 106 17.5t88 40.5q51 34 79 75.5t30 93.5q1 53 -33.5 80.5t-87.5 27.5q-28 0 -54 -7.5t-49 -20t-43.5 -28t-36.5 -31.5q-38 -37 -63.5 -85t-27.5 -104q-1 -11 0 -21t3 -20q17 -8 39.5 -13t48.5 -5h1zM386 -207q-94 0 -155 61q-19 19 -33 43.5
t-22 55.5q-55 20 -91.5 62.5t-36.5 108.5q0 69 29 127.5t93 109.5q15 12 35.5 24t45 23t52 20t56.5 15q-8 22 -8 44q0 47 21 85.5t59 68.5q18 14 41.5 25.5t51.5 20t58 13t61 4.5q9 0 18 -0.5t18 -1.5q58 24 122 24q32 0 63 -10t55.5 -28t39.5 -44t15 -59q0 -26 -13 -48.5
t-29 -36.5q-3 -2 -6.5 -5t-5.5 -1q-1 1 2 3t6 7q11 16 18.5 36.5t7.5 44.5q0 31 -12.5 56t-33.5 42t-49 26t-59 9q-56 0 -106 -19q29 -6 55 -18t45.5 -30t30.5 -42.5t11 -55.5q0 -30 -14.5 -56t-38.5 -45t-54.5 -29.5t-61.5 -10.5q-54 0 -88 28.5t-34 82.5q0 59 33 102
t83 68q-5 1 -9.5 1h-9.5q-32 0 -58.5 -7t-49 -19t-42 -27t-35.5 -31q-31 -30 -50 -67.5t-19 -79.5v-7t1 -8q9 1 18.5 1.5t18.5 0.5q14 0 30.5 -2.5t30.5 -8t22.5 -14.5t6.5 -22q-2 -16 -18.5 -23.5t-32.5 -7.5q-32 0 -60 17t-43 46q-47 -12 -86 -38.5t-75 -63.5
q-46 -48 -70.5 -99.5t-24.5 -120.5q0 -47 16 -83.5t51 -58.5q-1 9 -1.5 18t-0.5 19q1 60 23 110t64 91q35 35 85.5 59t110.5 24q28 0 53.5 -7.5t45 -22.5t31 -37t10.5 -50q-2 -57 -36 -99.5t-88 -77.5q-38 -25 -91 -42.5t-109 -17.5q-44 0 -84 12q8 -28 21 -50.5t30 -39.5
q28 -29 66.5 -42t85.5 -13q26 0 46 4t42 15q5 2 8 5t4 1q1 -3 -9 -10q-17 -11 -41 -19t-52 -8h-1z" />
    <glyph glyph-name="afii10026" unicode="&#x418;" horiz-adv-x="1078" 
d="M821 -28q-34 0 -58 16.5t-24 60.5q0 17 6.5 36.5t17.5 34.5q-23 -20 -55.5 -45.5t-68 -48t-71 -37.5t-65.5 -15q-32 0 -56.5 18t-24.5 57q0 29 12 57.5t35 61.5t57.5 71.5t79.5 87.5q29 31 61.5 68t60.5 76.5t46 81t18 80.5q0 42 -20 71.5t-51.5 47.5t-70.5 26t-77 8
q-47 0 -95 -10t-93 -25t-83.5 -34t-64.5 -37q-46 -32 -84.5 -67t-66 -73.5t-43 -81t-15.5 -88.5q0 -68 43.5 -109.5t124.5 -41.5q50 0 111.5 23t121.5 78q45 41 74 85t29 92q0 35 -22 54.5t-59 19.5q-42 0 -78 -16t-56 -35q-11 -10 -13 -14t-4 -2t3 8.5t10 11.5
q19 19 56 37.5t83 18.5q41 0 70.5 -21.5t29.5 -65.5q0 -50 -33 -98t-80 -89q-56 -49 -121.5 -72.5t-120.5 -23.5q-85 0 -134.5 42.5t-49.5 118.5q0 45 16 87.5t44.5 82.5t68 76.5t87.5 69.5q28 19 66.5 38.5t83 35t94 25t99.5 9.5q48 0 95 -11.5t84 -35.5t59.5 -60t22.5 -85
q0 -37 -13 -70.5t-35.5 -67.5t-53 -69.5t-66.5 -75.5q-31 -35 -68 -74.5t-69 -79t-53.5 -75.5t-21.5 -64q0 -24 16 -34t36 -10q28 0 64.5 16t73 40t70.5 51t58 48q11 18 33 47t49.5 63.5t59.5 71.5t62 72q54 62 108.5 121t104 104.5t91.5 73.5t71 28q10 0 16.5 -5.5
t6.5 -14.5q0 -16 -14 -37.5t-35.5 -45.5t-48 -49.5t-51.5 -49.5q-50 -47 -90.5 -84.5t-77 -69t-70.5 -60.5t-71 -60q-13 -18 -34.5 -46t-42.5 -59t-36 -61.5t-15 -54.5q0 -18 8 -29t30 -11q40 0 82 23t80 58q30 28 49.5 61.5t19.5 64.5q0 14 -7.5 23.5t-22.5 9.5t-31.5 -7
t-32 -18.5t-29.5 -26t-23 -29.5q-7 -11 -9 -15.5t-4 -2.5q-2 1 0.5 7.5t6.5 12.5q10 16 24 32t30.5 28.5t34.5 20t35 7.5q22 0 34.5 -10t12.5 -33q0 -32 -23 -65.5t-58 -65.5q-42 -37 -85 -61t-87 -24h-1zM927 264q46 40 120.5 105.5t166.5 153.5q27 25 52.5 52t46 51
t33 43.5t12.5 30.5q0 12 -11 12q-17 0 -41 -18t-52 -46.5t-57.5 -62.5t-57.5 -65q-32 -36 -59.5 -68.5t-53 -63t-49.5 -61t-50 -63.5z" />
    <glyph glyph-name="afii10027" unicode="&#x419;" horiz-adv-x="1078" 
d="M822 -28q44 0 87 24t85 61q35 32 58 65.5t23 65.5q0 23 -12.5 33t-34.5 10q-17 0 -35 -7.5t-34.5 -20t-30.5 -28.5t-24 -32q-4 -6 -6.5 -12.5t-0.5 -7.5q2 -2 4 2.5t9 15.5q9 15 23 29.5t29.5 26t32 18.5t31.5 7t22.5 -9.5t7.5 -23.5q0 -31 -19.5 -64.5t-49.5 -61.5
q-38 -35 -80 -58t-82 -23q-22 0 -30 11t-8 29q0 24 15 54.5t36 61.5t42.5 59t34.5 46q37 31 71 60t70.5 60.5t77 69t90.5 84.5q25 24 51.5 49.5t48 49.5t35.5 45.5t14 37.5q0 9 -6.5 14.5t-16.5 5.5q-29 0 -71 -28t-91.5 -73.5t-104 -104.5t-108.5 -121q-30 -35 -62 -72
t-59.5 -71.5t-49.5 -63.5t-33 -47q-24 -21 -58 -48t-70.5 -51t-73 -40t-64.5 -16q-20 0 -36 10t-16 34q0 28 21.5 64t53.5 75.5t69 79t68 74.5q36 40 66.5 75.5t53 69.5t35.5 67.5t13 70.5q0 49 -22.5 85t-59.5 60t-84 35.5t-95 11.5q-50 0 -99.5 -9.5t-94 -25t-83 -35
t-66.5 -38.5q-48 -33 -87.5 -69.5t-68 -76.5t-44.5 -82.5t-16 -87.5q0 -76 49.5 -118.5t134.5 -42.5q55 0 120.5 23.5t121.5 72.5q47 41 80 89t33 98q0 44 -29.5 65.5t-70.5 21.5q-46 0 -83 -18.5t-56 -37.5q-5 -5 -10 -11.5t-3 -8.5t4 2t13 14q20 19 56 35t78 16
q37 0 59 -19.5t22 -54.5q0 -48 -29 -92t-74 -85q-60 -55 -121.5 -78t-111.5 -23q-81 0 -124.5 41.5t-43.5 109.5q0 46 15.5 88.5t43 81t66 73.5t84.5 67q26 18 64.5 37t83.5 34t93 25t95 10q38 0 77 -8t70.5 -26t51.5 -47.5t20 -71.5q0 -39 -18 -80.5t-46 -81t-60.5 -76.5
t-61.5 -68q-45 -49 -79.5 -87.5t-57.5 -71.5t-35 -61.5t-12 -57.5q0 -39 24.5 -57t56.5 -18q30 0 65.5 15t71 37.5t68 48t55.5 45.5q-11 -15 -17.5 -34.5t-6.5 -36.5q0 -44 24 -60.5t58 -16.5h1zM927 264q26 33 50 63.5t49.5 61t53 63t59.5 68.5q28 31 57.5 65t57.5 62.5
t52 46.5t41 18q11 0 11 -12q0 -11 -12.5 -30.5t-33 -43.5t-46 -51t-52.5 -52q-92 -88 -166.5 -153.5t-120.5 -105.5zM1252 873q-1 -26 -63 -54q-59 -28 -93 -28q-18 0 -37.5 10t-21.5 23q-4 17 -3 27.5t6 16.5t11.5 8.5t9.5 2.5q30 0 30 -20t-32 -36q8 -18 39 -18
q32 0 93 34l59 35q1 0 2 -1z" />
    <glyph glyph-name="afii10028" unicode="&#x41a;" horiz-adv-x="1459" 
d="M333 -93q-75 -1 -141.5 17t-114 54.5t-71 91.5t-12.5 128q10 72 51.5 131t101.5 101t132 65t144 23q46 0 88 -11t72.5 -33t46.5 -54.5t11 -75.5q-5 -42 -33 -77t-68 -60.5t-85.5 -39.5t-85.5 -15q-45 -1 -80 9.5t-53 33.5q-8 10 -10 18.5t1 10.5q2 1 3.5 -6.5t10.5 -16.5
q26 -26 58.5 -32.5t73.5 -5.5q37 0 75.5 14.5t70.5 39.5t54 57.5t27 70.5q5 40 -5 71t-33.5 52t-58.5 31.5t-80 10.5q-71 0 -138.5 -23t-122.5 -64.5t-91.5 -98.5t-45.5 -125q-9 -73 11 -126.5t62.5 -89t103.5 -52t133 -15.5q98 1 180.5 28.5t156.5 76.5t142.5 116.5
t138.5 149.5q27 32 54.5 64.5t53 63t48.5 57t41 46.5q-30 -18 -59.5 -24.5t-58.5 -6.5q-34 0 -62.5 11t-47.5 31t-27 47.5t-2 60.5q7 37 30.5 73t55.5 64.5t68.5 46t69.5 17.5q35 0 56 -19t16 -54q-4 -31 -20.5 -59.5t-39.5 -54t-49.5 -47t-50.5 -37.5q-5 -3 -12 -7t-8 -2
t2.5 4.5t13.5 9.5q23 16 46 37t42.5 46t33.5 53t19 59q5 28 -10 45.5t-41 17.5q-32 0 -62.5 -17t-56 -45t-43.5 -62.5t-24 -69.5q-12 -64 15 -102.5t91 -38.5q39 0 70 10.5t64 36.5q23 17 49 44.5t50 50.5q16 15 30 25t29 10q13 0 13 -12q0 -8 -7 -15t-18 -16
q-17 -13 -39 -30t-43 -36q-23 -21 -48.5 -52t-51.5 -67t-52.5 -74t-52.5 -72q-75 -98 -153.5 -171t-164 -121.5t-179 -73t-198.5 -25.5zM1108 309q15 0 33 5q-14 9 -32 9q-5 0 -12.5 -1t-7.5 -6q0 -4 5.5 -5.5t12.5 -1.5h1zM1130 -36q-22 0 -40.5 6.5t-31.5 19t-19 31.5
t-1 45q5 29 21 54.5t36 51.5q19 24 38.5 47.5t24.5 49.5q4 22 -9 37q-26 -6 -53 -6q-31 0 -29 16q1 8 12.5 12t31.5 3q25 -2 43 -13q28 10 54 31.5t50.5 48t48.5 55.5t49 54q44 45 90 85.5t94 70.5t99 48t105 18q27 0 51 -7t40.5 -20.5t24.5 -33.5t3 -46q-6 -35 -34.5 -63.5
t-66.5 -48.5t-80 -31t-75 -11q-20 0 -38 2t-32 7q-5 2 -8.5 4t-2.5 4t4.5 0t8.5 -3q17 -4 34 -5t35 -1q32 0 71 10.5t74 30t60.5 47.5t31.5 62q8 48 -20 71t-82 23t-100 -19.5t-85 -49t-71.5 -63.5t-60.5 -63q-33 -34 -64.5 -67.5t-63 -62t-64.5 -51t-69 -34.5
q14 -11 21 -28.5t3 -38.5q-5 -26 -18.5 -50.5t-32.5 -53.5q-18 -28 -29.5 -48t-16.5 -49t8 -47.5t45 -18.5q19 0 43.5 7t51.5 20.5t55 32t55 41.5q44 38 72.5 79.5t35.5 73.5q6 29 -7 43t-39 14q-29 0 -59.5 -14.5t-58.5 -37.5q-21 -17 -42.5 -42.5t-32.5 -43.5
q-7 -13 -9 -12q-3 2 4 15q9 17 29.5 42t44.5 47q26 24 60 41.5t67 17.5t52 -17t11 -54q-8 -35 -42.5 -77t-77.5 -80q-26 -23 -55 -43t-58.5 -34.5t-58.5 -22.5t-55 -8h-1z" />
    <glyph glyph-name="afii10030" unicode="&#x41c;" horiz-adv-x="1814" 
d="M480 -113q-88 0 -174.5 19t-154 63.5t-108 116.5t-37.5 178q2 68 27 128.5t67 111t98 90.5t121 68t135.5 42.5t142.5 14.5q56 0 112 -14t100.5 -42t72.5 -70t28 -97q0 -72 -36.5 -131t-93 -101.5t-125.5 -65.5t-134 -23q-33 0 -66.5 8.5t-60 25.5t-43.5 42.5t-17 59.5
q0 41 17.5 69.5t37.5 43.5q13 10 15 8q1 -1 -3.5 -4.5t-8.5 -7.5q-21 -22 -32.5 -46.5t-11.5 -59.5q0 -30 16 -52t41 -36t56.5 -21t63.5 -7q63 0 129.5 21t121.5 60t90 94t35 123q0 54 -27 94t-70.5 66.5t-97.5 40t-108 13.5q-104 0 -202.5 -32.5t-175 -91.5t-124 -141.5
t-49.5 -181.5q-2 -96 33 -165.5t95 -114t139.5 -66t166.5 -21.5q99 0 189 20.5t175 58.5t165.5 92.5t160.5 122.5q73 63 142 132.5t134.5 136.5t126.5 125.5t120 99.5q15 11 29.5 17.5t27.5 4.5q21 -3 23.5 -21.5t-6.5 -40.5q-6 -15 -27 -45t-49.5 -67.5t-60.5 -80
t-62 -82.5q-38 -52 -79 -107.5t-76.5 -105t-61.5 -89t-34 -59.5q-3 -8 -4.5 -17t6.5 -11q7 -2 14.5 3.5t15.5 13.5q74 73 149.5 165t170.5 196q47 52 88 98t80 88t79 80t85 74q12 10 25 15.5t26 2.5q14 -3 18 -16t-1 -29q-7 -25 -25.5 -56t-44 -66.5t-55.5 -74.5t-60 -79
q-29 -39 -59.5 -81t-58.5 -83t-52.5 -79.5t-42.5 -69.5q-14 -23 -22 -41.5t-10 -30.5q-4 -35 26 -40q21 -3 52.5 8.5t55.5 31.5q10 8 13 12t5 2q3 -3 -13 -17q-20 -19 -51 -34t-66 -15t-52 18t-15 46q2 36 32 92q27 51 70 114t91 124q36 46 77.5 98t77.5 98.5t61.5 81.5
t30.5 46q7 17 0 22q-6 4 -16 -1t-19 -13q-42 -35 -81 -73t-77.5 -79.5t-78.5 -87t-85 -94.5q-47 -52 -93.5 -106t-88.5 -103.5t-78.5 -90t-63.5 -65.5q-14 -14 -26 -21.5t-25 -6.5q-15 1 -24 11.5t-7 29.5q2 16 11 39t21 45q21 37 42.5 69t44.5 62.5t48 62.5t53 70
q33 46 61.5 82.5t55.5 71.5t55.5 72t61.5 84q8 11 11.5 19.5t-1.5 12.5q-11 7 -37 -12q-38 -26 -79 -63.5t-84.5 -80.5t-88.5 -90t-89.5 -93.5t-87.5 -90t-84 -79.5q-80 -71 -162 -125.5t-169 -91.5t-180 -56t-194 -19h-1z" />
    <glyph glyph-name="afii10031" unicode="&#x41d;" horiz-adv-x="1443" 
d="M1431 388q117 35 205 79q36 18 71.5 39.5t64 46t46.5 50t18 51.5q0 14 -9.5 24t-27.5 10q-28 0 -55 -10t-53 -27.5t-52.5 -41.5t-54.5 -52q-48 -48 -84.5 -87.5t-68.5 -81.5zM601 -66q42 0 80 14t71 36.5t61.5 50t52.5 55.5q25 29 62 80t80 109q-77 -19 -148 -42
t-149 -56q-90 -38 -140.5 -85t-48.5 -104q3 -58 78 -58h1zM587 -76q-17 0 -34.5 3t-32 11t-24.5 21t-11 33q-2 29 15.5 56.5t48.5 52.5t72 47t85 41q81 35 156.5 58.5t153.5 42.5l58 76t57 72q44 53 90 96t87 73q-45 -17 -91.5 -25t-106.5 -10q-47 -1 -88 2.5t-79.5 11.5
t-76 20t-77.5 27q-51 19 -93 35t-83 27t-84.5 17.5t-97.5 6.5q-40 0 -85.5 -6t-90 -19t-85.5 -33.5t-72.5 -49t-50 -66t-18.5 -84.5q0 -63 32 -106.5t83 -70.5t113.5 -38.5t124.5 -11.5q60 0 120.5 12t109 35t79 56.5t30.5 75.5q0 39 -20 65t-51.5 42t-71 22.5t-79.5 6.5
q-47 0 -89.5 -10t-74.5 -28q-8 -4 -11.5 -7.5t-4.5 -1.5t3.5 6t8.5 7q29 23 73.5 38t95.5 15q42 0 83 -8.5t74 -27t53 -48t20 -71.5q0 -45 -30.5 -81.5t-79.5 -62.5t-111.5 -40t-126.5 -14q-63 0 -127.5 14t-116.5 43.5t-85 76t-33 112.5q0 72 41 124t103 85.5t134.5 49.5
t135.5 16q60 0 108 -5t91 -15t85.5 -23.5t91.5 -29.5q39 -13 74 -27t70 -25.5t72.5 -19t81.5 -8.5q50 -1 97.5 5.5t99.5 27.5q30 12 50 24t46 30q10 7 16.5 9.5t13.5 2.5q4 0 7.5 -3.5t1.5 -8.5q-2 -8 -12.5 -14t-28.5 -14q-17 -8 -32 -15t-31 -16q-29 -23 -55 -52.5
t-59 -73.5q-36 -48 -67 -91.5t-60 -85.5q29 6 59 12t62 13l72 16t71 18q42 52 83 95t74 74q34 32 74 62t80 53.5t78 37t68 13.5q22 0 38 -12t15 -38q-1 -24 -22.5 -50t-54.5 -51.5t-73.5 -49.5t-79.5 -43q-96 -47 -218 -83q-26 -34 -50.5 -71t-52.5 -82q-39 -64 -64.5 -112
t-27.5 -80q-1 -23 10 -33t28 -12q18 -2 44 8.5t64 39.5q9 6 19 14.5t19.5 16.5t18 15.5t13.5 12.5q4 4 9.5 8t7.5 2q2 -3 -8 -13q-4 -4 -13 -12.5t-20 -18.5t-22 -19t-18 -15q-76 -58 -126 -58q-38 0 -59.5 16.5t-19.5 52.5q1 18 5.5 35.5t14 38.5t23.5 46t33 57
q23 38 48.5 74t51.5 69q-32 -8 -66 -15.5t-66 -14.5q-35 -8 -67 -14t-62 -13q-35 -48 -69 -92.5t-74 -86.5q-38 -40 -80 -75.5t-87 -62t-92.5 -42t-97.5 -15.5h-1z" />
    <glyph glyph-name="afii10032" unicode="&#x41e;" horiz-adv-x="946" 
d="M440 305q73 15 163 38t185 59q37 14 72 33.5t63 42.5t45 48.5t18 51.5q2 41 -24 66.5t-71 25.5q-48 0 -96.5 -20t-96 -53.5t-92 -77.5t-83.5 -93q-25 -31 -45.5 -61t-37.5 -60zM510 -34q63 0 123 24.5t116 63.5q-33 41 -86 63t-115 22q-40 0 -84 -12t-82 -34
q2 -60 33 -93.5t94 -33.5h1zM395 -368q74 0 145.5 20t127.5 58.5t90 94t34 126.5q0 59 -29 103q-60 -35 -124.5 -56t-130.5 -21q-57 0 -103.5 28.5t-63.5 78.5q-28 -23 -45 -52t-17 -63q0 -13 3 -24t7 -20q2 -5 4.5 -8.5t1.5 -4.5q-3 -2 -10 9q-6 10 -10 23t-4 27
q0 38 18 68.5t48 55.5q-2 6 -3.5 18.5t-1.5 23.5q0 83 35 162q-68 -18 -128.5 -46.5t-106 -70.5t-72.5 -98.5t-29 -129.5q-2 -76 25.5 -133t77 -94.5t116.5 -56t144 -18.5h1zM392 -377q-79 0 -149 19t-121.5 57t-81 95t-27.5 134t31.5 136t78 102.5t112.5 73.5t136 49
q20 41 47.5 80.5t62.5 80.5q34 39 84.5 79.5t107 74t113 54.5t103.5 21q23 0 43 -7t34 -19.5t22 -31.5t7 -43q-1 -28 -18.5 -55t-46.5 -51t-65.5 -44t-74.5 -35q-91 -35 -185 -58.5t-170 -39.5q-25 -48 -38.5 -95t-14.5 -95q38 20 81.5 31.5t84.5 11.5q63 0 118.5 -22.5
t92.5 -64.5q38 28 73 61t66 67t57.5 67.5t47.5 63.5q17 24 34 54t30.5 63t22 68t8.5 69q0 24 -6 46.5t-18.5 39t-31.5 26.5t-45 10q-23 0 -42 -7q-5 -2 -7 -3.5t-3 -0.5q-2 1 6 6q9 5 21.5 8.5t26.5 3.5q28 0 52.5 -9t43.5 -27t30 -46.5t11 -67.5q0 -64 -27 -131t-67 -125
q-50 -72 -118 -139.5t-149 -116.5q16 -23 25 -50.5t9 -59.5q0 -72 -36 -129.5t-95 -97t-133.5 -60.5t-151.5 -21h-1z" />
    <glyph glyph-name="afii10033" unicode="&#x41f;" horiz-adv-x="1041" 
d="M985 437q-17 -17 -40.5 -48t-49 -68.5t-50 -78.5t-43.5 -78.5t-29.5 -68t-7.5 -47.5q4 -18 11 -28t29 -8q39 4 80 30.5t76 64.5q29 31 46 66t15 66q-1 14 -9.5 23t-23.5 7q-14 -1 -30 -9.5t-31 -21.5t-27.5 -29t-21.5 -31q-5 -11 -7 -16t-4 -3q-2 1 0 7.5t5 12.5
q9 17 22 34t29 31t33.5 23t34.5 11q21 2 34 -6.5t15 -31.5q2 -32 -18 -67.5t-54 -70.5q-39 -41 -81 -68.5t-86 -31.5l-1 -1q-33 -3 -58 11.5t-29 58.5q-2 37 15 78.5t46.5 86.5t67 92t76.5 94.5t76.5 94t66 90t45.5 83.5t15 74q-2 24 -18.5 33t-36.5 7q-28 -3 -68 -23
t-81.5 -48t-79 -59t-59.5 -54l-8 -8q-24 -49 -61 -102t-79 -109q-10 -14 -19.5 -27t-18.5 -26q-50 -66 -101 -130t-97.5 -114t-87 -81.5t-69.5 -34.5q-21 -2 -23 18q-1 16 11.5 38.5t32.5 48.5t44.5 54t47.5 54q90 100 169.5 181t147.5 148q19 29 36 59.5t29.5 60.5t19 60
t3.5 57q-5 42 -28 68.5t-56 40t-72.5 16t-77.5 -3.5q-47 -6 -94.5 -22t-90.5 -37.5t-79.5 -45.5t-60.5 -45q-42 -38 -76.5 -77.5t-58 -81t-34 -85.5t-5.5 -90q7 -67 55.5 -102.5t127.5 -24.5q51 7 110 38t113 94q39 46 63.5 93.5t19.5 95.5q-5 35 -29 51t-59 11
q-43 -6 -77.5 -27t-51.5 -42q-11 -11 -12.5 -15t-3.5 -2q-2 0 2 7.5t9 13.5q8 10 21.5 22t30.5 22.5t37 18.5t43 11q42 5 73.5 -12.5t37.5 -59.5q5 -50 -23 -102t-70 -99q-25 -28 -54 -50t-59 -38t-60 -26t-57 -14q-86 -11 -140 24.5t-62 110.5q-5 44 6.5 88t35.5 87.5
t59.5 85t79.5 80.5q25 23 61 47t79 45.5t91.5 37.5t98.5 23q48 7 95 1.5t85.5 -24t65.5 -51t35 -80.5q7 -48 -19 -110l5 5q22 22 57.5 51.5t76 55.5t80.5 45.5t70 22.5q16 1 31.5 -1.5t27.5 -11t19 -22t7 -33.5q-1 -35 -12 -67.5t-32.5 -68.5t-52.5 -78t-73 -94zM604 439
q8 11 17.5 23.5t18.5 25.5l-8 -8q-44 -44 -114 -116t-156 -168q-25 -27 -49.5 -56.5t-43 -55.5t-29.5 -47t-10 -31q-2 -12 12 -10q17 1 39.5 21.5t48.5 51t53 67t53 70.5q43 56 76.5 102.5t65.5 93.5q6 9 8.5 12.5t4 5.5t4 5.5t9.5 13.5z" />
    <glyph glyph-name="U" unicode="U" horiz-adv-x="1078" 
d="M821 -28q-34 0 -58 16.5t-24 60.5q0 17 6.5 36.5t17.5 34.5q-23 -20 -55.5 -45.5t-68 -48t-71 -37.5t-65.5 -15q-32 0 -56.5 18t-24.5 57q0 29 12 57.5t35 61.5t57.5 71.5t79.5 87.5q29 31 61.5 68t60.5 76.5t46 81t18 80.5q0 42 -20 71.5t-51.5 47.5t-70.5 26t-77 8
q-47 0 -95 -10t-93 -25t-83.5 -34t-64.5 -37q-46 -32 -84.5 -67t-66 -73.5t-43 -81t-15.5 -88.5q0 -68 43.5 -109.5t124.5 -41.5q50 0 111.5 23t121.5 78q45 41 74 85t29 92q0 35 -22 54.5t-59 19.5q-42 0 -78 -16t-56 -35q-11 -10 -13 -14t-4 -2t3 8.5t10 11.5
q19 19 56 37.5t83 18.5q41 0 70.5 -21.5t29.5 -65.5q0 -50 -33 -98t-80 -89q-56 -49 -121.5 -72.5t-120.5 -23.5q-85 0 -134.5 42.5t-49.5 118.5q0 45 16 87.5t44.5 82.5t68 76.5t87.5 69.5q28 19 66.5 38.5t83 35t94 25t99.5 9.5q48 0 95 -11.5t84 -35.5t59.5 -60t22.5 -85
q0 -37 -13 -70.5t-35.5 -67.5t-53 -69.5t-66.5 -75.5q-31 -35 -68 -74.5t-69 -79t-53.5 -75.5t-21.5 -64q0 -24 16 -34t36 -10q28 0 64.5 16t73 40t70.5 51t58 48q11 18 33 47t49.5 63.5t59.5 71.5t62 72q54 62 108.5 121t104 104.5t91.5 73.5t71 28q10 0 16.5 -5.5
t6.5 -14.5q0 -16 -14 -37.5t-35.5 -45.5t-48 -49.5t-51.5 -49.5q-50 -47 -90.5 -84.5t-77 -69t-70.5 -60.5t-71 -60q-13 -18 -34.5 -46t-42.5 -59t-36 -61.5t-15 -54.5q0 -18 8 -29t30 -11q40 0 82 23t80 58q30 28 49.5 61.5t19.5 64.5q0 14 -7.5 23.5t-22.5 9.5t-31.5 -7
t-32 -18.5t-29.5 -26t-23 -29.5q-7 -11 -9 -15.5t-4 -2.5q-2 1 0.5 7.5t6.5 12.5q10 16 24 32t30.5 28.5t34.5 20t35 7.5q22 0 34.5 -10t12.5 -33q0 -32 -23 -65.5t-58 -65.5q-42 -37 -85 -61t-87 -24h-1zM927 264q46 40 120.5 105.5t166.5 153.5q27 25 52.5 52t46 51
t33 43.5t12.5 30.5q0 12 -11 12q-17 0 -41 -18t-52 -46.5t-57.5 -62.5t-57.5 -65q-32 -36 -59.5 -68.5t-53 -63t-49.5 -61t-50 -63.5z" />
    <glyph glyph-name="afii10034" unicode="&#x420;" horiz-adv-x="1580" 
d="M458 -18q38 0 90.5 2.5t108 6t109.5 8t95 9.5q-83 10 -171 21t-170 20.5t-152 16t-116 7.5q-109 2 -164.5 -7t-55.5 -34q0 -18 37 -28t97 -15t136.5 -6t154.5 -1h1zM456 -28q-80 0 -159.5 1t-143.5 6.5t-103.5 17.5t-39.5 35q0 31 64.5 41.5t178.5 8.5q72 -2 154 -8.5
t172 -15.5t186 -18t197 -15q29 7 54 14.5t49 18t48.5 24t51.5 31.5q48 32 83 67t66 74t62.5 82.5t72.5 92.5q75 89 145 145t142 98q-34 36 -90.5 52.5t-119.5 16.5q-54 0 -107 -10t-104 -27t-98 -41t-87 -52q-39 -27 -74 -59t-61 -66.5t-41 -70t-15 -69.5q0 -57 32 -86.5
t86 -29.5t107.5 27.5t91.5 82.5q20 29 32.5 58t12.5 56q0 29 -14.5 50.5t-46.5 21.5q-16 0 -29 -5l-7 -3q-1 1 5 5q14 9 34 9q35 0 60.5 -22.5t25.5 -60.5q0 -35 -15.5 -66.5t-41.5 -59.5q-48 -51 -103 -76.5t-112 -25.5q-59 0 -93.5 32.5t-34.5 92.5q0 38 14.5 76.5
t40 74.5t61 69.5t76.5 60.5q42 28 90 50.5t100 38.5t106.5 25t108.5 9q61 0 121 -17t100 -55q25 14 54 26.5t59.5 21.5t62 14.5t61.5 5.5q20 0 20 -5q-1 -3 -5 -2.5t-15 0.5q-28 0 -58.5 -6t-60.5 -15.5t-58 -22t-51 -25.5q39 -40 43 -100q2 -40 -16.5 -79t-50.5 -71
q-38 -35 -87.5 -57t-93.5 -22q-15 0 -28.5 6.5t-13.5 20.5q0 13 12.5 23.5t28.5 16.5q12 4 12 3l-11 -6t-18.5 -14.5t-7.5 -21.5q0 -12 10 -16.5t24 -4.5q18 0 38 7t40.5 19t40 29t35.5 37q28 33 43.5 72t13.5 77q-3 44 -27 74q-68 -42 -127.5 -108t-119.5 -143
q-38 -49 -69 -88t-60 -71.5t-59 -60.5t-66 -55q-63 -48 -124.5 -72.5t-124.5 -41.5q42 -2 84 -3t85 -1t83 0.5t76 4.5t69.5 13t63.5 26q42 23 70.5 58t39.5 76q5 16 5 22t3 6t2 -10.5t-3 -21.5q-11 -43 -36.5 -80t-71.5 -66q-58 -35 -134.5 -50.5t-170.5 -15.5
q-42 0 -110.5 6.5t-152.5 16.5q-50 -8 -109.5 -14t-119 -10t-114 -6t-95.5 -2h-1z" />
    <glyph glyph-name="afii10035" unicode="&#x421;" horiz-adv-x="558" 
d="M228 -30q23 0 50.5 6.5t55 18t54.5 27.5t49 36q25 22 46 46t36 47t23.5 44.5t8.5 38.5q0 21 -13 31.5t-35 10.5q-20 0 -44 -9t-49 -26t-50.5 -40.5t-47.5 -52.5q-14 -18 -27.5 -41t-25 -47t-19.5 -47.5t-12 -42.5zM307 396q78 8 157.5 25t146.5 47q87 38 132 83.5
t45 90.5q0 17 -10.5 27.5t-31.5 10.5q-33 0 -72.5 -15t-81.5 -39t-84 -54.5t-80 -62t-69.5 -61.5t-51.5 -52zM222 -135q-3 -3 -6 12q-4 20 -3 41t4 43q-21 0 -43.5 6.5t-42 20.5t-32 36t-12.5 55q0 40 11.5 80.5t30.5 79t44.5 75t54.5 69.5h-27q-64 0 -131.5 9.5
t-130.5 29.5t-118.5 50.5t-97.5 72t-66 95t-24 118.5q0 89 44 155.5t113.5 111t155 66.5t167.5 22q61 0 122.5 -13t111 -40.5t80 -69t30.5 -98.5t-28 -101t-71.5 -73.5t-96 -44.5t-102.5 -15q-24 0 -45.5 4.5t-37.5 15.5q33 -11 82 -11t100 15t92.5 43.5t67.5 71t26 97.5
q0 54 -30.5 93.5t-78 65.5t-106.5 38.5t-116 12.5q-53 0 -106.5 -10t-102.5 -30t-91.5 -49.5t-74 -68.5t-49.5 -87t-18 -105q0 -99 47 -168t123 -112t171.5 -62.5t193.5 -19.5h30q23 25 58.5 57t79 65t92.5 64.5t99 56t98 39.5t90 15q31 0 48 -16t17 -39t-17 -47
t-44.5 -46.5t-61.5 -42.5t-68 -35q-72 -32 -158.5 -50.5t-170.5 -25.5q-30 -34 -59 -71t-52 -77.5t-37.5 -84t-14.5 -89.5q0 -48 24.5 -70.5t59.5 -24.5q4 21 12 45t19.5 48t25 47.5t29.5 43.5q22 28 48 52t52 41t51.5 26.5t48.5 9.5t43.5 -11.5t20.5 -43.5q0 -24 -10 -47.5
t-26.5 -46t-39 -44t-47.5 -42.5q-48 -39 -107 -63t-113 -24q-5 -22 -6 -42t1 -40q1 -9 2 -11t-1 -3z" />
    <glyph glyph-name="afii10036" unicode="&#x422;" horiz-adv-x="1418" 
d="M1450 804q-27 0 -67.5 -20t-83.5 -48.5t-81.5 -60t-61.5 -55.5q-2 -2 -3.5 -4t-4.5 -5q-25 -49 -62 -101.5t-78 -108.5q-53 -73 -109 -145.5t-108.5 -131t-98.5 -96t-77 -40.5q-22 0 -23 18q0 16 12.5 39t32 48.5t43.5 53t48 54.5q45 50 85.5 93.5t78 82t73 73.5t70.5 68
q19 29 37 59t31.5 60.5t21.5 60.5t8 59q0 13 -5.5 22t-14.5 14.5t-19.5 8t-20.5 2.5q-27 0 -67.5 -20t-83.5 -48.5t-81.5 -60t-61.5 -55.5q-2 -2 -3.5 -4t-4.5 -5q-25 -49 -62 -101.5t-78 -108.5q-53 -73 -109 -145.5t-108.5 -131t-98.5 -96t-77 -40.5q-22 0 -23 18
q0 16 12.5 39t32 48.5t43.5 53t48 54.5q46 51 87 95t79.5 83t74 74.5t71.5 69.5q37 55 65.5 113.5t28.5 113.5q0 39 -16 66.5t-41.5 44t-58 24t-66.5 7.5q-52 0 -107 -15t-105.5 -37.5t-94 -49.5t-71.5 -52q-79 -69 -127.5 -145.5t-48.5 -160.5q0 -72 39.5 -114.5
t112.5 -42.5q27 0 58 7t64.5 23t67.5 41.5t66 62.5q36 43 60 86.5t24 88.5q0 37 -20.5 57t-52.5 20q-24 0 -46 -7t-41 -17.5t-34 -23t-24 -22.5l-15 -18l-1 1q-1 0 -1 1q0 7 13 22.5t35.5 31.5t52 28.5t62.5 12.5q38 0 65.5 -21t27.5 -66q0 -47 -27.5 -95t-66.5 -92
q-30 -33 -65 -58t-70.5 -41t-70 -24t-63.5 -8q-75 0 -119.5 42t-44.5 120q0 41 13 82.5t37 81.5t57.5 78.5t74.5 74.5q28 25 70.5 53t93.5 51t107 38t113 15q41 0 82 -10.5t73.5 -33t53 -56.5t20.5 -80q0 -21 -5.5 -43t-15.5 -45q1 2 2 2.5t3 2.5q23 24 61 54.5t80 57
t83.5 45t70.5 18.5q14 0 30.5 -4t30.5 -14.5t24.5 -28t12.5 -45.5q0 -21 -5.5 -43t-15.5 -45q1 2 2 2.5t3 2.5q23 24 61 54.5t80 57t83.5 45t70.5 18.5t51.5 -15.5t22.5 -50.5t-11 -68t-32.5 -69.5t-53.5 -78.5t-73 -94q-16 -17 -38.5 -46.5t-47 -65.5t-49 -75t-43.5 -75.5
t-31 -68t-12 -50.5q0 -20 8.5 -32.5t25.5 -12.5q33 0 72 21.5t72.5 54.5t56.5 72t23 73q0 16 -7 26.5t-22 10.5q-14 0 -30.5 -8t-32 -21t-29 -29.5t-22.5 -32.5q-5 -10 -6.5 -14.5t-3.5 -4.5t-2 2q0 3 2 8l4 10q9 19 23.5 36.5t31.5 31.5t35.5 22.5t36.5 8.5q19 0 30 -10.5
t11 -33.5q0 -32 -24 -71t-59.5 -74t-77.5 -59.5t-78 -27.5l-1 -1q-4 -1 -12 -1q-29 0 -52 17t-23 60q0 48 30 105t75.5 117.5t98.5 122.5t98.5 121.5t75.5 114t30 99.5q0 26 -14.5 36.5t-34.5 10.5zM578 402q12 18 26.5 38.5t30.5 42.5l-3 -3l-53.5 -53.5t-81.5 -82.5
t-92 -97.5t-86 -98.5t-64 -85.5t-25 -58.5q0 -8 10 -8q16 0 39 19.5t49 50.5t54 68t54 72q43 56 76.5 102.5t65.5 93.5zM955 402q12 17 26 37t29 42l-1 -1l-53.5 -53.5t-81.5 -82.5t-92 -97.5t-86 -98.5t-64 -85.5t-25 -58.5q0 -8 10 -8q16 0 39 19.5t49 50.5t54 68t54 72
q43 56 76.5 102.5t65.5 93.5z" />
    <glyph glyph-name="afii10037" unicode="&#x423;" horiz-adv-x="738" 
d="M-616 -1063q54 0 114.5 18.5t124.5 51t128 78t125 99.5q85 76 158.5 150.5t141.5 155t135 169.5t139 194q-81 -14 -163 -36.5t-159.5 -51.5t-148.5 -63t-132 -69q-74 -43 -145.5 -91.5t-135.5 -100t-118 -104.5t-93.5 -104.5t-61.5 -101.5t-22 -94q0 -48 31.5 -74
t80.5 -26h1zM-618 -1073q-29 0 -56 7t-48 21t-34 36.5t-13 54.5q0 44 24 93t66 100t100 103.5t126 103.5t142.5 100t151.5 94q62 36 134.5 71t152 64.5t163 52.5t167.5 36q59 87 104 160t84 139q-30 -29 -62 -56.5t-64.5 -49t-64 -34.5t-60.5 -13q-27 0 -44 16t-17 48
q0 27 15 57.5t38 62t51.5 64t55.5 65.5q22 27 45 55t41 57.5t29.5 60.5t11.5 64q0 34 -13 58t-35 39.5t-50 22.5t-59 7q-35 0 -72 -8t-73 -23t-70 -35.5t-62 -45.5q-57 -49 -89 -105.5t-32 -124.5q0 -48 30 -79t79 -31q39 0 77.5 16t70 43.5t52.5 65t26 79.5q2 23 -8 40
t-37 17q-19 0 -36.5 -7t-25.5 -14q-7 -5 -9.5 -8.5t-4.5 -1.5q-1 1 1.5 4.5t7.5 8.5q11 11 30.5 20t39.5 9q29 0 49 -17.5t17 -52.5q-3 -44 -28.5 -82t-62 -67t-79 -45.5t-80.5 -16.5q-58 0 -95 30.5t-37 86.5q0 35 10.5 67.5t29 62t43.5 57t55 53.5q27 23 61.5 44.5
t72.5 37.5t77.5 25.5t75.5 9.5q42 0 78.5 -10t63.5 -29.5t42.5 -48t15.5 -65.5q0 -33 -13 -66t-34.5 -67.5t-49.5 -69.5t-59 -72q-24 -29 -47.5 -58t-42 -57.5t-30.5 -55t-12 -49.5q0 -13 9 -20.5t23 -7.5q16 0 33 5.5t34.5 14.5t34.5 20.5t32 23.5q21 17 37.5 30.5t31.5 28
t29.5 30.5t31.5 39q22 29 41.5 55.5t39 53.5t40 55.5t45.5 61.5q47 62 80.5 104t64.5 78q9 11 23 23t27 10q8 -2 11 -8t1 -14q-2 -7 -11.5 -15.5t-20.5 -22.5q-54 -68 -100.5 -130t-88.5 -121q-48 -69 -88 -129.5t-76 -117.5t-71.5 -113t-75.5 -114q32 3 62.5 5t61.5 2
q64 0 127.5 -9t121.5 -28.5t108 -49.5t86.5 -73t57.5 -99.5t21 -127.5q0 -67 -21 -129t-58.5 -116t-89 -98.5t-113 -77t-130.5 -50.5t-141 -19q-62 -1 -122 13t-107 44t-76.5 76.5t-29.5 112.5q0 60 24 111t63.5 91t89.5 68t101 41q9 2 17 3t8 -1q0 -3 -4.5 -3.5t-17.5 -4.5
q-51 -14 -97 -42.5t-81 -68t-55.5 -90t-20.5 -108.5q0 -61 26.5 -105.5t69.5 -73t98.5 -42t114.5 -12.5q106 2 198.5 40t161 103t108 152t39.5 188t-39.5 172.5t-105.5 116.5t-152 66t-180 21q-32 0 -65 -2t-66 -6q-26 -38 -54.5 -77t-61.5 -81q-65 -83 -122.5 -153
t-116 -133.5t-123.5 -123.5t-145 -123q-65 -51 -130.5 -95.5t-130 -77.5t-126 -52t-117.5 -19h-1z" />
    <glyph glyph-name="afii10039" unicode="&#x425;" horiz-adv-x="924" 
d="M677 380q36 13 67 25t61 24.5t61 26.5t67 32q32 16 63.5 35t57 40.5t42 46.5t18.5 54q2 24 -13.5 34.5t-39.5 10.5q-27 0 -55.5 -11.5t-56.5 -28.5t-53 -38t-46 -41q-27 -27 -49.5 -50.5t-43 -48.5t-40 -51.5t-40.5 -59.5zM87 -25q44 -2 99.5 18t132.5 68q48 29 104 73
t109 106q13 24 28.5 48.5t32.5 50.5q-100 -36 -191.5 -69t-178.5 -75q-80 -38 -130 -82.5t-50 -96.5q0 -21 14.5 -30.5t29.5 -10.5zM85 -36q-32 1 -53 14t-19 43q1 27 20.5 53t49.5 50t67.5 45t75.5 38q45 21 90 39t91 35t94 34t100 36q18 27 40.5 59.5t42.5 67t34.5 68.5
t16.5 64q3 44 -20.5 65t-70.5 21q-25 0 -55.5 -6.5t-62 -18t-62.5 -28t-57 -35.5q-21 -16 -42.5 -36.5t-39 -44t-28.5 -48t-12 -48.5q-3 -66 64 -66q47 0 85.5 21.5t64.5 44.5q10 9 13 13.5t5 2.5t-3.5 -9t-11.5 -13q-12 -11 -28 -23.5t-36.5 -22.5t-43.5 -16.5t-48 -6.5
q-18 0 -34 5t-28 15t-19 25t-6 35q1 25 12.5 49t29.5 46t41 42.5t49 39.5q28 20 62 37t68 29t66 19t57 7q31 0 57.5 -6.5t44.5 -20.5t27 -36t7 -53q-1 -15 -5.5 -33.5t-9.5 -31.5q27 31 63 65.5t75.5 62.5t81 46.5t79.5 18.5q15 0 28 -3t22.5 -9.5t15 -18.5t4.5 -30
q-2 -27 -20.5 -51.5t-46.5 -46.5t-63 -42t-69 -37q-36 -18 -68.5 -32.5t-64 -27.5t-64 -25.5t-69.5 -26.5q-26 -39 -49 -74.5t-41 -70t-29.5 -69t-14.5 -71.5q-3 -45 16.5 -66.5t68.5 -19.5q26 1 55 10t58 24t57 34.5t52 39.5q36 31 61 60t40.5 55t23.5 47.5t11 36.5
q5 25 -6.5 45t-39.5 20q-34 0 -66 -16.5t-64 -44.5q-13 -11 -25.5 -25t-23 -27.5t-18.5 -25.5t-12 -20q-8 -17 -9 -24t-3 -7t-1 8t7 24q8 19 28.5 48.5t50.5 55.5q35 29 67.5 46.5t69.5 17.5q34 0 52 -24.5t14 -56.5q-5 -38 -39 -88.5t-111 -114.5q-25 -21 -53.5 -40
t-59 -34t-60.5 -24t-58 -10q-60 -2 -97.5 25t-33.5 89q3 45 25 97q-42 -39 -89.5 -75.5t-101.5 -69.5q-76 -47 -132 -68t-104 -20z" />
    <glyph glyph-name="afii10040" unicode="&#x426;" horiz-adv-x="1151" 
d="M1158 89q-48 -26 -93.5 -50t-90.5 -46q-4 -10 -8.5 -21t-9.5 -25q-20 -47 -46.5 -95.5t-57 -88t-65.5 -64.5t-71 -25q-32 0 -54 16q-17 12 -25.5 30.5t-5.5 38.5q4 29 26 57t51 45q6 4 31.5 17.5t61.5 32.5t79.5 42t86.5 46q6 14 11.5 28t13.5 28q-42 -37 -84 -60
t-86 -23h-1q-34 0 -58 16.5t-24 60.5q0 17 6.5 36.5t17.5 34.5q-23 -20 -55.5 -45.5t-68 -48t-71 -37.5t-65.5 -15q-32 0 -56.5 18t-24.5 57q0 29 12 57.5t35 61.5t57.5 71.5t79.5 87.5q29 31 61.5 68t60.5 76.5t46 81t18 80.5q0 42 -20 71.5t-51.5 47.5t-70.5 26t-77 8
q-47 0 -95 -10t-93 -25t-83.5 -34t-64.5 -37q-46 -32 -84.5 -67t-66 -73.5t-43 -81t-15.5 -88.5q0 -68 43.5 -109.5t124.5 -41.5q50 0 111.5 23t121.5 78q45 41 74 85t29 92q0 35 -22 54.5t-59 19.5q-42 0 -78 -16t-56 -35q-9 -8 -12 -12.5t-4 -4.5t-1 2q0 7 12.5 19.5
t33.5 25t48.5 21.5t57.5 9q41 0 70.5 -21.5t29.5 -65.5q0 -50 -33 -98t-80 -89q-56 -49 -121.5 -72.5t-120.5 -23.5q-85 0 -134.5 42.5t-49.5 118.5q0 45 16 87.5t44.5 82.5t68 76.5t87.5 69.5q28 19 66.5 38.5t83 35t94 25t99.5 9.5q48 0 95 -11.5t84 -35.5t59.5 -60
t22.5 -85q0 -37 -13 -70.5t-35.5 -67.5t-53 -69.5t-66.5 -75.5q-31 -35 -68 -74.5t-69 -79t-53.5 -75.5t-21.5 -64q0 -24 16 -34t36 -10q28 0 64.5 16t73 40t70.5 51t58 48q11 18 33 47t49.5 63.5t59.5 71.5t62 72q54 62 108.5 121t104 104.5t91.5 73.5t71 28
q10 0 16.5 -5.5t6.5 -14.5q0 -16 -14 -37.5t-35.5 -45.5t-48 -49.5t-51.5 -49.5q-50 -47 -90.5 -84.5t-77 -69t-70.5 -60.5t-71 -60q-13 -18 -34.5 -46t-42.5 -59t-36 -61.5t-15 -54.5q0 -18 8 -29t30 -11q40 0 82 23t80 58l16 15q3 5 14 23t24.5 38t28 35.5t24.5 15.5
q8 0 11.5 -4t3.5 -9q0 -8 -5.5 -17.5t-14 -18.5t-18 -18.5t-18.5 -17.5q-15 -15 -25.5 -25t-18.5 -20t-14.5 -22.5t-15.5 -32.5q34 18 65 34.5t55 29t38.5 21t16.5 10.5zM948 -49q4 10 7 19t7 17q-91 -47 -163.5 -86.5t-110.5 -70.5q-36 -29 -41 -57q-5 -24 16 -42
q26 -21 66 -21q35 0 66.5 21t59 54.5t51 77t42.5 88.5zM927 264q46 40 120.5 105.5t166.5 153.5q27 25 52.5 52t46 51t33 43.5t12.5 30.5q0 12 -11 12q-17 0 -41 -18t-52 -46.5t-57.5 -62.5t-57.5 -65q-32 -36 -59.5 -68.5t-53 -63t-49.5 -61t-50 -63.5z" />
    <glyph glyph-name="afii10041" unicode="&#x427;" horiz-adv-x="1078" 
d="M915 243q-13 -18 -34.5 -46t-42.5 -59t-36 -61.5t-15 -54.5q0 -18 8 -29t30 -11q40 0 82 23t80 58q30 28 49.5 61.5t19.5 64.5q0 14 -7.5 23.5t-22.5 9.5t-31.5 -7t-32 -18.5t-29.5 -26t-23 -29.5q-7 -11 -9 -15.5t-4 -2.5q-2 1 0.5 7.5t6.5 12.5q10 16 24 32t30.5 28.5
t34.5 20t35 7.5q22 0 34.5 -10t12.5 -33q0 -32 -23 -65.5t-58 -65.5q-42 -37 -85 -61t-87 -24h-1q-34 0 -58 16.5t-24 60.5q0 17 8.5 41.5t19.5 39.5q8 13 22.5 34.5t34 47.5t42 54.5t45.5 56.5q-42 -29 -87 -51.5t-82 -22.5q-32 0 -55.5 18t-25.5 57q-1 25 8 49t22.5 47
t29.5 45t30 43q19 32 30 63.5t11 61.5q0 42 -20 71.5t-51.5 47.5t-70.5 26t-77 8q-47 0 -95 -10t-93 -25t-83.5 -34t-64.5 -37q-46 -32 -84.5 -67t-66 -73.5t-43 -81t-15.5 -88.5q0 -68 43.5 -109.5t124.5 -41.5q50 0 111.5 23t121.5 78q45 41 74 85t29 92q0 35 -22 54.5
t-59 19.5q-42 0 -78 -16t-56 -35q-11 -10 -13 -14t-4 -2t3 8.5t10 11.5q19 19 56 37.5t83 18.5q41 0 70.5 -21.5t29.5 -65.5q0 -50 -33 -98t-80 -89q-56 -49 -121.5 -72.5t-120.5 -23.5q-85 0 -134.5 42.5t-49.5 118.5q0 45 16 87.5t44.5 82.5t68 76.5t87.5 69.5
q28 19 66.5 38.5t83 35t94 25t99.5 9.5q48 0 95 -11.5t84 -35.5t59.5 -60t22.5 -85q0 -59 -34 -116q-14 -25 -32.5 -50.5t-35 -49.5t-28 -46t-11.5 -39q0 -24 16 -34t36 -10q19 0 43 8t49.5 21t51.5 29.5t50 34.5q12 14 19 20.5t18 20.5q54 62 108.5 121t104 104.5
t91.5 73.5t71 28q10 0 18.5 -6t4.5 -14q-25 -54 -91.5 -112.5t-154.5 -124.5q-29 -22 -55 -41.5t-48 -37.5q-29 -36 -55.5 -71t-53.5 -69zM1139 520q-23 -26 -43.5 -50t-40.5 -48q19 14 42 30.5t48 36.5q33 25 66.5 53.5t62.5 56t51.5 54t32.5 47.5q2 5 -1.5 8.5t-9.5 3.5
q-17 0 -41 -18t-52 -46.5t-57.5 -62.5t-57.5 -65z" />
    <glyph glyph-name="afii10029" unicode="&#x41b;" horiz-adv-x="1533" 
d="M1699 676q-38 -26 -79 -63.5t-84.5 -80.5t-88.5 -90t-89.5 -93.5t-87.5 -90t-84 -79.5q-80 -71 -162 -125.5t-169 -91.5t-180 -56t-194 -19h-1q-88 0 -174.5 19t-154 63.5t-108 116.5t-37.5 178q2 68 27 128.5t67 111t98 90.5t121 68t135.5 42.5t142.5 14.5q56 0 112 -14
t100.5 -42t72.5 -70t28 -97q0 -72 -36.5 -131t-93 -101.5t-125.5 -65.5t-134 -23q-33 0 -66.5 8.5t-60 25.5t-43.5 42.5t-17 59.5q0 41 17.5 69.5t37.5 43.5q13 10 15 8q1 -1 -3.5 -4.5t-8.5 -7.5q-21 -22 -32.5 -46.5t-11.5 -59.5q0 -30 16 -52t41 -36t56.5 -21t63.5 -7
q63 0 129.5 21t121.5 60t90 94t35 123q0 54 -27 94t-70.5 66.5t-97.5 40t-108 13.5q-104 0 -202.5 -32.5t-175 -91.5t-124 -141.5t-49.5 -181.5q-2 -96 33 -165.5t95 -114t139.5 -66t166.5 -21.5q99 0 189 20.5t175 58.5t165.5 92.5t160.5 122.5q73 63 142 132.5
t134.5 136.5t126.5 125.5t120 99.5q6 5 17.5 11t24 11.5t24 8t17.5 1.5q14 -3 18 -16t-1 -29q-7 -25 -25.5 -56t-44 -66.5t-55.5 -74.5t-60 -79q-29 -39 -59.5 -81t-58.5 -83t-52.5 -79.5t-42.5 -69.5q-14 -23 -22 -41.5t-10 -30.5q-4 -35 26 -40q21 -3 52.5 8.5t55.5 31.5
q10 8 13 12t5 2q3 -3 -13 -17q-20 -19 -51 -34t-66 -15t-52 18t-15 46q2 36 32 92q27 51 70 114t91 124q36 46 77.5 98t77.5 98.5t61.5 81.5t30.5 46q7 17 0 22q-3 2 -11 0t-17.5 -5.5t-18.5 -8t-13 -8.5z" />
    <glyph glyph-name="afii10062" unicode="&#x40e;" horiz-adv-x="738" 
d="M-617 -1063q-49 0 -80.5 26t-31.5 74q0 44 22 94t61.5 101.5t93.5 104.5t118 104.5t135.5 100t145.5 91.5q61 35 132 69t148.5 63t159.5 51.5t163 36.5q-72 -105 -139 -194t-135 -169.5t-141.5 -155t-158.5 -150.5q-61 -54 -125 -99.5t-128 -78t-124.5 -51t-114.5 -18.5
h-1zM-617 -1073q56 0 117.5 19t126 52t130 77.5t130.5 95.5q80 63 145 123t123.5 123.5t116 133.5t122.5 153q33 42 61.5 81t54.5 77q33 4 66 6t65 2q94 0 180 -21t152 -66t105.5 -116.5t39.5 -172.5t-39.5 -188t-108 -152t-161 -103t-198.5 -40q-59 -1 -114.5 12.5
t-98.5 42t-69.5 73t-26.5 105.5q0 58 20.5 108.5t55.5 90t81 68t97 42.5q13 4 17.5 4.5t4.5 3.5q0 2 -8 1t-17 -3q-51 -13 -101 -41t-89.5 -68t-63.5 -91t-24 -111q0 -66 29.5 -112.5t76.5 -76.5t107 -44t122 -13q72 1 141 19t130.5 50.5t113 77t89 98.5t58.5 116t21 129
q0 71 -21 127.5t-57.5 99.5t-86.5 73t-108 49.5t-121.5 28.5t-127.5 9q-31 0 -61.5 -2t-62.5 -5q40 58 75.5 114t71.5 113t76 117.5t88 129.5q42 59 88.5 121t100.5 130q11 14 20.5 22.5t11.5 15.5q2 8 -1 14t-11 8q-13 2 -27 -10t-23 -23q-31 -36 -64.5 -78t-80.5 -104
q-25 -33 -45.5 -61.5t-40 -55.5t-39 -53.5t-41.5 -55.5q-17 -23 -31.5 -39t-29.5 -30.5t-31.5 -28t-37.5 -30.5q-15 -12 -32 -23.5t-34.5 -20.5t-34.5 -14.5t-33 -5.5q-14 0 -23 7.5t-9 20.5q0 23 12 49.5t30.5 55t42 57.5t47.5 58q31 37 59 72t49.5 69.5t34.5 67.5t13 66
q0 37 -15.5 65.5t-42.5 48t-63.5 29.5t-78.5 10q-36 0 -75.5 -9.5t-77.5 -25.5t-72.5 -37.5t-61.5 -44.5q-30 -26 -55 -53.5t-43.5 -57t-29 -62t-10.5 -67.5q0 -56 37 -86.5t95 -30.5q38 0 80.5 16.5t79 45.5t62 67t28.5 82q3 35 -17 52.5t-49 17.5q-20 0 -39.5 -9
t-30.5 -20q-5 -5 -7.5 -8.5t-1.5 -4.5q2 -2 4.5 1.5t9.5 8.5q8 7 25.5 14t36.5 7q27 0 37 -17t8 -40q-5 -42 -26 -79.5t-52.5 -65t-70 -43.5t-77.5 -16q-49 0 -79 31t-30 79q0 68 32 124.5t89 105.5q28 25 62 45.5t70 35.5t73 23t72 8q31 0 59 -7t50 -22.5t35 -39.5t13 -58
q0 -33 -11.5 -64t-29.5 -60.5t-41 -57.5t-45 -55q-27 -33 -55.5 -65.5t-51.5 -64t-38 -62t-15 -57.5q0 -32 17 -48t44 -16q29 0 60.5 13t64 34.5t64.5 49t62 56.5q-39 -66 -84 -139t-104 -160q-84 -13 -167.5 -36t-163 -52.5t-152 -64.5t-134.5 -71q-77 -45 -151.5 -94
t-142.5 -100t-126 -103.5t-100 -103.5t-66 -100t-24 -93q0 -32 13 -54.5t34 -36.5t48 -21t56 -7h1zM960 786q-1 -26 -63 -54q-59 -28 -93 -28q-18 0 -37.5 10t-21.5 23q-4 17 -3 27.5t6 16.5t11.5 8.5t9.5 2.5q30 0 30 -20t-32 -36q8 -18 39 -18q32 0 93 34l59 35q1 0 2 -1z
" />
    <glyph glyph-name="I.swash1" unicode="I" horiz-adv-x="851" 
d="M323 -50q-58 0 -110.5 14.5t-92 42.5t-63 68.5t-23.5 92.5q0 67 34 119t86 88t114.5 54.5t119.5 18.5q39 0 75.5 -8.5t65 -26t46 -43.5t17.5 -62q0 -39 -22 -70.5t-54.5 -53t-70 -33.5t-67.5 -13q-17 -1 -30 1t-12 7q0 2 1.5 1.5t6 -1t12.5 -1.5t21 1q28 3 59 15t56 32.5
t41.5 49t16.5 65.5q0 31 -12.5 55.5t-34.5 41t-52 25.5t-64 9q-57 0 -115 -18t-104.5 -52.5t-76 -85t-29.5 -115.5q0 -49 18.5 -87.5t53 -65.5t83 -41.5t107.5 -14.5q88 0 159 20t133 57.5t118.5 91.5t115.5 122q33 38 78.5 96t99 117t111 110.5t114.5 77.5
q-28 -4 -53.5 -5.5t-60.5 -3.5q-55 -4 -109 -14.5t-97 -29.5t-70 -49t-27 -73q0 -31 16.5 -48.5t46.5 -17.5q8 0 17 1t19 4q3 1 6.5 2.5t4.5 0.5t-3 -3.5t-7 -4.5q-8 -5 -20.5 -8.5t-27.5 -3.5q-36 0 -63 22.5t-27 58.5q0 43 32 74t81.5 51.5t109.5 31.5t116 15l51 3t34 3
q15 2 26 4.5t21.5 7t22 10.5t26.5 14q20 11 40.5 21t36.5 10q19 0 18 -16q-1 -11 -12.5 -16.5t-23.5 -9.5q-35 -11 -59.5 -17t-41.5 -11q-11 -5 -24 -14t-21 -16q-69 -57 -129 -132t-115 -151q-62 -86 -133.5 -158t-154 -123.5t-176 -80.5t-199.5 -29h-1z" />
    <glyph glyph-name="uni0406" unicode="&#x406;" horiz-adv-x="851" 
d="M323 -50q-58 0 -110.5 14.5t-92 42.5t-63 68.5t-23.5 92.5q0 67 34 119t86 88t114.5 54.5t119.5 18.5q39 0 75.5 -8.5t65 -26t46 -43.5t17.5 -62q0 -39 -22 -70.5t-54.5 -53t-70 -33.5t-67.5 -13q-17 -1 -30 1t-12 7q0 2 1.5 1.5t6 -1t12.5 -1.5t21 1q28 3 59 15t56 32.5
t41.5 49t16.5 65.5q0 31 -12.5 55.5t-34.5 41t-52 25.5t-64 9q-57 0 -115 -18t-104.5 -52.5t-76 -85t-29.5 -115.5q0 -49 18.5 -87.5t53 -65.5t83 -41.5t107.5 -14.5q88 0 159 20t133 57.5t118.5 91.5t115.5 122q33 38 78.5 96t99 117t111 110.5t114.5 77.5
q-28 -4 -53.5 -5.5t-60.5 -3.5q-55 -4 -109 -14.5t-97 -29.5t-70 -49t-27 -73q0 -31 16.5 -48.5t46.5 -17.5q8 0 17 1t19 4q3 1 6.5 2.5t4.5 0.5t-3 -3.5t-7 -4.5q-8 -5 -20.5 -8.5t-27.5 -3.5q-36 0 -63 22.5t-27 58.5q0 43 32 74t81.5 51.5t109.5 31.5t116 15l51 3t34 3
q15 2 26 4.5t21.5 7t22 10.5t26.5 14q20 11 40.5 21t36.5 10q19 0 18 -16q-1 -11 -12.5 -16.5t-23.5 -9.5q-35 -11 -59.5 -17t-41.5 -11q-11 -5 -24 -14t-21 -16q-69 -57 -129 -132t-115 -151q-62 -86 -133.5 -158t-154 -123.5t-176 -80.5t-199.5 -29h-1z" />
    <glyph glyph-name="Edieresis.swash1" unicode="&#x401;" horiz-adv-x="622" 
d="M669 421q31 0 58 10t47.5 28t32 42.5t11.5 53.5q0 32 -11 56.5t-30 41t-45 26.5t-56 13q-52 -23 -87 -66t-35 -103q0 -48 31.5 -75t82.5 -27h1zM465 380q14 0 26.5 5.5t14.5 19.5q2 11 -6.5 18t-21.5 11.5t-27.5 6t-24.5 1.5q-9 0 -18 -0.5t-18 -1.5q5 -26 22.5 -43
t51.5 -17h1zM272 -52q53 0 106 17.5t88 40.5q51 34 79 75.5t30 93.5q1 53 -33.5 80.5t-87.5 27.5q-28 0 -54 -7.5t-49 -20t-43.5 -28t-36.5 -31.5q-38 -37 -63.5 -85t-27.5 -104q-1 -11 0 -21t3 -20q17 -8 39.5 -13t48.5 -5h1zM386 -207q-94 0 -155 61q-19 19 -33 43.5
t-22 55.5q-55 20 -91.5 62.5t-36.5 108.5q0 69 29 127.5t93 109.5q15 12 35.5 24t45 23t52 20t56.5 15q-8 22 -8 44q0 47 21 85.5t59 68.5q18 14 41.5 25.5t51.5 20t58 13t61 4.5q9 0 18 -0.5t18 -1.5q58 24 122 24q32 0 63 -10t55.5 -28t39.5 -44t15 -59q0 -26 -13 -48.5
t-29 -36.5q-3 -2 -6.5 -5t-5.5 -1q-1 1 2 3t6 7q11 16 18.5 36.5t7.5 44.5q0 31 -12.5 56t-33.5 42t-49 26t-59 9q-56 0 -106 -19q29 -6 55 -18t45.5 -30t30.5 -42.5t11 -55.5q0 -30 -14.5 -56t-38.5 -45t-54.5 -29.5t-61.5 -10.5q-54 0 -88 28.5t-34 82.5q0 59 33 102
t83 68q-5 1 -9.5 1h-9.5q-32 0 -58.5 -7t-49 -19t-42 -27t-35.5 -31q-31 -30 -50 -67.5t-19 -79.5v-7t1 -8q9 1 18.5 1.5t18.5 0.5q14 0 30.5 -2.5t30.5 -8t22.5 -14.5t6.5 -22q-2 -16 -18.5 -23.5t-32.5 -7.5q-32 0 -60 17t-43 46q-47 -12 -86 -38.5t-75 -63.5
q-46 -48 -70.5 -99.5t-24.5 -120.5q0 -47 16 -83.5t51 -58.5q-1 9 -1.5 18t-0.5 19q1 60 23 110t64 91q35 35 85.5 59t110.5 24q28 0 53.5 -7.5t45 -22.5t31 -37t10.5 -50q-2 -57 -36 -99.5t-88 -77.5q-38 -25 -91 -42.5t-109 -17.5q-44 0 -84 12q8 -28 21 -50.5t30 -39.5
q28 -29 66.5 -42t85.5 -13q26 0 46 4t42 15q5 2 8 5t4 1q1 -3 -9 -10q-17 -11 -41 -19t-52 -8h-1zM745 782q-3 5 -3.5 14t3.5 19q5 11 15 15t23 4q12 0 15.5 -7.5t-5.5 -18.5t-24 -18.5t-24 -7.5zM636 782q-9 11 -1 33q5 11 14.5 15t22.5 4q12 0 15 -7.5t-5 -18.5
q-9 -11 -24 -18.5t-22 -7.5z" />
    <glyph glyph-name="Idieresis.swash1" unicode="&#x407;" horiz-adv-x="851" 
d="M323 -50q-58 0 -110.5 14.5t-92 42.5t-63 68.5t-23.5 92.5q0 67 34 119t86 88t114.5 54.5t119.5 18.5q39 0 75.5 -8.5t65 -26t46 -43.5t17.5 -62q0 -39 -22 -70.5t-54.5 -53t-70 -33.5t-67.5 -13q-17 -1 -30 1t-12 7q0 2 1.5 1.5t6 -1t12.5 -1.5t21 1q28 3 59 15t56 32.5
t41.5 49t16.5 65.5q0 31 -12.5 55.5t-34.5 41t-52 25.5t-64 9q-57 0 -115 -18t-104.5 -52.5t-76 -85t-29.5 -115.5q0 -49 18.5 -87.5t53 -65.5t83 -41.5t107.5 -14.5q88 0 159 20t133 57.5t118.5 91.5t115.5 122q33 38 78.5 96t99 117t111 110.5t114.5 77.5
q-28 -4 -53.5 -5.5t-60.5 -3.5q-55 -4 -109 -14.5t-97 -29.5t-70 -49t-27 -73q0 -31 16.5 -48.5t46.5 -17.5q8 0 17 1t19 4q3 1 6.5 2.5t4.5 0.5t-3 -3.5t-7 -4.5q-8 -5 -20.5 -8.5t-27.5 -3.5q-36 0 -63 22.5t-27 58.5q0 43 32 74t81.5 51.5t109.5 31.5t116 15l51 3t34 3
q15 2 26 4.5t21.5 7t22 10.5t26.5 14q20 11 40.5 21t36.5 10q19 0 18 -16q-1 -11 -12.5 -16.5t-23.5 -9.5q-35 -11 -59.5 -17t-41.5 -11q-11 -5 -24 -14t-21 -16q-69 -57 -129 -132t-115 -151q-62 -86 -133.5 -158t-154 -123.5t-176 -80.5t-199.5 -29h-1zM1429 782
q-3 5 -3.5 14t3.5 19q5 11 15 15t23 4q12 0 15.5 -7.5t-5.5 -18.5t-24 -18.5t-24 -7.5zM1320 782q-9 11 -1 33q5 11 14.5 15t22.5 4q12 0 15 -7.5t-5 -18.5q-9 -11 -24 -18.5t-22 -7.5z" />
    <glyph glyph-name="afii10054" unicode="&#x405;" horiz-adv-x="954" 
d="M1346 496q18 13 21 29q1 3 0 6.5t-5 3.5q-8 0 -12.5 -9.5t-4.5 -18.5q0 -6 1 -11zM1468 435q29 0 58 9.5t52 26.5t37.5 39.5t15.5 49.5q2 57 -41 88t-111 31q-38 0 -74 -12t-68 -31t-59.5 -43t-49.5 -48q-23 -24 -42.5 -49.5t-40.5 -53.5q62 0 113.5 14t80.5 35
q-1 3 -2 9.5t0 12.5q2 13 9 22t17 9q7 0 10 -4.5t2 -10.5q-2 -21 -27 -40q5 -14 17 -24t28.5 -17t36 -10t37.5 -3h1zM409 -73q-84 -2 -157.5 16t-127 56t-83.5 96t-27 137q3 77 39 141.5t93.5 111t130 72.5t147.5 26q59 0 107.5 -13.5t82.5 -39t52 -63.5t16 -87
q-2 -50 -27.5 -91t-65.5 -70t-88.5 -45.5t-96.5 -16.5q-25 0 -49 5t-43 16t-32 28t-15 41q-1 8 0 14.5t3 6.5t1.5 -5t1.5 -16q3 -22 15.5 -37.5t31.5 -25t42 -14t46 -4.5q46 0 90 16t78.5 44.5t56 68.5t23.5 88q1 41 -12 76t-41 60.5t-72 40t-104 14.5q-73 0 -142.5 -25
t-124 -70.5t-89 -108.5t-37.5 -139t25 -132.5t79 -93t121 -54t152 -15.5q78 2 149.5 24.5t136.5 62.5t124 95.5t113 123.5q49 62 85 109t68 85q-44 5 -84.5 20.5t-71 41t-48.5 60.5t-16 79q1 35 16.5 65t40 52.5t57 35t67.5 12.5q22 0 43.5 -6t38 -18t26 -30t8.5 -42
q-1 -48 -45 -78q-5 -3 -9.5 -5t-5.5 0t3.5 4.5t8.5 5.5q36 28 37 74q0 22 -8.5 38.5t-23 27t-33.5 15.5t-40 5q-34 0 -62.5 -12.5t-50 -34t-34 -51.5t-13.5 -64q-2 -39 14.5 -71t45 -56t66.5 -39t80 -20q24 29 48 54.5t50 51.5q27 26 61.5 51t72 44t77 30.5t78.5 11.5
q73 0 119 -33.5t44 -95.5q-1 -29 -16.5 -53.5t-40.5 -42t-56 -27.5t-63 -10q-20 0 -39.5 3.5t-36.5 10.5t-30 18t-19 26q-31 -22 -83.5 -37t-118.5 -14q-31 -44 -66.5 -93.5t-83.5 -108.5q-65 -79 -134 -136t-141 -93.5t-148.5 -54.5t-156.5 -20z" />
    <glyph glyph-name="afii61352" unicode="&#x2116;" horiz-adv-x="905" 
d="M36 -29q-22 0 -44 3.5t-40 12.5t-29 23.5t-11 37.5q0 26 17.5 44t39.5 18q19 0 29 -9.5t9 -22.5q0 -19 -18 -34l-12.5 -12.5t-7.5 -14.5q-2 -14 14 -23.5t54 -9.5q30 0 65 8t71.5 23t73.5 36.5t71 47.5q69 52 124 114t93 135q3 6 8.5 15.5t10.5 16.5t17 18.5t23 12.5
q9 1 11.5 -3t-1.5 -10q-15 -21 -23 -56q-5 -23 -8 -55t-6 -67q-5 -58 -12 -93.5t-16 -57.5h1q24 35 52 73t57.5 75.5t58 71.5t53.5 61q51 54 100 88.5t95 34.5q32 0 47 -18.5t15 -37.5q0 -10 -3 -10q-2 0 -2.5 3.5t-2.5 6.5q-5 12 -19.5 19.5t-37.5 7.5q-26 0 -51.5 -9
t-49 -23.5t-45 -33t-39.5 -37.5q-35 -37 -70.5 -80.5t-69.5 -88.5t-65 -89t-57 -82q-5 -7 -11 -13.5t-14 -1.5q-7 4 -6 11.5t5 15.5q14 40 21 76.5t11 83.5q5 48 7 83.5t10 58.5h-1q-15 -29 -38 -59.5t-50 -60t-57 -56.5t-59 -49q-72 -54 -148 -85.5t-140 -33.5zM844 237
q-17 0 -26 8t-8 22q2 17 12 32t22 26q17 15 41.5 25t41.5 12h6t5 -2q0 -2 -3 -3t-5 -2q-12 -5 -24.5 -15t-25.5 -23q-15 -14 -27 -31.5t-13 -28.5q-2 -12 9 -12q12 0 30 11.5t35 29.5q1 5 3.5 12.5t9.5 17.5q5 8 11.5 12t10.5 5q2 5 2.5 10.5t0.5 7.5q0 5 -1.5 7t0.5 3
t4.5 -0.5t4.5 -3.5q10 -9 9 -25q-2 -12 -12 -26t-27 -28q6 -2 14 0q9 2 22 11q8 5 13 9.5t10 9.5q7 7 9 5q3 -3 -4 -10q-5 -5 -11.5 -10.5t-13.5 -10.5q-17 -11 -27 -13t-18 1q-14 -10 -36.5 -21.5t-43.5 -11.5zM739 169q-14 -2 -8 6t12.5 9t16.5 3q26 4 61.5 5.5t62.5 -0.5
q13 -1 13 -5q0 -3 -4 -7q-8 -8 -12.5 -9.5t-7.5 -1.5q-35 1 -70.5 1.5t-63.5 -1.5z" />
    <glyph glyph-name="afii10053" unicode="&#x404;" horiz-adv-x="558" 
d="M222 -135q-3 -3 -6 12q-4 20 -3 41t4 43q-21 0 -43.5 6.5t-42 20.5t-32 36t-12.5 55q0 60 24 119t61 113q-4 0 1 3q-23 -2 -45 -6.5t-25 -15.5q-1 1 -1 4q0 14 22.5 21t57.5 9q11 15 22.5 29t23.5 28h-27q-64 0 -131.5 9.5t-130.5 29.5t-118.5 50.5t-97.5 72t-66 95
t-24 118.5q0 89 44 155.5t113.5 111t155 66.5t167.5 22q61 0 122.5 -13t111 -40.5t80 -69t30.5 -98.5t-28 -101t-71.5 -73.5t-96 -44.5t-102.5 -15q-24 0 -45.5 4.5t-37.5 15.5q33 -11 82 -11t100 15t92.5 43.5t67.5 71t26 97.5q0 54 -30.5 93.5t-78 65.5t-106.5 38.5
t-116 12.5q-53 0 -106.5 -10t-102.5 -30t-91.5 -49.5t-74 -68.5t-49.5 -87t-18 -105q0 -99 47 -168t123 -112t171.5 -62.5t193.5 -19.5h30q23 25 58.5 57t79 65t92.5 64.5t99 56t98 39.5t90 15q31 0 48 -16t17 -39t-17 -47t-44.5 -46.5t-61.5 -42.5t-68 -35
q-72 -32 -158.5 -50.5t-170.5 -25.5q-26 -30 -50 -59q38 -1 82.5 -1.5t91.5 -0.5q42 0 86.5 2t81.5 11.5t61 30t24 58.5q0 5 -1.5 9.5t-3.5 9.5q-3 5 -5 11q0 2 2 2q3 0 6 -4.5t5.5 -11.5t3.5 -14t1 -13q0 -29 -14 -50t-39 -35t-58.5 -20.5t-73.5 -6.5q-32 0 -62 1.5
t-61.5 3t-65 3.5t-71.5 2q-42 -56 -72.5 -118.5t-30.5 -131.5q0 -48 24.5 -70.5t59.5 -24.5q4 21 12 45t19.5 48t25 47.5t29.5 43.5q22 28 48 52t52 41t51.5 26.5t48.5 9.5t43.5 -11.5t20.5 -43.5q0 -24 -10 -47.5t-26.5 -46t-39 -44t-47.5 -42.5q-48 -39 -107 -63t-113 -24
q-5 -22 -6 -42t1 -40q1 -9 2 -11t-1 -3zM307 396q78 8 157.5 25t146.5 47q87 38 132 83.5t45 90.5q0 17 -10.5 27.5t-31.5 10.5q-33 0 -72.5 -15t-81.5 -39t-84 -54.5t-80 -62t-69.5 -61.5t-51.5 -52zM228 -30q23 0 50.5 6.5t55 18t54.5 27.5t49 36q25 22 46 46t36 47
t23.5 44.5t8.5 38.5q0 21 -13 31.5t-35 10.5q-20 0 -44 -9t-49 -26t-50.5 -40.5t-47.5 -52.5q-14 -18 -27.5 -41t-25 -47t-19.5 -47.5t-12 -42.5z" />
    <glyph glyph-name="afii10102" unicode="&#x455;" horiz-adv-x="228" 
d="M242 98q0 -5 -30 -31q-88 -76 -179 -76q-61 0 -61 49q0 22 14.5 42t35.5 20q22 0 22 -15t-23 -31t-23 -33q0 -22 29 -22q30 0 53 32q15 19 33.5 65.5t27.5 58.5v1q-80 -65 -94 -65q-1 0 -2 1q2 6 48 40q51 37 58 45q24 28 45 28q13 0 13 -4q0 -6 -42 -32q-6 -4 -6 -68
q0 -22 -12 -46t-30 -36v-1q47 22 82.5 51t39.5 29q1 -1 1 -2z" />
    <glyph glyph-name="afii10018" unicode="&#x411;" horiz-adv-x="1257" 
d="M1414 716q-8 1 -8.5 -3.5t-7.5 -2.5q-30 -11 -59 -22.5t-57 -23.5q-13 -8 -28.5 -21t-22.5 -19q-69 -57 -129 -132t-115 -151q-62 -86 -133.5 -158t-154 -123.5t-176 -80.5t-199.5 -29h-1q-58 0 -110.5 14.5t-92 42.5t-63 68.5t-23.5 92.5q0 67 34 119t86 88t114.5 54.5
t119.5 18.5q39 0 75.5 -8.5t65 -26t46 -43.5t17.5 -62q0 -39 -22 -70.5t-54.5 -53t-70 -33.5t-67.5 -13q-17 -1 -30 1t-12 7q0 2 1.5 1.5t6 -1t12.5 -1.5t21 1q28 3 59 15t56 32.5t41.5 49t16.5 65.5q0 31 -12.5 55.5t-34.5 41t-52 25.5t-64 9q-57 0 -115 -18t-104.5 -52.5
t-76 -85t-29.5 -115.5q0 -49 18.5 -87.5t53 -65.5t83 -41.5t107.5 -14.5q88 0 159 20t133 57.5t118.5 91.5t115.5 122q31 36 74.5 90.5t94.5 112t107 109.5t110 83q-18 -8 -35.5 -15t-34.5 -14q-62 -26 -122 -48.5t-121.5 -39t-126.5 -26t-136 -10.5q-90 -1 -169 16.5
t-137.5 53.5t-92.5 91.5t-33 130.5q0 57 24 108t66.5 95t100.5 80t126 62t143.5 41t152.5 17q64 2 128 -7.5t115.5 -31t83.5 -56.5t31 -85q0 -41 -20 -80t-53.5 -73t-78.5 -62t-95.5 -48.5t-105 -31.5t-106.5 -10q-37 0 -76 7.5t-71.5 23t-52.5 39.5t-20 58q0 37 20 67.5
t49.5 52.5t63.5 35t63 15q19 1 19 -2q-1 -3 -17 -3q-28 -3 -60.5 -16t-60.5 -34.5t-47 -50.5t-19 -64q0 -29 15.5 -48.5t40 -31.5t53.5 -17.5t56 -5.5q53 -1 110 8.5t111.5 27t104 43t86.5 57t59 68t23 76.5q0 47 -31.5 80t-81.5 53t-112.5 28.5t-123.5 7.5q-71 -2 -143 -18
t-138.5 -43.5t-125 -64t-101.5 -79t-68.5 -90.5t-25.5 -97q-1 -72 31.5 -125.5t89.5 -89t134.5 -52.5t166.5 -16q71 1 136.5 12.5t126.5 31t119 45t114 52.5q59 28 119 56t118.5 50.5t116 36t112.5 13.5q29 -1 57 -5.5t52.5 -13.5t43.5 -22.5t29 -31.5q3 -5 6.5 -12t0.5 -9
q-2 0 -5.5 3.5t-11.5 10.5q-26 17 -65.5 26.5t-79.5 10.5q-68 1 -121.5 -8t-114.5 -31zM1106 368q31 -3 58 -13t46.5 -25t30.5 -34.5t11 -40.5q0 -9 -2 -18.5t-4 -19.5q8 1 15.5 1h15.5q45 0 45 -7q0 -2 -2 -2q-3 0 -16.5 1.5t-30.5 1.5q-7 0 -14.5 -0.5t-15.5 -0.5
q-14 -40 -51 -79t-84 -69.5t-99.5 -49.5t-97.5 -19q-28 0 -50.5 9t-22.5 35q0 27 32.5 54t82.5 50t110 41t115 26q12 31 12 59q0 38 -21 63t-69 25q-20 0 -37.5 -7.5t-38.5 -7.5q-8 0 -13 3t-3 8q4 7 15 11.5t25 6.5t29.5 1.5t28.5 -3.5zM930 5q34 0 70.5 17.5t70 45.5
t61 63.5t42.5 70.5q-63 -11 -116 -29.5t-92 -40t-61 -45t-22 -44.5q0 -38 46 -38h1z" />
    <glyph glyph-name="afii10019" unicode="&#x412;" horiz-adv-x="1194" 
d="M929 5q30 0 62 17t61.5 44t53.5 61t38 68q-30 -6 -59.5 -14.5t-52.5 -17.5q-66 -25 -105 -58.5t-39 -63.5q0 -36 40 -36h1zM671 -243q-48 0 -90.5 14.5t-76.5 41.5t-58 65.5t-34 86.5q-23 -4 -46.5 -5.5t-48.5 -1.5q-55 0 -108 14.5t-94.5 43.5t-67 73t-25.5 104
q0 69 31 128t84.5 102.5t125.5 68t154 24.5q45 0 96 -12.5t94 -38.5q48 48 107.5 91t126.5 75t140 50t148 16q38 -1 72.5 -9t62.5 -24q14 8 33.5 15.5t37.5 12.5q14 3 14 0q0 -1 -4.5 -1.5t-9.5 -2.5q-16 -5 -32 -13t-30 -17q25 -17 40 -41t17 -56q1 -26 -8.5 -49.5t-26 -44
t-38 -37.5t-44.5 -31q-31 -18 -64.5 -29.5t-56.5 -16.5q55 -5 87.5 -35.5t32.5 -71.5q0 -16 -5 -36q29 3 52 0q11 -2 13.5 -3.5t1.5 -3.5t-4 -1t-14 2q-23 2 -51 0q-13 -39 -45.5 -76.5t-74 -67t-87.5 -48t-86 -18.5q-24 0 -44 9t-20 34q0 19 15 37.5t40 35.5t58 32.5
t68 28.5q27 10 57 18t61 13q11 31 11 57q0 37 -19.5 62t-61.5 24q-16 0 -29.5 -5.5t-29.5 -8.5q-8 -2 -14 0t-6 9q0 8 6.5 10.5t20.5 4.5l66 8t69 23q54 28 89 73.5t35 108.5q0 46 -33 76q-72 -51 -139 -125.5t-143 -170.5q-54 -68 -113 -129.5t-124 -111t-136.5 -85
t-151.5 -51.5q9 -47 29 -85t50 -64t68 -40t82 -14q38 0 66 5.5t59 22.5q9 5 12 8t4 1t-1.5 -5t-10.5 -9q-26 -18 -59 -26t-71 -8h-1zM442 -19q73 17 134.5 53.5t118 86.5t111.5 111t114 128q82 93 160 169t162 123q-44 34 -112 36q-74 2 -145.5 -16t-137 -49.5t-124 -74.5
t-104.5 -91q38 -25 61.5 -61.5t23.5 -86.5q0 -38 -10.5 -67.5t-28.5 -49.5q-3 -4 -6.5 -6.5t-5.5 -0.5q-1 1 2 4.5t5 5.5q18 25 25.5 51t7.5 61q0 48 -24 81.5t-62 56.5q-79 -86 -124 -185t-45 -222q0 -15 1 -29t3 -28zM317 -33q24 0 47 2t46 6q-2 12 -3.5 27.5t-1.5 31.5
q0 64 14.5 122t40 110t60 98.5t74.5 87.5q-39 20 -85.5 29.5t-92.5 9.5q-77 0 -146 -22t-121 -61.5t-82.5 -94t-30.5 -118.5q0 -57 23.5 -100t62.5 -71.5t89.5 -42.5t104.5 -14h1z" />
    <glyph glyph-name="afii10048" unicode="&#x42e;" horiz-adv-x="2011" 
d="M1408 -377q-79 0 -149 19t-121.5 57t-81 95t-27.5 134t31 136t78 102.5t113 73.5t136 49q22 46 55 92l-21 -6q-16 -4 -43.5 -11t-58 -14.5t-58.5 -14.5t-44 -10q-35 -8 -67 -14t-62 -13q-35 -48 -69 -92.5t-74 -86.5q-38 -40 -80 -75.5t-87 -62t-93 -42t-97 -15.5h-1
q-17 0 -34.5 3t-32 11t-24.5 21t-11 33q-2 30 16 57t48.5 52t71.5 47t85 41q81 35 156.5 58.5t153.5 42.5l58 76t57 72q45 54 90 96.5t87 72.5q-45 -17 -91.5 -25t-106.5 -10q-47 -1 -88 2.5t-79.5 11.5t-76 20t-77.5 27q-51 19 -93 35t-83 27t-84.5 17.5t-97.5 6.5
q-40 0 -85.5 -6t-90 -19t-85.5 -33.5t-72.5 -49t-50 -66t-18.5 -84.5q0 -63 32 -106.5t83 -70.5t113.5 -38.5t124.5 -11.5q60 0 120.5 12t109 35t79 56.5t30.5 75.5q0 39 -20 65t-51.5 42t-71 22.5t-79.5 6.5q-48 0 -90 -10t-74 -28q-8 -4 -11.5 -7.5t-4.5 -1.5t3.5 6t8.5 7
q29 23 73.5 38t95.5 15q42 0 83 -8.5t74 -27t53 -48t20 -71.5q0 -45 -30.5 -81.5t-79.5 -62.5t-111.5 -40t-126.5 -14q-63 0 -127.5 14t-116.5 43.5t-85 76t-33 112.5q0 72 41 124t103 85.5t134.5 49.5t135.5 16q60 0 108 -5.5t91 -15t85 -23t92 -29.5q39 -13 74 -27t70 -25
t72.5 -19t81.5 -9q51 -1 98 5.5t99 27.5q30 12 50 24t46 30q10 7 16.5 9.5t13.5 2.5q4 0 7.5 -3.5t1.5 -8.5q-2 -8 -12.5 -14t-28.5 -14q-17 -8 -32 -15t-31 -16q-29 -23 -55 -52t-59 -74q-36 -48 -67 -91.5t-60 -85.5q29 6 59 12t62 13q18 4 47.5 11.5t61 15.5t60.5 15.5
t46 12.5l21 6l22 28t23 28q34 39 84.5 79.5t107 74t113 54.5t103.5 21q46 0 77 -26.5t29 -74.5q-1 -29 -19 -55.5t-46.5 -50.5t-65 -44t-74.5 -35q-91 -35 -185 -58.5t-170 -39.5q-25 -48 -38.5 -95t-14.5 -95q38 20 81 31.5t85 11.5q63 0 118.5 -22.5t92.5 -64.5
q38 28 73 61t66 67t57.5 67.5t47.5 63.5q17 24 34 54t30.5 63t22 68t8.5 69q0 24 -6 46.5t-18.5 39t-31.5 26.5t-45 10q-24 0 -42 -7l-10 -4q-2 1 6 6q9 5 21.5 8.5t26.5 3.5q28 0 52.5 -9t43.5 -27t30 -46.5t11 -67.5q0 -64 -27 -131t-67 -125q-51 -72 -118.5 -139.5
t-148.5 -116.5q16 -23 25 -50.5t9 -59.5q0 -72 -36 -129.5t-95 -97t-133.5 -60.5t-151.5 -21h-1zM1411 -368q74 0 145.5 20t127.5 58.5t90 94t34 126.5q0 59 -29 103q-60 -35 -124.5 -56t-130.5 -21q-57 0 -103.5 28t-63.5 79q-28 -23 -45 -52t-17 -63q0 -13 3 -24t7 -20
q2 -5 4.5 -8.5t1.5 -4.5q-3 -1 -10 9q-6 10 -10 23t-4 27q0 38 18 68.5t48 55.5q-2 6 -3.5 18.5t-1.5 23.5q0 81 35 162q-68 -18 -128.5 -46.5t-106 -70.5t-72.5 -98.5t-29 -129.5q-2 -77 25.5 -133.5t77 -94t116.5 -56t144 -18.5h1zM1456 305q73 15 162.5 38t185.5 59
q37 14 72 33.5t63 42.5t45 48.5t18 51.5q2 42 -24 67t-71 25q-47 0 -96 -20t-96.5 -53.5t-92 -77.5t-83.5 -93l-2 -2l-12 -15q-38 -50 -69 -104zM601 -66q42 0 80 14t71 36.5t61.5 50t52.5 55.5q25 29 62 80t80 109q-77 -19 -148 -42t-149 -56q-91 -38 -141 -85t-48 -104
q3 -58 78 -58h1zM1526 -34q63 0 122.5 24.5t116.5 63.5q-33 42 -85.5 63.5t-115.5 21.5q-40 0 -84 -12t-82 -34q2 -60 33 -93.5t94 -33.5h1z" />
    <glyph glyph-name="afii10042" unicode="&#x428;" horiz-adv-x="1399" 
d="M920 242q-26 -28 -51.5 -57.5t-45.5 -58t-33 -54t-13 -45.5q0 -24 16 -34t36 -10q28 0 64.5 16t73 40t70.5 51t58 48q11 18 33 47t49.5 63.5t59.5 71.5t62 72q54 62 108.5 121t104 104.5t91.5 73.5t71 28q10 0 16.5 -5.5t6.5 -14.5q0 -16 -14 -37.5t-35.5 -45.5
t-48 -49.5t-51.5 -49.5q-50 -47 -90.5 -84.5t-77 -69t-70.5 -60.5t-71 -60q-13 -18 -34.5 -46t-42.5 -59t-36 -61.5t-15 -54.5q0 -18 8 -29t30 -11q40 0 82 23t80 58q30 28 49.5 61.5t19.5 64.5q0 14 -7.5 23.5t-22.5 9.5t-31.5 -7t-32 -18.5t-29.5 -26t-23 -29.5
q-7 -11 -9 -15.5t-4 -2.5q-2 1 0.5 7.5t6.5 12.5q10 16 24 32t30.5 28.5t34.5 20t35 7.5q22 0 34.5 -10t12.5 -33q0 -32 -23 -65.5t-58 -65.5q-42 -37 -85 -61t-87 -24h-1q-34 0 -58 16.5t-24 60.5q0 17 6.5 36.5t17.5 34.5q-23 -20 -55.5 -45.5t-68 -48t-71 -37.5
t-65.5 -15q-16 0 -32 4.5t-28.5 13.5t-20.5 23t-8 34q0 26 18 61q-24 -20 -56 -44t-66.5 -44.5t-68.5 -34t-62 -13.5q-32 0 -56.5 18t-24.5 57q0 29 12 57.5t35 61.5t57.5 71.5t79.5 87.5q29 31 61.5 68t60.5 76.5t46 81t18 80.5q0 42 -20 71.5t-51.5 47.5t-70.5 26t-77 8
q-47 0 -95 -10t-93 -25t-83.5 -34t-64.5 -37q-46 -32 -84.5 -67t-66 -73.5t-43 -81t-15.5 -88.5q0 -68 43.5 -109.5t124.5 -41.5q50 0 111.5 23t121.5 78q45 41 74 85t29 92q0 35 -22 54.5t-59 19.5q-42 0 -78 -16t-56 -35q-11 -10 -13 -14t-4 -2t3 8.5t10 11.5
q19 19 56 37.5t83 18.5q41 0 70.5 -21.5t29.5 -65.5q0 -50 -33 -98t-80 -89q-56 -49 -121.5 -72.5t-120.5 -23.5q-85 0 -134.5 42.5t-49.5 118.5q0 45 16 87.5t44.5 82.5t68 76.5t87.5 69.5q28 19 66.5 38.5t83 35t94 25t99.5 9.5q48 0 95 -11.5t84 -35.5t59.5 -60t22.5 -85
q0 -37 -13 -70.5t-35.5 -67.5t-53 -69.5t-66.5 -75.5q-31 -35 -68 -74.5t-69 -79t-53.5 -75.5t-21.5 -64q0 -24 16 -34t36 -10q27 0 62.5 15.5t72.5 38.5t71 49.5t58 47.5q17 28 41 59.5t52 64.5t58 66.5t60 66.5q54 62 108.5 121t104 104.5t91.5 73.5t71 28q10 0 16.5 -5.5
t6.5 -14.5q0 -16 -14 -37.5t-35.5 -45.5t-48 -49.5t-51.5 -49.5q-50 -47 -90.5 -84.5t-77 -69t-70.5 -60.5t-71 -60zM932 263q46 40 120.5 105.5t166.5 153.5q27 25 52.5 52t46 51t33 43.5t12.5 30.5q0 12 -11 12q-17 0 -41 -18t-52 -46.5t-57.5 -62.5t-57.5 -65
q-32 -36 -59.5 -68.5t-53 -63t-49.5 -61t-50 -63.5zM1251 264q46 40 120.5 105.5t166.5 153.5q27 25 52.5 52t46 51t33 43.5t12.5 30.5q0 12 -11 12q-17 0 -41 -18t-52 -46.5t-57.5 -62.5t-57.5 -65q-32 -36 -59.5 -68.5t-53 -63t-49.5 -61t-50 -63.5z" />
    <glyph glyph-name="afii10043" unicode="&#x429;" horiz-adv-x="1476" 
d="M1330 80q3 5 14 23t24.5 38t28 35.5t24.5 15.5q8 0 11.5 -4t3.5 -9q0 -8 -5.5 -17.5t-14 -18.5t-18 -18.5t-18.5 -17.5q-15 -15 -25.5 -25t-18.5 -20t-14.5 -22.5t-15.5 -32.5q34 18 65 34.5t55 29t38.5 21t16.5 10.5l4 -11q-47 -26 -93 -50t-91 -47q-4 -10 -8.5 -20.5
t-9.5 -24.5q-20 -47 -46.5 -95.5t-57 -88t-65.5 -64.5t-71 -25q-32 0 -54 16q-17 12 -25.5 30.5t-5.5 38.5q4 29 26 57t51 45q6 4 31.5 17.5t61.5 32.5t79 41.5t86 45.5q6 15 11.5 29t13.5 28q-42 -37 -85 -61t-87 -24h-1q-34 0 -58 16.5t-24 60.5q0 17 6.5 36.5t17.5 34.5
q-23 -20 -55.5 -45.5t-68 -48t-71 -37.5t-65.5 -15q-16 0 -32 4.5t-28.5 13.5t-20.5 23t-8 34q0 26 18 61q-24 -20 -56 -44t-66.5 -44.5t-68.5 -34t-62 -13.5q-32 0 -56.5 18t-24.5 57q0 29 12 57.5t35 61.5t57.5 71.5t79.5 87.5q29 31 61.5 68t60.5 76.5t46 81t18 80.5
q0 42 -20 71.5t-51.5 47.5t-70.5 26t-77 8q-47 0 -95 -10t-93 -25t-83.5 -34t-64.5 -37q-46 -32 -84.5 -67t-66 -73.5t-43 -81t-15.5 -88.5q0 -68 43.5 -109.5t124.5 -41.5q50 0 111.5 23t121.5 78q45 41 74 85t29 92q0 35 -22 54.5t-59 19.5q-42 0 -78 -16t-56 -35
q-11 -10 -13 -14t-4 -2t3 8.5t10 11.5q19 19 56 37.5t83 18.5q41 0 70.5 -21.5t29.5 -65.5q0 -50 -33 -98t-80 -89q-56 -49 -121.5 -72.5t-120.5 -23.5q-85 0 -134.5 42.5t-49.5 118.5q0 45 16 87.5t44.5 82.5t68 76.5t87.5 69.5q28 19 66.5 38.5t83 35t94 25t99.5 9.5
q48 0 95 -11.5t84 -35.5t59.5 -60t22.5 -85q0 -37 -13 -70.5t-35.5 -67.5t-53 -69.5t-66.5 -75.5q-31 -35 -68 -74.5t-69 -79t-53.5 -75.5t-21.5 -64q0 -24 16 -34t36 -10q27 0 62.5 15.5t72.5 38.5t71 49.5t58 47.5q17 28 41 59.5t52 64.5t58 66.5t60 66.5q54 62 108.5 121
t104 104.5t91.5 73.5t71 28q10 0 16.5 -5.5t6.5 -14.5q0 -16 -14 -37.5t-35.5 -45.5t-48 -49.5t-51.5 -49.5q-50 -47 -90.5 -84.5t-77 -69t-70.5 -60.5t-71 -60q-26 -28 -51.5 -57.5t-45.5 -58t-33 -54t-13 -45.5q0 -24 16 -34t36 -10q28 0 64.5 16t73 40t70.5 51t58 48
q11 18 33 47t49.5 63.5t59.5 71.5t62 72q54 62 108.5 121t104 104.5t91.5 73.5t71 28q10 0 16.5 -5.5t6.5 -14.5q0 -16 -14 -37.5t-35.5 -45.5t-48 -49.5t-51.5 -49.5q-50 -47 -90.5 -84.5t-77 -69t-70.5 -60.5t-71 -60q-13 -18 -34.5 -46t-42.5 -59t-36 -61.5t-15 -54.5
q0 -18 8 -29t30 -11q40 0 82 23t80 58zM1275 -47q4 9 7 17.5t6 16.5q-46 -24 -88 -46t-78 -41t-64 -35.5t-46 -28.5q-19 -13 -27.5 -30t-10.5 -31q-5 -24 16 -42q26 -21 66 -21q35 0 66.5 21t59 54.5t51 77t42.5 88.5zM932 263q46 40 120.5 105.5t166.5 153.5q27 25 52.5 52
t46 51t33 43.5t12.5 30.5q0 12 -11 12q-17 0 -41 -18t-52 -46.5t-57.5 -62.5t-57.5 -65q-32 -36 -59.5 -68.5t-53 -63t-49.5 -61t-50 -63.5zM1251 264q46 40 120.5 105.5t166.5 153.5q27 25 52.5 52t46 51t33 43.5t12.5 30.5q0 12 -11 12q-17 0 -41 -18t-52 -46.5
t-57.5 -62.5t-57.5 -65q-32 -36 -59.5 -68.5t-53 -63t-49.5 -61t-50 -63.5z" />
    <glyph glyph-name="P" unicode="P" horiz-adv-x="1580" 
d="M458 -18q38 0 90.5 2.5t108 6t109.5 8t95 9.5q-83 10 -171 21t-170 20.5t-152 16t-116 7.5q-109 2 -164.5 -7t-55.5 -34q0 -18 37 -28t97 -15t136.5 -6t154.5 -1h1zM456 -28q-80 0 -159.5 1t-143.5 6.5t-103.5 17.5t-39.5 35q0 31 64.5 41.5t178.5 8.5q72 -2 154 -8.5
t172 -15.5t186 -18t197 -15q29 7 54 14.5t49 18t48.5 24t51.5 31.5q48 32 83 67t66 74t62.5 82.5t72.5 92.5q75 89 145 145t142 98q-34 36 -90.5 52.5t-119.5 16.5q-54 0 -107 -10t-104 -27t-98 -41t-87 -52q-39 -27 -74 -59t-61 -66.5t-41 -70t-15 -69.5q0 -57 32 -86.5
t86 -29.5t107.5 27.5t91.5 82.5q20 29 32.5 58t12.5 56q0 29 -14.5 50.5t-46.5 21.5q-16 0 -29 -5l-7 -3q-1 1 5 5q14 9 34 9q35 0 60.5 -22.5t25.5 -60.5q0 -35 -15.5 -66.5t-41.5 -59.5q-48 -51 -103 -76.5t-112 -25.5q-59 0 -93.5 32.5t-34.5 92.5q0 38 14.5 76.5
t40 74.5t61 69.5t76.5 60.5q42 28 90 50.5t100 38.5t106.5 25t108.5 9q61 0 121 -17t100 -55q25 14 54 26.5t59.5 21.5t62 14.5t61.5 5.5q20 0 20 -5q-1 -3 -5 -2.5t-15 0.5q-28 0 -58.5 -6t-60.5 -15.5t-58 -22t-51 -25.5q39 -40 43 -100q2 -40 -16.5 -79t-50.5 -71
q-38 -35 -87.5 -57t-93.5 -22q-15 0 -28.5 6.5t-13.5 20.5q0 13 12.5 23.5t28.5 16.5q12 4 12 3l-11 -6t-18.5 -14.5t-7.5 -21.5q0 -12 10 -16.5t24 -4.5q18 0 38 7t40.5 19t40 29t35.5 37q28 33 43.5 72t13.5 77q-3 44 -27 74q-68 -42 -127.5 -108t-119.5 -143
q-38 -49 -69 -88t-60 -71.5t-59 -60.5t-66 -55q-63 -48 -124.5 -72.5t-124.5 -41.5q42 -2 84 -3t85 -1t83 0.5t76 4.5t69.5 13t63.5 26q42 23 70.5 58t39.5 76q5 16 5 22t3 6t2 -10.5t-3 -21.5q-11 -43 -36.5 -80t-71.5 -66q-58 -35 -134.5 -50.5t-170.5 -15.5
q-42 0 -110.5 6.5t-152.5 16.5q-50 -8 -109.5 -14t-119 -10t-114 -6t-95.5 -2h-1z" />
    <glyph glyph-name="afii10038" unicode="&#x424;" horiz-adv-x="1700" 
d="M1355 580q-12 8 -26 12t-34 4q-42 0 -87 -27q-21 -12 -50 -37t-60 -57.5t-61.5 -71.5t-54.5 -79.5t-39 -80.5t-15 -76q0 -35 21.5 -51.5t53.5 -16.5q75 0 187 88q28 22 51 44t44 44.5t42 47t46 51.5q24 28 48.5 54.5t53.5 55.5q19 19 44.5 40t52 40.5t51.5 36t43 27.5
q45 25 85 45.5t79 35t78 22t82 7.5q28 0 56 -5t50.5 -16.5t35.5 -30t12 -46.5q-1 -15 -8 -27.5t-17 -22t-21 -15.5t-19 -9q-8 -2 -15.5 -3.5t-9.5 0.5q-1 2 4 2.5t13 8.5q10 9 15.5 25.5t4.5 33.5q-1 19 -11 34t-26.5 24.5t-36.5 14.5t-41 5q-78 0 -164.5 -31t-163.5 -84
q-26 -17 -53.5 -40t-53.5 -48q42 26 85 42.5t81 16.5q46 0 75 -27.5t29 -93.5q0 -126 -139 -264q-24 -24 -56 -48t-67 -43.5t-71 -31.5t-70 -12q-22 0 -42.5 6t-36.5 19.5t-26 36.5t-10 58q0 15 3 33q1 3 1.5 7.5t2.5 10.5q-22 -28 -43.5 -53.5t-43.5 -50.5
q-70 -77 -147.5 -142t-165 -113t-186 -77t-209.5 -33q-8 -1 -16.5 -1h-16.5q-91 0 -170 20.5t-137.5 60.5t-92.5 100t-34 138q0 57 19.5 105.5t54 88t80.5 70t99 51t110.5 31t114.5 10.5q60 0 120 -14t108.5 -42.5t79 -72t30.5 -103.5t-31.5 -108t-82 -81.5t-114.5 -51.5
t-130 -18q-41 0 -81 9.5t-72 28t-52 47t-20 66.5q0 12 4 25.5t10 25.5t13 20t13 8h1q1 -1 -2.5 -3.5t-5.5 -5.5q-12 -14 -18 -30.5t-6 -37.5q0 -36 19.5 -63t50 -45t69 -26.5t77.5 -8.5q63 0 120.5 17.5t101.5 49.5t70 77.5t26 101.5q0 54 -24.5 96.5t-65.5 71t-95 43.5
t-112 15q-88 0 -170 -23t-145.5 -67t-102 -108.5t-38.5 -147.5q0 -76 31.5 -134t87 -97.5t129.5 -59.5t160 -20q117 0 214 32t179 83.5t152 116.5t133 131q12 13 23.5 25t22.5 25q-48 -35 -102 -58.5t-100 -23.5t-75.5 27.5t-29.5 93.5t35.5 129t106.5 135q24 24 55 48
t65.5 43.5t71 31.5t70.5 12q19 0 38.5 -5t34.5 -16q25 -18 39 -46t12 -65q-1 -32 -17 -59.5t-40.5 -47t-56 -30.5t-64.5 -11q-20 0 -40 3.5t-37.5 11.5t-30.5 20t-19 29q-32 -24 -86 -40.5t-120 -15.5q-44 6 -85 23t-72 45.5t-49.5 67t-16.5 87.5q1 39 16.5 73t41 59t58 39
t68.5 14q23 0 44.5 -7t38 -20.5t26 -33.5t8.5 -46q-1 -55 -46 -87q-5 -3 -9 -5t-5 0t3 4.5t8 6.5q17 15 27 35t11 48q0 24 -8.5 42t-23 30t-34 17.5t-40.5 5.5q-35 0 -64 -14t-50.5 -38t-34.5 -57t-14 -71q-2 -44 14.5 -80t45.5 -62.5t67.5 -43.5t81.5 -22q63 0 115 15.5
t82 38.5q-1 4 -2 11t0 14q2 14 9 24.5t17 10.5q7 0 10 -5t2 -12q-2 -23 -27 -45q5 -15 17.5 -26.5t29 -19t36 -11t38.5 -3.5h1q30 0 59 10.5t52 29.5t37.5 44t15.5 55q2 34 -11 60t-36 43zM1305 152q4 -94 98 -94q21 0 43 7t45 20q20 12 49 37t60 58.5t61.5 72.5t54.5 79.5
t39 80.5t15 75t-21 51t-54 16q-76 0 -187 -87q-8 -7 -15.5 -13.5t-15.5 -13.5q-32 -35 -61 -72t-61 -80q-8 -10 -15 -19.5t-14 -18.5q-21 -47 -21 -88v-11v0zM1113 406q10 8 15.5 16t7.5 16q1 4 0 7.5t-6 3.5q-8 0 -13 -10t-5 -20v-6t1 -7z" />
    <glyph glyph-name="afii10047" unicode="&#x42d;" horiz-adv-x="748" 
d="M297 227q-31 0 -58 -10.5t-47.5 -28.5t-32 -42.5t-11.5 -52.5q0 -32 11 -56.5t30 -41t45 -26.5t56 -13q52 23 87 66t35 103q0 48 -31.5 75t-82.5 27h-1zM694 700q-53 0 -106 -17.5t-88 -40.5q-51 -34 -79 -75.5t-30 -93.5q-1 -27 8 -47t25 -33.5t38.5 -20.5t49.5 -7
q28 0 54 7.5t49 20t43 28t37 31.5q38 37 63.5 85t27.5 104q1 11 0 21t-3 20q-17 8 -39.5 13t-48.5 5h-1zM535 7q-16 -11 -39.5 -22.5t-51.5 -20.5t-59 -14.5t-62 -5.5q-9 0 -18 0.5t-18 1.5q-59 -24 -122 -24q-32 0 -63 10t-55.5 28t-39.5 44t-15 59q0 26 13 48.5t29 36.5
q3 2 6.5 5t5.5 1q1 -1 -2 -3t-6 -7q-11 -16 -18.5 -36.5t-7.5 -44.5q0 -32 12.5 -56.5t33.5 -41.5t48.5 -26t59.5 -9q56 0 106 19q-29 6 -55 18t-45.5 30t-30.5 42.5t-11 55.5q0 30 14.5 56t38.5 45t54.5 29.5t61.5 10.5q54 0 88 -28.5t34 -82.5q0 -59 -33 -102t-83 -68
q5 -1 9.5 -1h9.5q32 0 65 10t63 25.5t55 34t42 34.5q116 107 185 208.5t96.5 185t16.5 143t-54 82.5q1 -9 1.5 -18t0.5 -19q-1 -60 -23 -110t-64 -91q-35 -35 -85.5 -59t-110.5 -24q-28 0 -53.5 7.5t-45 22.5t-31 36.5t-10.5 50.5q2 57 36 99.5t88 77.5q38 25 91 42.5
t109 17.5q43 0 84 -12q-8 28 -21 50.5t-30 39.5q-28 29 -66.5 42t-85.5 13q-26 0 -46 -4t-42 -15q-5 -2 -8 -5t-4 -1q-2 3 9 10q17 11 41 19t52 8h1q94 0 155 -61q19 -19 33 -43.5t22 -55.5q27 -11 53 -44t38.5 -83t6 -114t-43.5 -137t-111.5 -152t-197.5 -158zM657 256
q18 0 30.5 -5t14.5 -19q0 -2 -1 -3q-13 16 -28.5 17.5t-16.5 -2.5q-20 -2 -36 -6.5t-31.5 -9.5t-30.5 -10t-32 -8q-42 -8 -69 19.5t-33 84.5q-1 10 0 26t3 17h1l1 -1q0 -6 -1 -12q-1 -5 -1.5 -10.5t0.5 -10.5q4 -35 18.5 -53t34.5 -25t43 -6t45 4q23 3 46 7t43 6z" />
    <glyph glyph-name="afii10025" unicode="&#x417;" horiz-adv-x="622" 
d="M303 301q-31 0 -58 -10.5t-47.5 -28.5t-32 -42.5t-11.5 -52.5q0 -32 11 -56.5t30 -41t45 -26.5t56 -13q52 23 87 66t35 103q0 48 -31.5 75t-82.5 27h-1zM507 342q-14 0 -26.5 -5.5t-14.5 -19.5q-2 -11 6.5 -18t21.5 -11.5t27.5 -6t24.5 -1.5q9 0 18 0.5t18 1.5
q-5 26 -22.5 43t-51.5 17h-1zM700 774q-53 0 -106 -17.5t-88 -40.5q-51 -34 -79 -75.5t-30 -93.5q-1 -27 8 -47t25 -33.5t38.5 -20.5t49.5 -7q28 0 54 7.5t49 20t43 28t37 31.5q38 37 63.5 85t27.5 104q1 11 0 21t-3 20q-17 8 -39.5 13t-48.5 5h-1zM586 929q94 0 155 -61
q19 -19 33 -43.5t22 -55.5q55 -20 91.5 -62.5t36.5 -108.5q0 -69 -29 -127.5t-93 -109.5q-15 -12 -35.5 -24t-45 -23t-52 -20t-56.5 -15q8 -22 8 -44q0 -47 -21 -85.5t-59 -68.5q-18 -14 -41.5 -25.5t-51.5 -20t-58 -13t-61 -4.5q-9 0 -18 0.5t-18 1.5q-59 -24 -122 -24
q-32 0 -63 10t-55.5 28t-39.5 44t-15 59q0 26 13 48.5t29 36.5q3 2 6.5 5t5.5 1q1 -1 -2 -3t-6 -7q-11 -16 -18.5 -36.5t-7.5 -44.5q0 -32 12.5 -56.5t33.5 -41.5t48.5 -26t59.5 -9q56 0 106 19q-29 6 -55 18t-45.5 30t-30.5 42.5t-11 55.5q0 30 14.5 56t38.5 45t54.5 29.5
t61.5 10.5q54 0 88 -28.5t34 -82.5q0 -59 -33 -102t-83 -68q5 -1 9.5 -1h9.5q32 0 58.5 7t49 19t41.5 27t36 31q31 30 50 67.5t19 79.5v7t-1 8q-9 -1 -18.5 -1.5t-18.5 -0.5q-14 0 -30.5 2.5t-30.5 8t-22.5 14.5t-6.5 22q2 16 18.5 23.5t32.5 7.5q32 0 60 -17t43 -46
q47 12 86 38.5t75 63.5q46 48 70.5 99.5t24.5 120.5q0 47 -16 83.5t-51 58.5q1 -9 1.5 -18t0.5 -19q-1 -60 -23 -110t-64 -91q-35 -35 -85.5 -59t-110.5 -24q-28 0 -53.5 7.5t-45 22.5t-31 36.5t-10.5 50.5q2 57 36 99.5t88 77.5q38 25 91 42.5t109 17.5q43 0 84 -12
q-8 28 -21 50.5t-30 39.5q-28 29 -66.5 42t-85.5 13q-26 0 -46 -4t-42 -15q-5 -2 -8 -5t-4 -1q-2 3 9 10q17 11 41 19t52 8h1z" />
    <glyph glyph-name="afii10066" unicode="&#x431;" horiz-adv-x="229" 
d="M120 305q3 27 19.5 48.5t43.5 36t61.5 21.5t73.5 6q38 -1 82 -7.5t84 -13.5q35 -6 78 -12t91 -9q66 -3 109.5 13t49.5 51q6 33 -26 57.5t-92 24.5q-42 0 -75 -14.5t-52 -36.5q-11 -11 -15 -27q-2 -7 -2.5 -10.5t-2.5 -3.5q-3 0 -2 13q2 18 15 34q19 25 53 41.5t82 16.5
q32 0 58 -7t43.5 -21t25.5 -34t3 -46q-4 -21 -19.5 -37t-39.5 -26t-56 -14.5t-68 -3.5q-45 0 -84.5 6.5t-90.5 17.5q-40 8 -80.5 15t-80.5 9q-33 2 -63.5 -3t-54.5 -16.5t-39 -29.5t-18 -42q-2 -27 5 -56.5t37 -55.5q14 -12 27 -21.5t17 -23.5q6 -23 -13 -52t-54 -54
q-65 -48 -111 -48q-49 0 -49 37q0 38 28 69v1q-26 -26 -32 -26l-1 1v2l1 4q32 34 86 63q55 30 96 30q4 0 6 -5q-1 -1 -11 -6q-16 -8 -36 -24t-43 -39q-51 -53 -51 -83q0 -14 14 -14q37 0 91 57q28 29 40 50.5t12 41.5q0 12 -12 21.5t-26 25t-24.5 40.5t-7.5 68z" />
    <glyph glyph-name="afii10024" unicode="&#x416;" horiz-adv-x="1427" 
d="M568 35q-16 -11 -39.5 -22.5t-51.5 -20.5t-59 -14.5t-62 -5.5q-9 0 -18 0.5t-18 1.5q-59 -24 -122 -24q-32 0 -63 10t-55.5 28t-39.5 44t-15 59q0 26 13 48.5t29 36.5q3 2 6.5 5t5.5 1q1 -1 -2 -3t-6 -7q-11 -16 -18.5 -36.5t-7.5 -44.5q0 -32 12.5 -56.5t33.5 -41.5
t48.5 -26t59.5 -9q56 0 106 19q-29 6 -55 18t-45.5 30t-30.5 42.5t-11 55.5q0 30 14.5 56t38.5 45t54.5 29.5t61.5 10.5q54 0 88 -28.5t34 -82.5q0 -59 -33 -102t-83 -68q5 -1 9.5 -1h9.5q32 0 65 10t63 25.5t55 34t42 34.5q116 107 185 208.5t96.5 185t16.5 143t-54 82.5
q1 -9 1.5 -18t0.5 -19q-1 -60 -23 -110t-64 -91q-35 -35 -85.5 -59t-110.5 -24q-28 0 -53.5 7.5t-45 22.5t-31 36.5t-10.5 50.5q2 57 36 99.5t88 77.5q38 25 91 42.5t109 17.5q43 0 84 -12q-8 28 -21 50.5t-30 39.5q-28 29 -66.5 42t-85.5 13q-26 0 -46 -4t-42 -15
q-5 -2 -8 -5t-4 -1q-2 3 9 10q17 11 41 19t52 8h1q94 0 155 -61q19 -19 33 -43.5t22 -55.5q30 -12 52 -51.5t26.5 -98.5t-14 -133.5t-70.5 -155.5q22 20 45 42t49 47q49 46 93 86t85.5 76.5t82.5 72t85 72.5q5 5 11 8t13 1q8 -3 5 -12.5t-6 -14.5q-23 -32 -44.5 -63.5
t-44 -65t-46.5 -70.5t-50 -80q-42 -68 -87.5 -140.5t-87.5 -132.5q30 31 72.5 76t90.5 93.5t97.5 97t93.5 87.5q9 9 23.5 22.5t29.5 27.5t29 27t22 20q40 52 81.5 100t86 88.5t91 71.5t96.5 51q26 10 45 16t31 9q11 2 22.5 5t24.5 5q54 10 109 5t101 -26t78.5 -60t43.5 -98
q12 -68 -8 -131.5t-65 -115.5t-111.5 -89t-147.5 -52q-45 -8 -97 -4.5t-99 21.5q-21 8 -41.5 22t-37 31.5t-28.5 38.5t-16 44q-3 17 -3 39t3.5 42t10 34.5t16.5 16.5l1 -1q1 0 -1 -4t-4 -7q-14 -27 -16.5 -54t3.5 -62q4 -23 16 -42.5t29 -35t37.5 -27.5t41.5 -20
q42 -13 89.5 -14t92.5 7q75 13 139 47t108.5 82t65 107t8.5 123q-10 56 -40.5 94t-74 59t-96 26t-105.5 -4l-1 -1q-12 -2 -28 -6t-33 -9.5t-32.5 -10.5t-26.5 -9q-69 -30 -123 -76.5t-101.5 -106t-90.5 -129.5t-89 -146q-24 -37 -45.5 -72.5t-43.5 -70.5q-11 -19 -28.5 -47
t-34 -59.5t-27.5 -62t-8 -54.5q2 -18 12 -29t32 -10q39 1 78 25t72 60q26 29 41.5 63t10.5 65q-2 14 -11 23t-24 9q-15 -1 -30.5 -8.5t-29.5 -19.5t-25.5 -26.5t-18.5 -29.5q-10 -21 -12 -19q-2 1 0.5 7.5t5.5 12.5q7 16 19 32.5t26.5 29.5t31 21t33.5 9q22 0 36.5 -9.5
t18.5 -32.5q4 -32 -14.5 -66t-49.5 -67q-36 -38 -75.5 -63t-83.5 -26h-1q-33 0 -49 17t-19 44.5t4.5 63t22 73.5t34 75.5t40.5 69.5q29 45 58.5 89.5t61.5 88.5q-67 -61 -133.5 -125t-128.5 -126.5t-117.5 -121.5t-100.5 -108q-5 -5 -11.5 -9t-18.5 -4q-13 0 -12.5 11.5
t8.5 23.5q15 22 36.5 54t45.5 69.5t50 78.5l52 82q50 80 95.5 150.5t91.5 129.5q-27 -23 -60 -52t-69 -61.5t-74.5 -67.5t-76.5 -70q-36 -34 -69 -65t-63 -60q-38 -51 -92 -102.5t-126 -102.5zM727 728q-53 0 -106 -17.5t-88 -40.5q-51 -34 -79 -75.5t-30 -93.5
q-1 -27 8 -47t25 -33.5t38.5 -20.5t49.5 -7q28 0 54 7.5t49 20t43 28t37 31.5q38 37 63.5 85t27.5 104q1 11 0 21t-3 20q-17 8 -39.5 13t-48.5 5h-1zM330 255q-31 0 -58 -10.5t-47.5 -28.5t-32 -42.5t-11.5 -52.5q0 -32 11 -56.5t30 -41t45 -26.5t56 -13q52 23 87 66t35 103
q0 48 -31.5 75t-82.5 27h-1z" />
    <glyph glyph-name="X" unicode="X" horiz-adv-x="924" 
d="M677 380q36 13 67 25t61 24.5t61 26.5t67 32q32 16 63.5 35t57 40.5t42 46.5t18.5 54q2 24 -13.5 34.5t-39.5 10.5q-27 0 -55.5 -11.5t-56.5 -28.5t-53 -38t-46 -41q-27 -27 -49.5 -50.5t-43 -48.5t-40 -51.5t-40.5 -59.5zM87 -25q44 -2 99.5 18t132.5 68q48 29 104 73
t109 106q13 24 28.5 48.5t32.5 50.5q-100 -36 -191.5 -69t-178.5 -75q-80 -38 -130 -82.5t-50 -96.5q0 -21 14.5 -30.5t29.5 -10.5zM85 -36q-32 1 -53 14t-19 43q1 27 20.5 53t49.5 50t67.5 45t75.5 38q45 21 90 39t91 35t94 34t100 36q18 27 40.5 59.5t42.5 67t34.5 68.5
t16.5 64q3 44 -20.5 65t-70.5 21q-25 0 -55.5 -6.5t-62 -18t-62.5 -28t-57 -35.5q-21 -16 -42.5 -36.5t-39 -44t-28.5 -48t-12 -48.5q-3 -66 64 -66q47 0 85.5 21.5t64.5 44.5q10 9 13 13.5t5 2.5t-3.5 -9t-11.5 -13q-12 -11 -28 -23.5t-36.5 -22.5t-43.5 -16.5t-48 -6.5
q-18 0 -34 5t-28 15t-19 25t-6 35q1 25 12.5 49t29.5 46t41 42.5t49 39.5q28 20 62 37t68 29t66 19t57 7q31 0 57.5 -6.5t44.5 -20.5t27 -36t7 -53q-1 -15 -5.5 -33.5t-9.5 -31.5q27 31 63 65.5t75.5 62.5t81 46.5t79.5 18.5q15 0 28 -3t22.5 -9.5t15 -18.5t4.5 -30
q-2 -27 -20.5 -51.5t-46.5 -46.5t-63 -42t-69 -37q-36 -18 -68.5 -32.5t-64 -27.5t-64 -25.5t-69.5 -26.5q-26 -39 -49 -74.5t-41 -70t-29.5 -69t-14.5 -71.5q-3 -45 16.5 -66.5t68.5 -19.5q26 1 55 10t58 24t57 34.5t52 39.5q36 31 61 60t40.5 55t23.5 47.5t11 36.5
q5 25 -6.5 45t-39.5 20q-34 0 -66 -16.5t-64 -44.5q-13 -11 -25.5 -25t-23 -27.5t-18.5 -25.5t-12 -20q-8 -17 -9 -24t-3 -7t-1 8t7 24q8 19 28.5 48.5t50.5 55.5q35 29 67.5 46.5t69.5 17.5q34 0 52 -24.5t14 -56.5q-5 -38 -39 -88.5t-111 -114.5q-25 -21 -53.5 -40
t-59 -34t-60.5 -24t-58 -10q-60 -2 -97.5 25t-33.5 89q3 45 25 97q-42 -39 -89.5 -75.5t-101.5 -69.5q-76 -47 -132 -68t-104 -20z" />
    <glyph glyph-name="afii10049" unicode="&#x42f;" horiz-adv-x="1489" 
d="M1186 102q7 19 23.5 52.5t38.5 74.5t47 84q18 32 35 61q-13 -12 -27 -24q-37 -32 -74 -65q-48 -39 -94 -77t-88 -70q-159 -116 -320 -166t-341 -25h-1q-77 10 -150.5 38t-128 76.5t-83.5 119.5t-17 167q8 67 36 123.5t71 101t97.5 76.5t116 51t127 24.5t130.5 -3.5
q50 -6 98 -26t85 -52t57 -75.5t14 -96.5q-8 -68 -47 -119.5t-94.5 -84.5t-119 -47t-121.5 -6q-30 4 -58.5 16.5t-51 32t-34.5 45.5t-9 58q3 21 12.5 41t21 35t23.5 23.5t20 7.5h1q1 -1 -4 -4.5t-8 -5.5q-22 -19 -35 -40.5t-16 -53.5q-4 -29 7 -52t32 -40t48.5 -27t55.5 -14
q56 -8 118 4t115 42t90.5 78t45.5 112q6 51 -14 92t-55.5 72t-82 50.5t-94.5 26.5q-95 13 -186.5 -6.5t-166.5 -67.5t-125.5 -122.5t-62.5 -170.5q-11 -88 13 -156.5t72.5 -117t116 -78t144.5 -40.5q87 -12 169 -3.5t162 35t158 68.5t156 97q54 35 105 76.5t100 82.5
q39 33 77 65q-14 -9 -28 -17q-23 -14 -48 -22.5t-51 -8.5q-22 0 -42.5 6t-37 18t-28 31t-14.5 45q-5 34 -0.5 67t15 64t24.5 59t28 51q-35 4 -75 14.5t-76 32t-62 55t-33 83.5q-6 39 8 69.5t40 51.5t59.5 32.5t68.5 11.5q27 0 52.5 -7t46 -20t34.5 -32.5t18 -43.5
q0 -8 -1 -8t-3 8q-14 43 -54 66.5t-90 23.5q-33 0 -62 -11t-49.5 -30.5t-30 -47.5t-4.5 -62q6 -45 27.5 -76.5t52 -52t67 -32t72.5 -15.5q37 60 85 108t105 91q30 22 66 44.5t75 40.5t81 29t86 11q31 0 60 -14.5t33 -45.5q4 -24 -13 -51.5t-47 -54t-68.5 -50.5t-77.5 -43
q-39 -18 -77.5 -32t-78.5 -23.5t-83.5 -15t-92.5 -6.5q-17 -28 -34 -58t-29 -61.5t-17.5 -65.5t-0.5 -71q5 -32 22.5 -53t57.5 -21q24 0 50 9.5t51 25t47 35.5q15 13 27 26q30 47 59 93q41 63 79.5 112.5t73 81t63.5 35.5q3 4 9 -0.5t12 -13.5q6 -10 -18.5 -46t-66 -84
t-91.5 -100q-44 -47 -83 -85v-1q-17 -26 -36.5 -73t-54.5 -110q-9 -18 -23.5 -45t-28.5 -57t-24 -60t-10 -54q0 -21 9 -36t29 -15q31 0 66 20.5t65 52t50 69t20 72.5q0 20 -8 33.5t-26 13.5q-15 0 -31 -8.5t-30 -22t-25.5 -30.5t-18.5 -33q-5 -10 -5 -14.5t-2 -4.5t-2 5
q0 7 3 15q7 19 19.5 37.5t28.5 33t34 23.5t37 9t32 -13t13 -40q0 -31 -20 -69t-51 -71.5t-68.5 -58t-73.5 -28.5h-1q-5 -1 -9 -1h-9q-15 0 -29 4.5t-25.5 14.5t-18.5 27t-7 41q0 27 13 51zM1199 675q89 2 166.5 21t153.5 55q34 16 68 38t59.5 47t39.5 52t10 54
q-2 23 -16.5 37.5t-42.5 14.5q-42 0 -81.5 -12.5t-75.5 -32.5t-68 -44t-58 -48q-54 -48 -90 -91.5t-65 -90.5zM1483 525q28 29 57 61t52.5 61t39.5 53.5t19 39.5q2 7 -1 7h-7q-16 0 -36.5 -18t-43.5 -47t-46.5 -65t-44.5 -71.5t-39 -68.5q-2 -2 -3 -5q25 24 53 53z" />
    <glyph glyph-name="M" unicode="M" horiz-adv-x="1814" 
d="M480 -113q-88 0 -174.5 19t-154 63.5t-108 116.5t-37.5 178q2 68 27 128.5t67 111t98 90.5t121 68t135.5 42.5t142.5 14.5q56 0 112 -14t100.5 -42t72.5 -70t28 -97q0 -72 -36.5 -131t-93 -101.5t-125.5 -65.5t-134 -23q-33 0 -66.5 8.5t-60 25.5t-43.5 42.5t-17 59.5
q0 41 17.5 69.5t37.5 43.5q13 10 15 8q1 -1 -3.5 -4.5t-8.5 -7.5q-21 -22 -32.5 -46.5t-11.5 -59.5q0 -30 16 -52t41 -36t56.5 -21t63.5 -7q63 0 129.5 21t121.5 60t90 94t35 123q0 54 -27 94t-70.5 66.5t-97.5 40t-108 13.5q-104 0 -202.5 -32.5t-175 -91.5t-124 -141.5
t-49.5 -181.5q-2 -96 33 -165.5t95 -114t139.5 -66t166.5 -21.5q99 0 189 20.5t175 58.5t165.5 92.5t160.5 122.5q73 63 142 132.5t134.5 136.5t126.5 125.5t120 99.5q15 11 29.5 17.5t27.5 4.5q21 -3 23.5 -21.5t-6.5 -40.5q-6 -15 -27 -45t-49.5 -67.5t-60.5 -80
t-62 -82.5q-38 -52 -79 -107.5t-76.5 -105t-61.5 -89t-34 -59.5q-3 -8 -4.5 -17t6.5 -11q7 -2 14.5 3.5t15.5 13.5q74 73 149.5 165t170.5 196q47 52 88 98t80 88t79 80t85 74q12 10 25 15.5t26 2.5q14 -3 18 -16t-1 -29q-7 -25 -25.5 -56t-44 -66.5t-55.5 -74.5t-60 -79
q-29 -39 -59.5 -81t-58.5 -83t-52.5 -79.5t-42.5 -69.5q-14 -23 -22 -41.5t-10 -30.5q-4 -35 26 -40q21 -3 52.5 8.5t55.5 31.5q10 8 13 12t5 2q3 -3 -13 -17q-20 -19 -51 -34t-66 -15t-52 18t-15 46q2 36 32 92q27 51 70 114t91 124q36 46 77.5 98t77.5 98.5t61.5 81.5
t30.5 46q7 17 0 22q-6 4 -16 -1t-19 -13q-42 -35 -81 -73t-77.5 -79.5t-78.5 -87t-85 -94.5q-47 -52 -93.5 -106t-88.5 -103.5t-78.5 -90t-63.5 -65.5q-14 -14 -26 -21.5t-25 -6.5q-15 1 -24 11.5t-7 29.5q2 16 11 39t21 45q21 37 42.5 69t44.5 62.5t48 62.5t53 70
q33 46 61.5 82.5t55.5 71.5t55.5 72t61.5 84q8 11 11.5 19.5t-1.5 12.5q-11 7 -37 -12q-38 -26 -79 -63.5t-84.5 -80.5t-88.5 -90t-89.5 -93.5t-87.5 -90t-84 -79.5q-80 -71 -162 -125.5t-169 -91.5t-180 -56t-194 -19h-1z" />
    <glyph glyph-name="J.swash1" unicode="J" horiz-adv-x="1280" 
d="M1379 293q30 0 57.5 10t48.5 26.5t33.5 37.5t12.5 44q-2 41 -31 56q-38 -41 -72.5 -84.5t-69.5 -88.5q5 -1 10 -1h10h1zM1311 303q41 48 79.5 91.5t76.5 81.5h-4q-2 0 -5 0.5t-8 0.5q-29 0 -50 -11l-7 -4q-2 2 5 7q8 6 23 11t31 5h11.5t11.5 -1q38 39 75 70.5t74 53.5
q52 31 105 48.5t120 24.5q10 1 18 1.5t8 4.5t-5 6.5t-10 4.5q-16 5 -40.5 7t-50.5 2q-54 0 -110.5 -10.5t-106.5 -25.5t-90 -31.5t-62 -29.5q-28 -17 -58 -38.5t-54 -48t-39 -58.5t-12 -68q2 -37 22.5 -60t51.5 -34zM505 -251q-92 -4 -174 13t-144.5 53.5t-101.5 92.5
t-46 131q-6 62 11 114t50.5 95t80.5 75.5t101.5 54.5t114.5 33.5t119 11.5q56 0 113 -12t105 -37.5t80.5 -64.5t38.5 -92q8 -66 -21 -118.5t-80.5 -89.5t-119 -57t-136.5 -20q-40 0 -79.5 9t-71 27t-52 45t-22.5 63q-2 26 7 45.5t23 33.5q3 3 6.5 5.5t4.5 1.5t-2.5 -3.5
t-5.5 -5.5q-27 -31 -24 -77q2 -34 22 -59.5t51 -42t68.5 -24.5t74.5 -8q67 0 127.5 19.5t105 55t68 86t16.5 112.5q-6 48 -32.5 85t-67 62.5t-91.5 38.5t-105 13q-92 0 -177 -25t-149.5 -73t-100.5 -118t-28 -160q6 -72 43.5 -126.5t97 -90t137 -51.5t164.5 -12
q109 5 200.5 38.5t169.5 84t145.5 113t127.5 126.5q42 45 81 89t77 87q-32 12 -53.5 37t-23.5 63q-3 39 11 73t37 63t53.5 52.5t60.5 41.5q25 14 65.5 30t90.5 29t107 21.5t115 8.5q28 0 57 -3t47 -9q7 -2 13 -6.5t7 -10.5q1 -7 -9.5 -9t-21.5 -4q-36 -5 -64.5 -12t-54 -17
t-50 -23.5t-51.5 -31.5q-37 -24 -69.5 -52.5t-62.5 -60.5q20 -8 34 -24t15 -42q1 -24 -15 -47t-42 -40.5t-58.5 -28t-65.5 -10.5h-13t-13 1q-33 -45 -67 -88t-71 -83q-70 -77 -147.5 -142t-165 -113t-186 -77t-209.5 -33z" />
  </font>
</defs>
</svg>
